<?xml version="1.0" encoding="UTF-8" standalone="no"?>
<!-- Created with Inkscape (http://www.inkscape.org/) -->

<svg
   width="11.868191mm"
   height="17.445076mm"
   viewBox="0 0 11.868191 17.445077"
   version="1.1"
   id="svg987"
   xmlns="http://www.w3.org/2000/svg"
   xmlns:svg="http://www.w3.org/2000/svg">
  <defs
     id="defs984" />
  <g
     id="layer1"
     transform="translate(-112.81459,-113.09674)">
    <path
       style="fill:none;fill-opacity:0.992157;stroke:#000000;stroke-width:0.264583;stroke-linecap:round;stroke-linejoin:round;stroke-miterlimit:4;stroke-dasharray:none;stroke-dashoffset:5.91;stroke-opacity:1;paint-order:normal"
       d="m 118.76764,121.46158 c 0.47446,-0.35071 0.68671,-1.05011 0.78233,-1.58778 l -1.1e-4,-3e-5 c 0.22493,-1.26523 -0.14045,-2.43186 -0.64577,-3.5082 -0.57733,-1.22968 -0.9425,-2.24436 -1.93223,-2.79515 -0.54791,-0.30491 -1.43899,-0.54035 -1.87881,-0.0934 -1.0366,1.05339 -0.0838,3.71115 0.2913,4.42413 0.37033,0.81224 0.6839,1.5973 1.08024,2.35551 0.3497,0.67904 0.7786,1.28338 1.54489,1.32738 0.26246,0.0104 0.55229,0.0298 0.75816,-0.12244 z"
       id="path3814" />
    <path
       id="path3816"
       d="m 121.95453,120.4007 c -0.63265,0.22308 -1.09651,0.9126 -1.37968,1.46519 l 1.1e-4,6e-5 c -0.66629,1.30036 -0.65799,2.69034 -0.46747,4.0288 0.21767,1.52914 0.27639,2.75386 1.16865,3.6825 0.49397,0.51409 1.38412,1.06708 2.0112,0.72785 1.47798,-0.79949 1.32818,-4.0062 1.1581,-4.90627 -0.13181,-1.00639 -0.21099,-1.9643 -0.38907,-2.92061 -0.15378,-0.85471 -0.41855,-1.6546 -1.23688,-1.95788 -0.28185,-0.0987 -0.59045,-0.21645 -0.86496,-0.11964 z"
       style="fill:none;fill-opacity:0.992157;stroke:#000000;stroke-width:0.264583;stroke-linecap:round;stroke-linejoin:round;stroke-miterlimit:4;stroke-dasharray:none;stroke-dashoffset:5.91;stroke-opacity:1;paint-order:normal" />
    <path
       style="fill:none;fill-opacity:0.992157;stroke:#000000;stroke-width:0.264583;stroke-linecap:round;stroke-linejoin:round;stroke-miterlimit:4;stroke-dasharray:none;stroke-dashoffset:5.91;stroke-opacity:1;paint-order:normal"
       d="m 118.44466,128.66309 c 0.42274,-0.44617 0.513,-1.20219 0.51311,-1.77109 l -1.1e-4,-10e-6 c 1.7e-4,-1.33869 -0.58715,-2.4687 -1.30155,-3.4806 -0.8162,-1.15606 -1.37562,-2.13025 -2.49111,-2.51484 -0.61754,-0.2129 -1.5744,-0.29204 -1.94406,0.2465 -0.87129,1.26931 0.5902,3.82169 1.10485,4.48463 0.52783,0.76562 0.9925,1.51369 1.53716,2.21915 0.4824,0.63276 1.03242,1.17446 1.8264,1.07997 0.27108,-0.0372 0.5719,-0.0701 0.75531,-0.26371 z"
       id="path3818" />
  </g>
</svg>
