<?xml version="1.0" encoding="UTF-8" standalone="no"?>
<!-- Created with Inkscape (http://www.inkscape.org/) -->

<svg
   width="10.015256mm"
   height="4.436058mm"
   viewBox="0 0 10.015256 4.4360583"
   version="1.1"
   id="svg987"
   xmlns="http://www.w3.org/2000/svg"
   xmlns:svg="http://www.w3.org/2000/svg">
  <defs
     id="defs984" />
  <g
     id="layer1"
     transform="translate(-111.43842,-124.07123)">
    <path
       id="path3751"
       d="m 121.25935,126.35816 c -0.21294,-0.59144 -0.70323,-1.1077 -1.23886,-1.42179 l -7e-5,1e-4 c -1.26045,-0.73901 -2.64747,-0.79483 -3.99575,-0.69542 -1.33277,0.0983 -2.90741,0.27029 -3.80626,1.25922 -0.48187,0.53018 -0.88969,1.50938 -0.47775,2.09554 0.85533,1.21714 3.52166,0.65963 4.42994,0.54092 1.01225,-0.0745 1.71468,-0.13176 2.77423,0.15895 1.05956,0.2907 1.65142,-0.26512 1.99416,-0.5824 0.1307,-0.12111 0.24353,-0.28519 0.29746,-0.4595 0.0883,-0.2853 0.12407,-0.61464 0.0229,-0.89562 z"
       style="fill:none;fill-opacity:0.992157;stroke:#000000;stroke-width:0.264583;stroke-linecap:round;stroke-linejoin:round;stroke-miterlimit:4;stroke-dasharray:none;stroke-dashoffset:5.91;stroke-opacity:1;paint-order:normal" />
  </g>
</svg>
