<?xml version="1.0" encoding="UTF-8" standalone="no"?>
<!-- Created with Inkscape (http://www.inkscape.org/) -->

<svg
   width="11.825343mm"
   height="3.6270657mm"
   viewBox="0 0 11.825343 3.6270658"
   version="1.1"
   id="svg987"
   xmlns="http://www.w3.org/2000/svg"
   xmlns:svg="http://www.w3.org/2000/svg">
  <defs
     id="defs984" />
  <g
     id="layer1"
     transform="translate(-114.33411,-120.72893)">
    <path
       style="fill:none;fill-opacity:0.992157;stroke:#000000;stroke-width:0.264583;stroke-linecap:butt;stroke-linejoin:miter;stroke-miterlimit:4;stroke-dasharray:none;stroke-opacity:1"
       d="m 115.42694,121.62265 c 0.4377,-0.39382 0.7434,-0.76706 1.59389,-0.76137 1.16403,0.008 2.34753,1.56141 3.49204,1.34895 0.96395,-0.17893 0.94234,-0.9866 1.86042,-1.15814 0.91809,-0.17154 2.35859,0.67605 3.11667,1.55551 0.27658,0.32088 0.73384,0.69844 0.4454,0.98922 -0.15266,0.15392 -0.31803,0.32852 -0.47333,0.3095 -0.42709,-0.0523 -0.99923,-0.4797 -1.53959,-0.70373 -0.28557,-0.1184 -0.60493,-0.35639 -1.08509,-0.14393 -1.14991,0.95778 -1.73815,0.96907 -2.68173,0.91876 -1.05185,-0.0561 -1.81215,-1.39969 -2.86362,-1.33625 -0.96212,0.058 -1.64729,1.93063 -2.45448,1.52873 -0.16126,-0.0803 -0.32324,-0.22503 -0.35886,-0.42435 -0.0493,-0.27562 0.075,-0.63151 0.16545,-0.8491 0.1954,-0.47022 0.41235,-0.94044 0.78283,-1.2738 z"
       id="path3755" />
  </g>
</svg>
