<?xml version="1.0" encoding="UTF-8" standalone="no"?>
<!-- Created with Inkscape (http://www.inkscape.org/) -->

<svg
   width="13.613449mm"
   height="4.7054296mm"
   viewBox="0 0 13.613449 4.7054298"
   version="1.1"
   id="svg987"
   xmlns="http://www.w3.org/2000/svg"
   xmlns:svg="http://www.w3.org/2000/svg">
  <defs
     id="defs984" />
  <g
     id="layer1"
     transform="translate(-114.07224,-122.19298)">
    <path
       style="fill:none;fill-opacity:0.992157;stroke:#000000;stroke-width:0.264583;stroke-linecap:round;stroke-linejoin:round;stroke-miterlimit:4;stroke-dasharray:none;stroke-dashoffset:5.91;stroke-opacity:1;paint-order:normal"
       d="m 120.11798,122.95001 c -1.30778,-0.65159 -2.7345,-0.79578 -4.03379,-0.42212 -0.68763,0.19777 -1.39365,0.6722 -1.69,1.32342 -0.27409,0.60233 -0.25306,1.4253 0.10386,1.98252 0.36039,0.56258 0.86933,0.92157 1.77441,0.93207 1.45101,0.007 2.18526,-0.15862 3.06559,-0.22722 0.88028,-0.0686 1.56481,-0.5409 1.88518,-0.88075 0.12216,-0.12971 0.21186,-0.29691 0.26553,-0.47865 0.0166,-0.0561 0.99451,0.39592 2.08498,0.36773 0.68268,-0.0177 1.41367,-0.96651 2.07286,-1.10024 1.09098,-0.22135 1.90687,0.56712 1.90687,0.56712 0,0 -0.69077,-0.99114 -1.7963,-0.98729 -0.63748,0.002 -1.54687,0.96588 -2.20108,0.9152 -1.08741,-0.0842 -2.08362,-0.60659 -2.10538,-0.65763 -0.20782,-0.48748 -0.77692,-1.05732 -1.33266,-1.33427 z"
       id="path3728" />
  </g>
</svg>
