<?xml version="1.0" encoding="UTF-8" standalone="no"?>
<!-- Created with Inkscape (http://www.inkscape.org/) -->

<svg
   width="22.604156mm"
   height="7.4857855mm"
   viewBox="0 0 22.604156 7.4857859"
   version="1.1"
   id="svg987"
   xmlns="http://www.w3.org/2000/svg"
   xmlns:svg="http://www.w3.org/2000/svg">
  <defs
     id="defs984" />
  <g
     id="layer1"
     transform="translate(-103.56329,-121.63427)">
    <path
       id="path3724"
       d="m 106.4005,128.96523 c 0.64691,-0.20933 1.19277,-0.68318 1.72818,-1.50008 0.1863,-0.28434 0.34676,-0.52703 0.35645,-0.53936 0.01,-0.0124 0.27962,0.12209 0.5995,0.29942 0.7454,0.4123 1.03741,0.50195 1.56989,0.48285 0.69899,-0.0253 1.25764,-0.40915 1.80911,-1.24331 0.47009,-0.71104 0.72767,-0.7664 1.37913,-0.29635 0.58602,0.42281 0.87734,0.52889 1.43051,0.52115 0.40331,-0.006 0.53341,-0.0412 0.98539,-0.26887 0.30155,-0.15184 0.60524,-0.25922 0.72151,-0.25499 0.26331,0.01 0.67295,0.25203 0.79063,0.46808 0.11917,0.21886 0.72633,0.56256 1.19564,0.67686 0.47094,0.11472 0.92008,0.0417 1.57407,-0.25531 0.69034,-0.31368 0.83544,-0.25177 1.28269,0.54638 0.35976,0.64306 0.91073,1.07385 1.60431,1.25443 0.90471,0.23546 1.94001,-0.3488 2.41406,-1.36249 0.14393,-0.30781 0.17707,-0.46318 0.1918,-0.90063 0.0239,-0.71099 -0.18184,-1.26582 -0.69298,-1.86936 -0.50834,-0.60023 -0.81356,-0.76573 -1.45417,-0.78864 -0.47455,-0.0169 -0.54607,-2.3e-4 -1.07858,0.2503 -0.31367,0.14769 -0.63652,0.266 -0.71744,0.26306 -0.17855,-0.006 -0.50956,-0.36827 -0.65777,-0.71874 -0.13446,-0.31796 -0.64493,-0.80154 -1.19222,-1.12945 -0.39969,-0.23952 -0.44734,-0.25231 -0.88964,-0.24015 -0.40129,0.011 -0.55244,0.0535 -1.06924,0.30064 -0.82975,0.39669 -1.11234,0.36291 -1.47683,-0.17713 -0.13891,-0.20549 -0.79301,-0.56802 -1.19989,-0.6651 -0.25503,-0.0609 -0.45387,-0.0683 -0.71129,-0.0249 -0.6969,0.11623 -1.16928,0.46068 -1.63896,1.19522 -0.34558,0.54049 -0.62177,0.74795 -0.88476,0.66462 -0.077,-0.0235 -0.25914,-0.16693 -0.405,-0.31723 -0.33833,-0.34794 -0.94573,-0.59008 -1.54015,-0.61382 -0.37748,-0.0151 -0.46266,0.007 -0.78302,0.19974 -0.50271,0.30303 -1.31431,1.12827 -1.37288,1.39596 -0.0909,0.41551 -0.3238,0.41298 -1.37189,-0.015 -0.56592,-0.23067 -0.69946,-0.26185 -1.07598,-0.24921 -0.96188,0.0326 -1.73947,0.73074 -2.03632,1.82848 -0.21426,0.79227 -0.0447,1.5532 0.49844,2.23653 0.42344,0.53275 0.90942,0.80887 1.50805,0.85684 0.25238,0.0204 0.52696,0.0141 0.61026,-0.0123 z"
       style="fill:none;fill-opacity:0.992157;stroke:#000000;stroke-width:0.264583;stroke-linecap:round;stroke-linejoin:round;stroke-miterlimit:4;stroke-dasharray:none;stroke-dashoffset:5.91;stroke-opacity:1;paint-order:normal" />
  </g>
</svg>
