<?xml version="1.0" encoding="UTF-8" standalone="no"?>
<!-- Created with Inkscape (http://www.inkscape.org/) -->

<svg
   width="9.7024479mm"
   height="9.0683813mm"
   viewBox="0 0 9.7024479 9.0683813"
   version="1.1"
   id="svg987"
   xmlns="http://www.w3.org/2000/svg"
   xmlns:svg="http://www.w3.org/2000/svg">
  <defs
     id="defs984" />
  <g
     id="layer1"
     transform="translate(-92.588605,-110.3513)">
    <path
       id="path1015"
       d="m 95.153707,112.77979 c -0.15316,0.14499 -0.23379,0.17401 -0.34931,0.12605 -0.11778,-0.0489 -0.46547,-0.47681 -0.5137,-0.63403 -0.0896,-0.29337 -0.25775,-0.31622 -0.3971,-0.31583 -0.151,1.9e-4 -0.35079,0.2259 -0.31164,0.35467 -0.0812,0.15928 0.0708,0.47228 0.35377,0.4027 0.12084,-0.0296 0.65099,0.29181 0.7386,0.42319 0.0348,0.0518 0.034,0.0585 -0.009,0.14208 -0.0251,0.0483 -0.0882,0.14238 -0.13998,0.20898 -0.22522,0.39083 -0.12743,0.19372 -0.25779,0.50788 -0.0408,0.0987 -0.0481,0.18216 -0.0846,0.25674 l -0.0518,0.10556 -0.12666,-0.006 c -0.14795,-0.006 -0.45712,-0.072 -0.62312,-0.13124 -0.0641,-0.0229 -0.17933,-0.0828 -0.25635,-0.13321 -0.077,-0.0504 -0.17515,-0.097 -0.21799,-0.10373 -0.0663,-0.0107 -0.0873,-0.003 -0.14152,0.0492 -0.10093,0.097 -0.13079,0.1697 -0.0999,0.2429 0.0138,0.0336 0.0543,0.0844 0.0884,0.11289 0.0561,0.0463 0.0815,0.0517 0.24544,0.0506 0.20536,-9.3e-4 0.46123,0.0343 0.77381,0.10816 0.3035,0.0717 0.3478,0.18718 0.35336,0.3614 0.007,0.21668 -0.0219,0.45784 -0.006,0.62207 0.0165,0.16425 0.0743,0.32117 0.0283,0.42382 -0.0592,0.1323 -0.67266,0.34092 -0.91279,0.34722 -0.0923,0.003 -0.17622,0.005 -0.24595,0.0508 -0.19298,0.12802 -0.17018,0.33496 -0.1115,0.44634 0.0406,0.077 0.18164,0.1456 0.28474,0.14483 0.0841,-6e-4 0.20772,-0.0932 0.25878,-0.22274 0.0257,-0.0652 0.69627,-0.43854 0.82838,-0.43946 0.0308,-2.2e-4 0.0766,0.0238 0.10828,0.0572 0.0799,0.0837 0.13371,0.32036 0.17002,0.36907 l 0.18764,0.25281 c 0.0739,0.0993 0.35072,0.29793 0.3515,0.4103 6.5e-4,0.0878 -0.62892,0.85668 -0.78831,0.96726 -0.23717,0.0345 -0.3812,0.18578 -0.39559,0.20518 -0.0393,0.0528 -0.14044,0.4433 0.0407,0.49598 0.0455,0.073 0.3171,0.0522 0.4177,0.0263 0.0842,-0.0217 0.14566,-0.17702 0.14519,-0.24992 -2.7e-4,-0.0341 0.0275,-0.22879 0.0445,-0.2779 0.0332,-0.0961 0.76,-1.02168 0.79194,-1.02192 0.0373,-2.5e-4 0.40029,0.23138 0.42051,0.26842 l 0.46632,0.16717 c 0.24686,0.0507 0.35956,0.14116 0.36063,0.28968 5.9e-4,0.0903 -0.12345,0.55249 -0.20465,0.64413 -0.21039,0.13384 -0.20402,0.37337 -0.0513,0.41572 0.0494,0.0408 0.0878,0.0532 0.16311,0.0524 0.20031,-0.002 0.37553,-0.0842 0.21303,-0.40972 0.007,-0.16554 0.11777,-0.71579 0.13064,-0.74011 0.0369,-0.0701 0.15505,-0.0929 0.34629,-0.0668 0.33024,0.009 0.56933,-0.0416 0.74741,-0.10251 0.28867,-0.002 0.37438,0.0964 0.33457,0.54866 l -0.0153,0.17236 0.0646,0.0643 c 0.0743,0.073 0.17685,0.0845 0.27869,0.031 0.1569,-0.0824 0.16471,-0.20854 0.0272,-0.43909 -0.17696,-0.29674 -0.20263,-0.43516 -0.0976,-0.52463 0.0342,-0.0292 0.096,-0.0644 0.13738,-0.0784 l 0.56066,-0.32025 c 0.0772,-0.0655 0.17848,-0.14574 0.22484,-0.17831 l 0.0844,-0.0591 0.12237,0.0677 c 0.2694,0.14895 0.785203,0.62889 0.863683,0.78101 0.0321,0.28936 0.17774,0.36661 0.33587,0.36549 0.17264,-9.3e-4 0.40496,-0.23406 0.32768,-0.38058 -0.0675,-0.19627 -0.2307,-0.21467 -0.41675,-0.26954 -0.21533,-0.0635 -0.875753,-0.5876 -0.958923,-0.71978 -0.0393,-0.0634 -0.0426,-0.0817 -0.0216,-0.14621 0.0724,-0.0563 0.0985,-0.10067 0.18045,-0.2275 l 0.154503,-0.21188 0.0446,-0.12359 c 0.0868,-0.24108 0.0737,-0.2716 0.57701,-0.1488 0.13172,0.0323 0.68725,0.22004 0.81813,0.27961 0.12789,0.0584 0.18049,0.17443 0.35579,0.19356 0.17535,0.0191 0.25442,-0.0628 0.31475,-0.25731 0.0602,-0.1945 -0.12222,-0.36211 -0.20359,-0.40454 -0.11043,-0.0483 -0.34563,0.10542 -0.34563,0.10542 -0.29045,-0.0107 -0.86831,-0.11901 -1.05892,-0.16354 l -0.24204,-0.0566 -0.0168,-0.094 c -0.021,-0.11687 0.0501,-0.29602 0.053,-0.48954 l 0.009,-0.3987 c -0.0222,-0.2332 -0.0393,-0.43352 -0.1069,-0.61955 -0.0708,-0.1875 -0.1089,-0.18152 -0.11471,-0.31291 -0.003,-0.0625 0.009,-0.0893 0.062,-0.13688 0.0732,-0.0663 0.83782,-0.60709 1.06785,-0.64121 0.18884,0.0623 0.31813,-0.0646 0.35498,-0.15521 0.0351,-0.086 -0.0858,-0.32502 -0.17193,-0.40974 -0.10522,-0.10358 -0.35273,-0.0486 -0.49564,0.33993 -0.0354,0.17323 -0.62986,0.49411 -0.69746,0.54502 -0.16178,0.12176 -0.2292,0.12375 -0.325583,0.009 -0.10399,-0.12175 -0.28109,-0.38029 -0.28118,-0.40817 -0.0417,-0.0864 -0.0792,-0.11184 -0.16945,-0.19312 l -0.0976,-0.0785 c -0.17865,-0.14406 -0.2427,-0.22052 -0.24251,-0.29112 -7.2e-4,-0.13551 0.25127,-0.47048 0.48655,-0.64696 0.1564,-0.11734 0.24935,-0.0237 0.30662,-0.36579 0.0261,-0.1555 -0.0582,-0.31216 -0.35179,-0.39225 -0.0917,-0.0249 -0.30629,0.1974 -0.22958,0.48538 -0.0649,0.23319 -0.32294,0.64673 -0.4474,0.71706 -0.0502,0.0285 -0.0654,0.0256 -0.19791,-0.035 -0.8465,-0.30457 -0.32397,-0.13092 -0.8465,-0.30457 -0.14595,-0.0172 -0.23285,-0.0562 -0.27868,-0.12497 -0.0319,-0.0483 -0.0386,-0.0975 -0.0375,-0.28026 7.2e-4,-0.27307 0.0827,-0.4417 0.16193,-0.64325 0.14978,-0.13124 0.15641,-0.36926 0.0641,-0.47399 -0.0922,-0.10496 -0.4202,-0.2023 -0.57044,0.004 -0.15024,0.20624 -0.0708,0.29212 0.0547,0.4789 0.12558,0.18674 0.0768,0.68926 0.0453,0.80561 -0.0321,0.11855 -0.0884,0.15665 -0.22808,0.15508 -0.43194,0.0226 -0.37721,0.0388 -0.68797,0.13474 -0.1693,0.0329 -0.23966,-0.0488 -0.38677,-0.44909 -0.0679,-0.1847 7.2e-4,-0.13918 7.2e-4,-0.34872 l 0.0518,-0.28098 c 0,0 -0.0461,-0.12574 -0.095,-0.16726 -0.073,-0.0617 -0.0384,-0.0766 -0.26936,-0.0992 -0.11641,-0.0122 -0.24287,0.12298 -0.28249,0.20789 -0.0534,0.11427 -0.0331,0.3979 0.17425,0.41639 0.10078,0.13123 0.19766,0.29882 0.29128,0.57983 0.0841,0.25234 0.10552,0.34839 -0.0878,0.38843 z"
       style="opacity:0.815;fill:none;fill-opacity:0.811765;fill-rule:nonzero;stroke:#000000;stroke-width:0.132292;stroke-linecap:round;stroke-linejoin:round;stroke-miterlimit:4;stroke-dasharray:none;stroke-opacity:1;paint-order:normal" />
  </g>
</svg>
