<?xml version="1.0" encoding="UTF-8" standalone="no"?>
<!-- Created with Inkscape (http://www.inkscape.org/) -->

<svg
   width="39.823555mm"
   height="49.115128mm"
   viewBox="0 0 39.823555 49.115128"
   version="1.1"
   id="svg8"
   inkscape:version="1.1.2 (b8e25be833, 2022-02-05)"
   sodipodi:docname="aiptasia.svg"
   xmlns:inkscape="http://www.inkscape.org/namespaces/inkscape"
   xmlns:sodipodi="http://sodipodi.sourceforge.net/DTD/sodipodi-0.dtd"
   xmlns="http://www.w3.org/2000/svg"
   xmlns:svg="http://www.w3.org/2000/svg"
   xmlns:rdf="http://www.w3.org/1999/02/22-rdf-syntax-ns#"
   xmlns:cc="http://creativecommons.org/ns#"
   xmlns:dc="http://purl.org/dc/elements/1.1/">
  <defs
     id="defs2" />
  <sodipodi:namedview
     id="base"
     pagecolor="#ffffff"
     bordercolor="#666666"
     borderopacity="1.0"
     inkscape:pageopacity="0.0"
     inkscape:pageshadow="2"
     inkscape:zoom="0.93733313"
     inkscape:cx="-260.313"
     inkscape:cy="2.1337131"
     inkscape:document-units="mm"
     inkscape:current-layer="layer1"
     showgrid="false"
     inkscape:snap-others="false"
     inkscape:snap-nodes="false"
     inkscape:snap-global="false"
     inkscape:window-width="1920"
     inkscape:window-height="986"
     inkscape:window-x="-11"
     inkscape:window-y="-11"
     inkscape:window-maximized="1"
     inkscape:pagecheckerboard="0" />
  <metadata
     id="metadata5">
    <rdf:RDF>
      <cc:Work
         rdf:about="">
        <dc:format>image/svg+xml</dc:format>
        <dc:type
           rdf:resource="http://purl.org/dc/dcmitype/StillImage" />
      </cc:Work>
    </rdf:RDF>
  </metadata>
  <g
     inkscape:label="Layer 1"
     inkscape:groupmode="layer"
     id="layer1"
     transform="translate(-129.54127,-120.02458)">
    <path
       style="fill:#000000;stroke-width:1"
       d="m 156.08943,149.11232 h 1e-4 m -15.17904,-15.12111 c 0.32566,0.77655 0.79894,2.28623 0.79894,2.39279 v 4e-5 c 0,0.10635 -0.45148,0.19355 -1.00328,0.19355 -1.58359,0 -3.91737,-3.76104 -5.25197,-6.22863 -0.72973,-1.34919 -2.24956,-3.01904 -2.58989,-1.75297 -0.12401,0.46133 0.84685,1.60186 1.31614,2.37775 1.16188,1.92095 2.20066,4.69908 3.70778,5.63055 0.52711,0.3258 0.65808,0.64885 0.32085,0.79118 -0.31342,0.13236 -1.83826,1.03429 -3.38853,2.00428 -2.3244,1.45437 -3.04976,1.6783 -4.13647,1.27705 -0.98988,-0.36543 -1.26305,-0.3246 -1.09778,0.16422 0.33353,0.98641 2.97266,1.08864 4.41462,0.17107 1.93072,-1.22851 6.25266,-2.6828 5.24826,-1.1941 -1.30764,1.45086 -5.17921,6.63722 -5.11519,8.24063 0.81224,0.84672 2.31868,-2.50147 3.50671,-3.63038 2.9144,-2.76936 4.18497,-2.71993 5.77288,-1.54535 0.55938,0.41379 0.0733,1.36951 0,2.04868 -0.19004,1.76378 -0.67642,3.48823 -1.13462,5.20491 -0.75924,2.84453 -1.72557,6.78026 -2.67074,8.42542 -2.35874,4.10568 -2.50876,5.59193 -0.72729,7.20599 0.82277,0.74547 2.45469,1.62149 3.62649,1.94672 1.17179,0.32524 2.35822,0.78488 2.63651,1.0214 l -9.4e-4,-9e-5 c 0.66583,0.56595 1.21194,0.54253 2.45849,-0.10538 0.56665,-0.29451 1.03024,-0.84793 1.03024,-1.22986 0,-0.3819 0.35954,-0.98416 0.79896,-1.33834 0.54074,-0.43582 0.48341,-1.62906 0.79894,-3.61961 l 0.90446,-5.70586 c 0.0405,-0.254 0.77451,-0.0919 1.06687,-0.0176 1.02908,0.26134 1.94562,-0.88736 1.0627,-1.77582 -0.62785,-0.63182 -1.29301,0.113 -1.72751,-0.28343 l 0.0252,-4.20484 0.0461,-1.93176 c -0.0449,-0.97492 0.0374,-2.92261 0.008,-3.27435 -0.0292,-0.35173 0.34799,-0.7146 0.8384,-0.80629 1.00373,-0.18768 3.63571,3.19269 4.72497,6.26206 l 1.08927,1.5925 c 0.60153,0.74269 1.36391,1.35033 1.69418,1.35033 0.42412,0 0.41275,-0.18241 -0.0387,-0.62074 -0.57778,-0.5611 -1.09061,-0.98678 -1.75318,-2.54962 -0.59572,-1.40514 -0.8943,-3.12122 -0.8943,-3.12122 -0.11294,-0.52637 1.32983,0.32117 1.98398,0.51789 1.04627,0.31463 2.04658,0.76672 3.09997,1.05812 0.83703,0.23154 1.95965,0.75855 2.54973,0.54598 1.12196,-0.40419 1.34187,-0.28599 -4.47902,-2.40749 -2.04144,-0.74404 -3.27203,-1.87646 -2.67218,-2.45903 0.11192,-0.1087 1.63352,0.48322 3.38119,1.31551 1.74767,0.83229 3.73711,1.51324 4.42098,1.51324 1.51423,0 1.12901,-0.80514 -0.5851,-1.22295 -1.54479,-0.37655 -8.64708,-4.33904 -9.43973,-5.2666 -0.81748,-0.95662 0.84854,-1.90308 6.3982,-3.63482 5.36261,-1.67336 7.49144,-3.39285 7.42943,-6.00077 l -0.0409,-1.72095 -0.62769,2.01982 c -0.71197,2.29105 -2.60086,3.49345 -7.0136,4.46463 -1.46475,0.32237 -3.80168,0.89423 -5.19317,1.27082 -1.39151,0.37656 -2.53,0.49273 -2.53,0.25808 0,-0.23462 0.21069,-0.50421 0.46821,-0.59903 0.53848,-0.1983 5.1005,-3.89201 8.44005,-6.8336 3.44309,-3.03282 2.72688,-3.25634 -1.02525,-0.31999 -1.56062,1.21093 -3.61764,2.34624 -5.44646,3.48954 -1.8796,1.17508 -4.89622,3.93346 -5.67923,3.46348 -1.25569,-0.7537 -0.0346,-4.45364 3.16025,-9.57556 1.76293,-2.82629 2.99323,-5.13872 2.734,-5.13872 -0.25922,0 -0.85985,0.52374 -1.33474,1.16387 -2.36986,3.19456 -5.83655,8.64761 -6.74148,10.6042 -0.55922,1.20915 -1.18531,2.19697 -1.39131,2.19517 -0.58815,-0.006 -1.84811,-3.14595 -1.84811,-4.23534 0,-0.54018 -0.004,-2.77981 0.46998,-5.06125 0.79568,-3.83405 0.79473,-4.24606 -0.0121,-5.44193 -0.4801,-0.71161 -1.14422,-1.29383 -1.47582,-1.29383 -0.34722,0 -0.22907,0.40116 0.27859,0.94596 1.11089,1.19163 1.11574,3.02801 0.0181,6.69482 -0.56691,1.89389 -0.76201,3.84481 -0.56735,5.67569 0.26654,2.508 0.21093,2.72095 -0.55024,2.1079 -2.39478,-1.92872 -3.029,-7.65871 -1.17092,-10.5785 0.60979,-0.95822 1.32885,-1.7422 1.5979,-1.7422 0.26907,0 0.4892,-0.23815 0.4892,-0.52922 0,-0.97127 -4.062,1.88705 -4.25766,4.87144 -0.14212,2.16698 -0.26367,3.99247 0.79661,6.52074 z"
       id="path933"
       inkscape:connector-curvature="0"
       sodipodi:nodetypes="ccssssssaccccccccsaaaccccccscsscscccccccssscaacccsssccccsccscccaccscccsccsccccsssss" />
  </g>
</svg>
