<?xml version="1.0" encoding="UTF-8" standalone="no"?>
<!-- Created with Inkscape (http://www.inkscape.org/) -->

<svg
   width="47.948994mm"
   height="37.837578mm"
   viewBox="0 0 47.948994 37.837578"
   version="1.1"
   id="svg8"
   xmlns="http://www.w3.org/2000/svg"
   xmlns:svg="http://www.w3.org/2000/svg"
   xmlns:rdf="http://www.w3.org/1999/02/22-rdf-syntax-ns#"
   xmlns:cc="http://creativecommons.org/ns#"
   xmlns:dc="http://purl.org/dc/elements/1.1/">
  <defs
     id="defs2" />
  <metadata
     id="metadata5">
    <rdf:RDF>
      <cc:Work
         rdf:about="">
        <dc:format>image/svg+xml</dc:format>
        <dc:type
           rdf:resource="http://purl.org/dc/dcmitype/StillImage" />
      </cc:Work>
    </rdf:RDF>
  </metadata>
  <g
     id="layer1"
     transform="translate(-124.59268,-27.416742)">
    <path
       style="fill:#000000;stroke-width:1"
       d="m 141.6583,65.103518 c -1.96453,-0.13205 -4.10765,-0.41185 -4.7625,-0.62177 -0.65484,-0.20992 -1.76609,-0.38044 -2.46944,-0.37893 -0.70335,0.002 -1.33176,-0.0502 -1.39647,-0.1149 -0.0647,-0.0647 0.02,-0.46158 0.1882,-0.88194 0.85508,-2.1369 0.79601,-2.72356 -0.50061,-4.97151 -1.37798,-2.389012 -2.5748,-3.862582 -3.13715,-3.862582 -0.61443,0 -1.68036,1.24179 -1.68036,1.95759 0,0.362302 -0.30484,0.992802 -0.67742,1.401092 -0.53718,0.58867 -0.61935,0.62271 -0.39688,0.16444 0.1543,-0.31785 0.28055,-1.06199 0.28055,-1.653652 v -1.07572 l -1.25677,-0.0203 -1.25677,-0.0203 0.98215,-0.3104 c 0.58569,-0.1851 1.36833,-0.76431 1.93884,-1.43487 l 0.9567,-1.12448 h -1.02945 c -0.79845,0 -1.20009,-0.17811 -1.78991,-0.79375 -0.88804,-0.92691 -0.68236,-1.03307 0.44553,-0.22994 0.72631,0.51717 0.88287,0.53518 1.89293,0.21772 0.60562,-0.19034 1.19938,-0.39708 1.31946,-0.45943 0.33375,-0.17326 -0.91036,-1.38044 -1.42268,-1.38044 -0.24786,0 -0.57335,-0.14882 -0.72332,-0.33073 -0.20839,-0.25276 -0.0467,-0.34282 0.68598,-0.38203 0.52726,-0.0282 1.11451,0.0781 1.305,0.23614 0.48912,0.40593 0.69445,0.0926 0.355,-0.54165 -0.41075,-0.76749 -0.37396,-0.90459 0.50773,-1.89214 0.80786,-0.90487 1.09573,-0.81838 0.38846,0.11671 -0.48143,0.6365 -0.49804,1.31505 -0.0415,1.69396 0.5293,0.43929 1.05215,-1.25409 0.83477,-2.70364 -0.10292,-0.68632 -0.0656,-1.22817 0.0911,-1.32507 0.15426,-0.0953 0.2123,0.0386 0.13869,0.32004 -0.13478,0.51542 0.6956,2.69175 1.02704,2.69175 0.36981,0 0.50181,-1.20953 0.21448,-1.96525 -0.15766,-0.41469 -0.24076,-0.79987 -0.18467,-0.85597 0.2058,-0.2058 0.77889,0.73139 0.94556,1.5463 0.22376,1.09406 0.64968,1.20405 1.47328,0.38045 l 0.66898,-0.66898 v 0.60843 c 0,0.69242 -0.75214,1.48418 -1.4099,1.48418 -0.2432,0 -0.44219,0.17063 -0.44219,0.37917 0,0.5269 2.34772,2.40932 2.63104,2.10958 0.12465,-0.13188 0.61391,-1.43041 1.08724,-2.88562 0.65337,-2.00876 0.86677,-3.14759 0.88626,-4.72968 0.0241,-1.95634 -0.017,-2.11596 -0.67171,-2.60878 -0.38356,-0.28871 -1.21699,-0.58105 -1.85208,-0.64964 -0.97541,-0.10534 -1.35089,0.006 -2.41818,0.71993 -1.52157,1.01716 -2.76244,1.33035 -4.46983,1.12813 -1.60609,-0.19022 -1.80149,-0.87142 -0.24997,-0.87142 0.76287,0 1.44656,-0.27938 2.64958,-1.08273 2.34059,-1.56298 2.41689,-1.82991 0.91679,-3.20735 -1.19562,-1.09785 -2.19556,-2.77488 -2.20749,-3.70223 -0.004,-0.29773 0.4197,0.003 1.24263,0.883 1.78446,1.90774 2.3228,2.12416 5.04862,2.02971 1.26604,-0.0439 2.59955,0.0264 2.96335,0.15627 0.57214,0.20417 0.51083,0.0723 -0.45405,-0.97655 -1.51837,-1.65051 -1.67591,-2.37295 -1.2232,-5.609494 l 0.22205,-1.5875 0.46302,0.654184 c 0.3285,0.464134 0.46302,1.163224 0.46302,2.40639 0,1.96893 0.22347,2.3097 1.99405,3.04077 0.57676,0.23814 1.42766,0.71893 1.8909,1.06842 0.46323,0.3495 0.89434,0.63544 0.95801,0.63544 0.0637,0 0.19596,-0.70877 0.29397,-1.57504 0.14706,-1.29987 0.0837,-1.76029 -0.3627,-2.6353 -0.56664,-1.11069 -0.69906,-2.538421 -0.2947,-3.177298 0.17633,-0.278597 0.313,-0.09799 0.52686,0.696229 0.21652,0.804086 0.48474,1.153588 1.072,1.396839 1.12147,0.46453 1.43631,0.95521 1.59056,2.47895 l 0.13625,1.34592 0.88374,-1.66201 c 1.02622,-1.92999 1.59586,-2.24917 3.40942,-1.91036 0.91558,0.17105 1.48939,0.13685 2.11921,-0.12631 0.97608,-0.407828 1.12144,-0.11646 0.33451,0.67047 -0.36753,0.36753 -0.88194,0.52916 -1.68411,0.52916 -1.63775,0 -2.54922,0.76369 -2.54922,2.13587 0,1.1857 0.0771,1.23443 0.83526,0.52808 0.3017,-0.28108 0.98133,-0.58584 1.51029,-0.67725 1.26606,-0.21878 1.64915,-0.53258 2.6643,-2.18241 0.69609,-1.1313 1.04359,-1.434025 1.9157,-1.66886 1.17715,-0.316972 1.70382,-0.09432 0.8853,0.37425 -0.93636,0.53603 -2.13269,1.97572 -2.49391,3.00123 -0.19424,0.55145 -0.6037,1.2768 -0.90989,1.61188 -0.47441,0.51917 -0.49907,0.64572 -0.16679,0.85585 0.55503,0.35099 0.58852,0.34083 1.8225,-0.55306 0.8132,-0.58908 1.36116,-1.32125 2.02407,-2.70451 0.87271,-1.82103 0.91059,-1.86008 0.9489,-0.97818 0.10031,2.30934 -0.29227,3.46017 -1.67936,4.92297 l -0.78646,0.82939 0.9072,0.69196 c 0.66465,0.50695 1.22241,0.69196 2.08609,0.69196 0.64839,0 1.29199,-0.10001 1.43023,-0.22224 0.13825,-0.12223 0.72761,-0.49057 1.30969,-0.81853 0.99666,-0.56154 0.96313,-0.50381 -0.57531,0.99057 -0.95991,0.93242 -1.968,1.66031 -2.44436,1.76493 -0.4459,0.0979 -0.87712,0.28551 -0.95828,0.41683 -0.26986,0.43663 0.38012,1.24253 1.55966,1.93379 0.64112,0.37572 1.25944,0.89464 1.37404,1.15316 0.14604,0.32942 0.26421,0.009 0.39499,-1.07094 0.16315,-1.34717 0.32385,-1.67283 1.27783,-2.58951 1.30232,-1.25138 1.47711,-0.76326 0.30574,0.85377 -0.77203,1.06575 -0.77826,1.10083 -0.36404,2.04823 0.23179,0.53014 0.48041,1.23355 0.55249,1.56312 0.0721,0.32957 0.24557,0.67 0.38554,0.75651 0.39616,0.24484 1.79899,-1.25208 1.79899,-1.91964 0,-0.32847 0.30812,-0.93127 0.68471,-1.33957 0.53719,-0.58241 0.64698,-0.62834 0.50957,-0.21319 -0.24687,0.74586 -0.24636,0.69096 -0.0168,1.79652 0.16467,0.79291 0.10973,1.11164 -0.26253,1.52298 -0.64428,0.71192 -0.33776,0.9071 0.63478,0.40418 1.12042,-0.57939 1.55943,-0.52564 2.54165,0.31122 0.4697,0.40018 1.08073,0.86943 1.35785,1.04277 0.49056,0.30686 0.4899,0.31554 -0.0253,0.32899 -0.29105,0.008 -0.88636,-0.22274 -1.32292,-0.51187 -0.98791,-0.65426 -1.51417,-0.66575 -2.07566,-0.0453 -0.58692,0.64855 -0.55191,0.83727 0.15743,0.84844 0.32742,0.005 0.88698,0.1709 1.24347,0.36832 0.54658,0.3027 0.8368,0.30168 1.85208,-0.007 1.5045,-0.45669 1.64741,-0.45661 2.27359,0.001 0.47122,0.34456 0.43777,0.37041 -0.44682,0.34534 -1.05765,-0.03 -3.71829,1.10562 -3.58001,1.528 0.16594,0.50688 1.97023,0.44182 3.11733,-0.11239 0.61727,-0.29824 1.16468,-0.49987 1.21646,-0.44809 0.0518,0.0518 -0.24906,0.46157 -0.66855,0.91063 -0.47213,0.50542 -1.23387,0.93512 -1.99944,1.12789 -1.08172,0.27238 -1.21577,0.38186 -1.06951,0.87348 0.25479,0.85642 1.06927,1.57821 2.16527,1.91887 l 0.98936,0.30751 -1.54171,0.0277 c -1.36988,0.0247 -1.6279,-0.0585 -2.3151,-0.74566 -0.42537,-0.42536 -0.7734,-1.02068 -0.7734,-1.32291 0,-1.58546 -2.19206,0.40149 -3.48029,3.15465 -0.44259,0.94588 -0.91745,1.935032 -1.05525,2.198102 -1.05355,2.01135 -1.81703,3.70537 -2.22894,4.94565 -0.26582,0.80036 -0.60872,1.59521 -0.76201,1.76633 -0.4302,0.48022 -7.07486,1.21285 -7.95729,0.87735 -0.50041,-0.19026 -0.82299,-0.18847 -1.05712,0.006 -0.48547,0.40289 -4.97714,0.52332 -9.12368,0.2446 z m 14.33335,-17.115492 c 1.95784,-1.61842 2.20469,-2.34865 1.20961,-3.57827 -0.46288,-0.57198 -0.94082,-0.78972 -2.16521,-0.98643 -0.86416,-0.13883 -1.62166,-0.20198 -1.68331,-0.14032 -0.18742,0.18742 0.45734,3.47032 0.88045,4.48297 0.21824,0.52231 0.50513,0.94966 0.63753,0.94966 0.1324,0 0.63682,-0.32742 1.12093,-0.72761 z m 0.38752,-5.82488 c 0.18967,-0.12246 0.23862,-0.55573 0.13229,-1.17091 -0.13407,-0.77571 -0.41364,-1.14162 -1.35941,-1.77931 l -1.19062,-0.80278 -0.3188,0.72098 c -0.50518,1.14248 -0.4356,2.90684 0.12036,3.05212 0.76359,0.19955 2.29419,0.18779 2.61618,-0.0201 z"
       id="path980" />
  </g>
</svg>
