<?xml version="1.0" encoding="UTF-8" standalone="no"?>
<!-- Created with Inkscape (http://www.inkscape.org/) -->

<svg
   width="32.76152mm"
   height="19.650875mm"
   viewBox="0 0 32.76152 19.650875"
   version="1.1"
   id="svg8"
   xmlns="http://www.w3.org/2000/svg"
   xmlns:svg="http://www.w3.org/2000/svg"
   xmlns:rdf="http://www.w3.org/1999/02/22-rdf-syntax-ns#"
   xmlns:cc="http://creativecommons.org/ns#"
   xmlns:dc="http://purl.org/dc/elements/1.1/">
  <defs
     id="defs2" />
  <metadata
     id="metadata5">
    <rdf:RDF>
      <cc:Work
         rdf:about="">
        <dc:format>image/svg+xml</dc:format>
        <dc:type
           rdf:resource="http://purl.org/dc/dcmitype/StillImage" />
      </cc:Work>
    </rdf:RDF>
  </metadata>
  <g
     id="layer1"
     transform="translate(-29.891443,-41.048606)">
    <path
       style="fill:#000000;stroke:none;stroke-width:0.238125;stroke-miterlimit:4;stroke-dasharray:none;stroke-opacity:1"
       d="m 39.351151,60.634321 c -3.11831,-0.44036 -5.606096,-1.19581 -6.81302,-2.06886 -0.891664,-0.644996 -0.923047,-1.439397 -0.121386,-3.07264 0.439101,-0.894592 0.363136,-1.242048 0.760732,-1.184192 1.355008,0.197173 2.168799,0.23334 2.270916,-0.07258 0.07095,-0.212544 -0.15749,-0.331257 -0.639255,-0.332205 -1.347408,-0.0027 -2.583874,-0.508082 -3.593924,-1.469089 -0.783285,-0.745252 -0.996102,-1.149405 -1.010783,-1.919536 -0.01023,-0.536538 -0.115838,-1.213649 -0.234688,-1.504691 -0.163998,-0.401602 -0.09193,-0.355605 0.423409,-0.811533 0.779365,-0.09101 0.769683,-1.044454 0.953321,-0.860816 0.148511,0.148511 0.579147,0.481724 0.913845,0.481724 0.488936,0 0.608542,-0.144438 0.608542,-0.734879 0,-0.404183 -0.155306,-1.218688 -0.38825,-1.551262 -0.374976,-0.535354 -0.682502,-0.88918 -0.467097,-1.578171 0.150941,-0.4828 0.292345,-0.984618 0.663181,-1.355454 l 0.706883,-0.706882 c 0,0 0.0583,0.727328 0.584306,0.864346 0.324182,0.08445 0.791839,0.299803 0.959241,0.299803 0.167402,0 0.431808,0.238125 0.587569,0.529167 0.374172,0.699146 1.153847,0.717751 0.933109,0.02227 -0.08849,-0.278795 -0.03332,-0.585736 0.122581,-0.682091 0.165592,-0.102342 0.216098,-0.534282 0.121458,-1.038758 -0.159233,-0.848781 -0.145759,-0.863003 0.786931,-0.830614 0.441806,0.01534 1.051203,0.287357 1.143924,0.57536 0.582253,0.208458 0.966441,0.6655 0.673517,1.134546 -0.303853,0.486544 -0.209902,0.81929 0.231327,0.81929 0.121268,0 0.220486,-0.178594 0.220486,-0.396875 0,-0.218282 0.172678,-0.396875 0.383728,-0.396875 0.21105,0 0.478941,-0.168819 0.595313,-0.375154 0.19249,-0.341298 0.65987,0.227437 1.21846,0.586135 0.334664,0.214905 0.837781,0.08299 0.955385,0.392312 0.355922,0.936145 1.490254,1.581634 2.420422,1.377335 0.814416,-0.178876 1.076812,-0.657712 0.360417,-0.657712 -0.751771,0 -0.06172,-1.178621 0.677103,-0.799601 0.456547,-0.489063 1.391378,0.09698 1.206394,0.77081 -0.07272,0.234116 -0.02019,0.60426 0.11675,0.822541 0.216156,0.344562 0.311269,0.331661 0.721564,-0.09787 0.344488,-0.360637 0.382941,-0.52798 0.14186,-0.617361 -0.181901,-0.06744 -0.330729,-0.291289 -0.330729,-0.497443 0,-0.35872 0.300483,-0.482086 0.972236,-0.399158 0.170927,0.0211 0.379405,-0.07268 0.463284,-0.208396 0.08388,-0.135719 0.371173,-0.189579 0.638431,-0.119689 0.267259,0.06989 0.731431,-0.594303 1.639412,-0.315862 0.519857,-0.638944 1.656898,-0.800669 2.10747,-0.257763 0.227568,0.274204 0.237582,0.396875 0.0324,0.396875 -0.163338,0 -0.296979,0.12133 -0.296979,0.269624 0,0.15763 0.283218,0.198541 0.681845,0.09849 0.866907,-0.21758 1.938798,0.332192 1.786406,0.916246 -0.08275,0.317136 0.07692,0.446245 0.587734,0.475241 0.510252,0.02896 0.622012,-0.03952 0.410181,-0.251355 -0.51489,-0.514889 -0.188849,-1.58946 0.731589,-1.618081 0.292163,-0.826476 1.286505,-1.136746 2.050521,-0.522183 0.693448,-0.443959 1.299773,0.119812 1.632227,0.115359 0.384386,-0.05322 0.596103,0.0071 0.699984,0.134178 0.01503,0.638162 -0.162004,1.066295 -0.231735,1.48772 -0.408336,0.691261 -0.416663,0.833214 -0.07199,1.227279 0.710766,0.812613 0.813033,2.802709 0.213656,4.157697 -0.507595,1.147508 -0.683059,1.280903 -3.322531,2.525938 -1.532652,0.722948 -2.786637,1.428578 -2.786637,1.568066 0,0.329754 1.073709,0.635809 2.578669,0.630309 l 1.374784,-0.005 c 0,0 -0.189281,0.952965 -0.138628,1.428769 0.09049,0.849964 0.759654,1.78813 0.779429,2.442974 0.03361,1.112941 -0.02477,1.220341 -0.894609,1.645991 -0.511807,0.25046 -1.761964,0.57745 -2.778125,0.72666 -1.883248,0.27653 -16.279543,0.59139 -17.722561,0.3876 z"
       id="path939" />
  </g>
</svg>
