<?xml version="1.0" encoding="UTF-8" standalone="no"?>
<!-- Created with Inkscape (http://www.inkscape.org/) -->

<svg
   width="40.093021mm"
   height="47.317749mm"
   viewBox="0 0 40.093021 47.317749"
   version="1.1"
   id="svg8"
   inkscape:version="1.1.2 (b8e25be833, 2022-02-05)"
   sodipodi:docname="hydra.svg"
   xmlns:inkscape="http://www.inkscape.org/namespaces/inkscape"
   xmlns:sodipodi="http://sodipodi.sourceforge.net/DTD/sodipodi-0.dtd"
   xmlns="http://www.w3.org/2000/svg"
   xmlns:svg="http://www.w3.org/2000/svg"
   xmlns:rdf="http://www.w3.org/1999/02/22-rdf-syntax-ns#"
   xmlns:cc="http://creativecommons.org/ns#"
   xmlns:dc="http://purl.org/dc/elements/1.1/">
  <defs
     id="defs2" />
  <sodipodi:namedview
     id="base"
     pagecolor="#ffffff"
     bordercolor="#666666"
     borderopacity="1.0"
     inkscape:pageopacity="0.0"
     inkscape:pageshadow="2"
     inkscape:zoom="0.93733313"
     inkscape:cx="116.28737"
     inkscape:cy="104.55194"
     inkscape:document-units="mm"
     inkscape:current-layer="layer1"
     showgrid="false"
     inkscape:snap-others="false"
     inkscape:snap-nodes="false"
     inkscape:snap-global="false"
     inkscape:window-width="1920"
     inkscape:window-height="986"
     inkscape:window-x="-11"
     inkscape:window-y="-11"
     inkscape:window-maximized="1"
     inkscape:pagecheckerboard="0" />
  <metadata
     id="metadata5">
    <rdf:RDF>
      <cc:Work
         rdf:about="">
        <dc:format>image/svg+xml</dc:format>
        <dc:type
           rdf:resource="http://purl.org/dc/dcmitype/StillImage" />
      </cc:Work>
    </rdf:RDF>
  </metadata>
  <g
     inkscape:label="Layer 1"
     inkscape:groupmode="layer"
     id="layer1"
     transform="translate(-29.853486,-115.37127)">
    <path
       style="fill:#000000;stroke-width:1"
       d="m 52.219413,162.4707 c 0,-0.12777 0.250016,-0.39832 0.555588,-0.60121 0.502497,-0.33365 0.527984,-0.47142 0.266711,-1.44171 -0.158885,-0.59005 -0.866831,-2.01615 -1.573217,-3.16911 -0.706385,-1.15296 -1.940995,-3.16785 -2.743579,-4.47754 -0.980578,-1.60014 -1.666547,-2.44056 -2.091227,-2.56206 -0.347591,-0.0994 -1.145402,-0.3148 -1.772912,-0.47857 -1.606683,-0.41931 -3.014539,-1.79556 -3.85582,-3.76927 -1.49319,-3.50312 -1.491231,-3.50062 -2.808461,-3.58623 -1.120227,-0.0728 -1.268258,0.002 -2.503596,1.25677 -0.722134,0.73379 -1.406743,1.33415 -1.521354,1.33415 -0.441207,0 -0.17401,-0.71488 0.63323,-1.6942 0.807536,-0.97968 0.821431,-1.03578 0.343165,-1.3855 -0.274145,-0.20046 -0.890996,-0.50642 -1.370779,-0.67991 -0.479783,-0.17349 -0.872333,-0.41058 -0.872333,-0.52687 0,-0.35822 0.871635,-0.2245 2.063948,0.31662 0.889786,0.40382 1.351325,0.46604 2.116667,0.28535 0.538318,-0.12709 0.828182,-0.24304 0.644142,-0.25766 -0.489757,-0.0389 -1.383037,-1.63109 -1.384184,-2.46718 -7.32e-4,-0.53277 -0.208054,-0.82788 -0.79474,-1.13127 -0.91004,-0.4706 -1.040166,-0.92604 -0.264583,-0.92604 0.352778,0 0.529167,-0.17639 0.529167,-0.52917 0,-0.29104 0.165855,-0.52917 0.368567,-0.52917 0.399471,0 0.689766,0.55427 0.689766,1.31698 0,0.2852 0.527256,0.81828 1.299404,1.31377 0.714671,0.4586 1.378696,1.03656 1.47561,1.28435 0.148308,0.3792 0.237718,0.33425 0.564694,-0.28388 0.367805,-0.69531 0.338547,-0.81531 -0.549569,-2.25417 -0.51593,-0.83588 -0.938055,-1.66625 -0.938055,-1.84528 0,-0.6686 0.482973,-0.28225 1.429758,1.14371 1.070977,1.61301 0.893144,1.57951 3.398888,0.64022 1.908274,-0.71533 1.627205,0.042 -0.33073,0.89111 -1.340211,0.58124 -1.5875,0.7927 -1.5875,1.35751 0,0.52864 0.132415,0.66902 0.631075,0.66902 1.003499,0 3.282774,0.82371 3.770478,1.36261 0.713339,0.78823 0.251079,0.84137 -1.14871,0.13204 -0.713731,-0.36167 -1.729317,-0.73856 -2.256859,-0.83753 -0.942847,-0.17688 -0.964742,-0.16133 -1.286788,0.91356 -0.399784,1.33436 -0.102626,2.07418 1.924824,4.79214 1.334534,1.78905 3.005158,2.99406 3.360058,2.42359 0.09091,-0.14614 0.105766,-2.27216 0.03301,-4.7245 -0.07276,-2.45233 -0.03356,-6.24473 0.08712,-8.42754 0.337278,-6.10083 -0.07,-10.10763 -1.10768,-10.89723 -0.239055,-0.1819 -0.820852,-0.33452 -1.292882,-0.33915 -1.124947,-0.011 -6.172487,2.24161 -6.682389,2.98225 -0.806413,1.17132 -2.26779,2.65095 -3.727997,3.77455 -1.350043,1.03884 -1.519918,1.2812 -1.689194,2.41001 -0.23186,1.54615 -1.148006,4.05395 -1.480986,4.05395 -0.358191,0 -0.30364,-0.45805 0.283594,-2.38125 0.669293,-2.19195 0.669293,-2.46139 0,-2.24896 -0.818601,0.25981 -0.648666,-0.4593 0.226114,-0.95684 0.45553,-0.2591 0.812354,-0.72843 0.905207,-1.19063 0.296435,-1.47558 1.320111,-2.57181 3.430244,-3.67336 1.115585,-0.58238 2.587436,-1.63075 3.272763,-2.33114 2.009224,-2.05338 3.985693,-2.77406 6.056297,-2.2083 l 0.79375,0.21688 -0.635178,-0.67634 c -0.349347,-0.37198 -1.149799,-0.87287 -1.77878,-1.11308 -0.958844,-0.36618 -1.342277,-0.38671 -2.373344,-0.12709 -1.844996,0.46458 -4.293139,1.6466 -6.513456,3.14485 -3.422591,2.30954 -4.311319,3.53636 -3.71201,5.12411 0.166031,0.43986 0.182606,0.8071 0.0404,0.89499 -0.7995,0.49412 -1.223963,-1.29872 -0.639011,-2.69904 0.795526,-1.90441 2.892496,-3.58111 7.155688,-5.72154 3.969521,-1.99299 5.439151,-2.1661 7.354498,-0.86631 l 0.9364,0.63546 -0.909856,-1.19198 c -1.4656,-1.92004 -1.515619,-3.07233 -0.171799,-3.95782 1.058402,-0.69742 4.714781,-0.81621 6.934995,-0.2253 0.945886,0.25175 2.299042,0.44167 3.007014,0.42206 0.883774,-0.0245 1.608378,0.14483 2.311889,0.54023 l 1.024665,0.57589 2.053739,-0.69699 c 2.403655,-0.81575 2.864112,-0.89223 3.835643,-0.63712 0.494258,0.12979 0.778174,0.41933 0.89585,0.91358 0.09475,0.39797 0.294868,0.95609 0.493503,1.41413 0.109145,0.25168 0.180315,0.58488 0.381937,0.72899 0.288945,-0.10539 0.548821,-0.15516 1.105964,-0.29658 1.907268,-0.48412 3.41063,0.17948 3.41063,1.50548 0,0.59349 -0.44192,0.51189 -0.604996,-0.11171 -0.07565,-0.28929 -0.476491,-0.65572 -0.890754,-0.81428 -0.627952,-0.24035 -1.083202,-0.1667 -2.737583,0.44292 -1.306857,0.48156 -2.559659,0.74364 -3.669313,0.7676 l -1.684941,0.0364 -0.341577,0.99358 -0.316627,0.90626 1.756148,1.23951 c 0.979604,0.6337 1.924264,1.32469 2.099246,1.53553 0.450596,0.54293 0.104955,6.26638 -0.378425,6.26638 -0.58537,0 -0.706133,-1.04591 -0.370144,-3.20574 0.375629,-2.41467 0.420785,-2.31768 -1.916589,-4.11625 l -1.538957,-1.1842 -0.672867,1.46973 c -0.546156,1.19297 -0.639096,1.69493 -0.493536,2.6656 0.111694,0.74482 0.07889,1.19586 -0.08699,1.19586 -0.810881,0 -0.765286,-2.38514 0.08032,-4.20165 0.344453,-0.73994 0.717659,-1.58439 0.717659,-1.58439 0,0 -0.603147,-0.69329 -1.365264,-0.6918 -0.498578,-0.10951 -1.369888,0.089 -2.693699,0.6136 -1.076209,0.42651 -2.624122,0.91328 -3.43981,1.08171 -1.768875,0.36525 -2.617974,1.06251 -2.617974,2.14981 0,0.43243 0.231725,1.82678 0.514944,3.09855 0.695994,3.12529 0.728528,4.43143 0.298676,11.99098 -0.295667,5.19971 -0.304687,6.76463 -0.04499,7.80521 0.329797,1.32146 3.113591,6.44563 5.274019,9.70799 l 1.186638,1.79188 0.622194,-0.58452 c 0.410057,-0.38523 0.711386,-0.49533 0.883788,-0.32293 0.380572,0.38057 -1.148651,1.75262 -3.039433,2.72704 -1.611132,0.8303 -2.256253,0.99672 -2.256253,0.58205 z m -12.7,-21.62695 c 0,-0.2354 -0.500159,-0.92001 -1.111464,-1.52135 -0.881026,-0.86667 -1.131345,-1.00023 -1.207355,-0.6442 -0.142738,0.66859 0.394021,1.49861 1.343517,2.07756 1.017415,0.62036 0.975302,0.61656 0.975302,0.088 z m 1.5875,-1.29178 c 0,-0.21829 -0.04679,-0.39688 -0.103984,-0.39688 -0.05719,0 -0.172518,0.17859 -0.25628,0.39688 -0.08376,0.21828 -0.03697,0.39687 0.103984,0.39687 0.140954,0 0.25628,-0.17859 0.25628,-0.39687 z m -5.567308,-11.09099 c 1.35486,-1.39227 1.253983,-1.48964 -0.534707,-0.51611 -1.108649,0.6034 -2.100069,1.83231 -2.100069,2.60312 0,0.29448 1.384345,-0.80206 2.634776,-2.08701 z m 9.068255,-5.10038 c 0.717962,0.0963 0.968298,0.0633 0.718635,-0.0946 -0.576853,-0.36494 -2.800694,-0.29862 -3.76506,0.11229 -0.468268,0.19953 -1.146806,0.68298 -1.507861,1.07434 -0.640969,0.69476 -0.607972,0.68852 1.398032,-0.26412 1.691993,-0.80353 2.248892,-0.9496 3.156254,-0.8279 z m 4.451379,-3.41179 c 0.329904,-0.5338 1.092925,-1.18633 1.81514,-1.5523 1.227334,-0.62194 2.068318,-1.3605 1.825578,-1.60324 -0.273073,-0.27307 -3.038531,-0.65693 -4.732766,-0.65693 -2.079349,0 -3.006113,0.28368 -3.413483,1.04486 -0.342385,0.63975 -0.240312,0.85044 1.844872,3.80802 l 1.455208,2.06404 0.318147,-1.09177 c 0.17498,-0.60047 0.574267,-1.50618 0.887304,-2.01268 z m 2.893363,2.6704 c 0.841148,-0.21796 2.04896,-0.63207 2.684023,-0.92023 1.358522,-0.61644 3.323162,-0.67965 4.049478,-0.13029 0.183075,0.13847 0.50264,0.35066 0.50264,0.35066 0,0 0.317847,-0.5658 0.434953,-1.18298 0.0034,-0.46572 -0.20143,-0.58752 -1.223502,-0.72761 -0.675156,-0.0925 -1.576147,-0.16825 -2.002205,-0.16825 -0.654246,0 -0.748546,0.0823 -0.606701,0.52916 0.196144,0.618 -0.189335,0.70117 -0.654121,0.14114 -0.278604,-0.3357 -0.523849,-0.28503 -1.818333,0.37567 -1.517751,0.77467 -3.494397,2.12903 -3.107244,2.12903 0.116407,0 0.899862,-0.17834 1.741012,-0.3963 z m 1.704446,-2.80837 c 1.310717,-0.47397 1.310831,-1.29325 1.8e-4,-1.29325 -1.342573,0 -1.770237,0.30625 -3.115965,2.23133 l -1.193558,1.7074 1.682865,-1.15214 c 0.925575,-0.63367 2.10749,-1.30568 2.626478,-1.49334 z m -3.703451,0.77761 c 0.450956,-0.77482 0.456789,-0.83501 0.0487,-0.50263 -0.254985,0.20768 -0.652751,0.74346 -0.883924,1.19062 -0.571339,1.10515 0.125829,0.53088 0.835224,-0.68799 z m 13.876659,-1.04143 c 0.428204,-0.14927 0.929456,-0.19481 1.166633,-0.41411 -0.170124,-0.19924 -0.625915,-0.86141 -1.038577,-1.84904 -0.436467,-1.04462 -0.720963,-1.07583 -3.02242,-0.33156 -0.93776,0.30326 -1.863569,0.60091 -2.057353,0.66144 -0.228597,0.0714 0.03452,0.48175 0.749195,1.16841 0.934074,0.89746 1.273238,1.05835 2.23108,1.05835 0.621252,0 1.508403,-0.13207 1.971442,-0.29349 z m -5.326988,-0.93715 c -0.705163,-0.40113 -1.062239,-0.4443 -1.984375,-0.2399 -1.782371,0.39508 -1.35985,0.80585 0.860128,0.83621 0.491753,-0.0128 1.912888,0.37788 2.187737,0.4157 0.11544,0.0159 -0.51716,-0.52793 -1.06349,-1.01201 z m -4.431771,-1.00271 c 0,-0.27926 -0.507765,-0.39658 -0.658792,-0.15222 -0.0914,0.1479 0.01943,0.2689 0.246301,0.2689 0.22687,0 0.412491,-0.0525 0.412491,-0.11668 z m 2.645833,-0.10543 c 0,-0.26403 -1.185302,-0.83622 -1.73224,-0.83622 -0.432404,0 -0.450022,0.0504 -0.223827,0.63982 0.16797,0.43772 1.956067,0.61726 1.956067,0.1964 z"
       id="path972"
       inkscape:connector-curvature="0"
       sodipodi:nodetypes="ccssccccccsscsssccccssssccccssccsscccsscccccccsssccsccscccccccsscccccccccccaccscssccccccscscccscccccssssccccsccscccsssscssccscccccccccccscscscscccccscccsscssccccscccccccssccscscscsssscs" />
  </g>
</svg>
