<?xml version="1.0" encoding="UTF-8" standalone="no"?>
<!-- Created with Inkscape (http://www.inkscape.org/) -->

<svg
   width="111.99236mm"
   height="86.718498mm"
   viewBox="0 0 111.99236 86.718498"
   version="1.1"
   id="svg1218"
   xmlns="http://www.w3.org/2000/svg"
   xmlns:svg="http://www.w3.org/2000/svg"
   xmlns:rdf="http://www.w3.org/1999/02/22-rdf-syntax-ns#"
   xmlns:cc="http://creativecommons.org/ns#"
   xmlns:dc="http://purl.org/dc/elements/1.1/">
  <defs
     id="defs1212" />
  <metadata
     id="metadata1215">
    <rdf:RDF>
      <cc:Work
         rdf:about="">
        <dc:format>image/svg+xml</dc:format>
        <dc:type
           rdf:resource="http://purl.org/dc/dcmitype/StillImage" />
      </cc:Work>
    </rdf:RDF>
  </metadata>
  <g
     id="layer1"
     transform="translate(-5.3889278,-4.5722428)">
    <path
       d="m 83.788727,77.21629 c 0,0 -0.369649,-3.577206 -0.58284,-5.72744 -0.344826,-3.4779 -0.902858,-7.070502 0.247187,-10.501949 0.443922,-1.32455 0.52181,-3.770798 1.874183,-3.624832 0.650601,0.07022 0.570608,1.245416 0.508767,1.896064 -0.157864,1.660932 -0.230429,3.021743 -0.235787,4.535662 -0.0063,1.786194 0.240309,5.353225 0.240309,5.353225 0,0 3.193947,-3.94568 4.403091,-3.989487 0.7215,-0.02614 0.644627,1.483155 0.34217,2.13872 -0.85408,1.851192 -3.492412,5.403013 -3.492412,5.403013 l 1.478351,3.962073 c 3.51927,-1.70269 5.87691,-2.72576 9.17303,-4.88101 0,0 -1.49112,-2.900772 -2.08574,-4.416324 -1.04406,-2.661074 -2.845094,-6.582027 -2.587929,-8.175879 0.201589,-1.249407 1.921151,0.952247 2.666708,1.696654 0.77166,0.770471 1.193744,1.825656 1.760315,2.757365 1.116608,1.836228 3.2288,5.580484 3.2288,5.580484 l 4.18128,-7.73508 c 0,0 -0.72319,-3.752094 0.47072,-3.956935 0.45275,-0.07768 1.37212,2.858737 1.37212,2.858737 0,0 5.425,-6.276356 8.90483,-8.417878 0.56036,-0.344851 1.11168,0.277095 0.7076,0.796367 -2.26278,2.907812 -5.38671,6.181076 -7.54499,9.153232 -1.14565,1.577655 -1.03885,2.294392 -1.5638,3.439068 -0.92045,2.007108 -2.78068,6.012427 -2.78068,6.012427 0,0 4.88025,-2.187058 6.94982,-3.835803 2.07947,-1.656632 4.05117,-6.060162 5.31732,-5.945071 1.29148,0.117394 0.32412,2.602873 -0.25421,3.763579 -1.17654,2.3613 -2.86628,4.523138 -4.93409,6.142022 -2.63558,2.063385 -7.04534,4.180893 -9.10889,4.226397 l -2.669204,0.05886 c 0,0 -6.3407,4.004822 -9.805022,5.162847 -3.778678,1.263105 -11.507538,1.741622 -11.507538,1.741622 l -5.48853,-0.11434 -0.78031,1.38543 c 0,0 4.645854,-0.06338 6.55471,0.24406 0.521604,0.08401 1.004899,1.291739 -0.20014,1.57229 -3.433253,0.799313 -8.31848,1.71524 -8.31848,1.71524 l -2.28688,3.54482 -8.33967,0.25622 c -3.34871,-2.44188 -5.34469,-4.34347 -8.01268,-7.01155 l -7.788499,0.67001 c -3.47,-0.10365 -5.805212,-0.50847 -8.69219,-0.89476 -1.620534,-0.216834 -3.302304,-0.241369 -4.839555,-0.798151 -1.771691,-0.641695 -4.873003,-2.86527 -4.873003,-2.86527 0,0 -4.157378,0.273462 -6.237606,0.232045 -1.182302,-0.02354 -1.370824,0.09735 -3.537097,-0.272891 C 14.149138,80.098398 12.834857,79.404097 11.543711,78.711594 10.538727,78.172574 9.5396703,77.57061 8.7250486,76.772533 7.9076684,75.971753 7.0859097,74.905354 6.721807,73.984837 6.0591916,72.309625 4.4352085,68.271867 6.1515972,68.819045 c 1.3344589,0.425421 2.4192517,4.029519 4.1655098,5.543986 1.608688,1.395158 5.598694,3.076313 5.598694,3.076313 0,0 0.989538,0.198672 0.755474,-0.151923 -0.790696,-1.184352 -2.954962,-3.107196 -3.607698,-4.83879 -0.336793,-0.893451 -0.935299,-2.458218 -0.0708,-2.86359 0.661392,-0.310133 1.124089,0.935305 1.64962,1.44269 1.647568,1.590682 4.701768,5.009603 4.701768,5.009603 l 1.316268,1.19264 2.749661,-0.427319 c 0,0 -3.985342,-6.100203 -5.223267,-9.493185 -1.309775,-3.589912 -2.24022,-11.243141 -2.24022,-11.243141 0,0 -0.351788,-4.614042 0.0292,-6.873245 0.199331,-1.182002 -0.03367,-3.384385 1.16489,-3.402174 1.392199,-0.02066 1.110737,2.564667 1.469773,3.909932 0.505001,1.892182 0.947937,5.79826 0.947937,5.79826 0,0 1.139596,6.92141 2.52277,10.106069 1.702269,3.919353 6.96994,10.75878 6.96994,10.75878 l 1.22955,-5.17506 c 0,0 -0.291547,-3.09052 -0.48513,-4.630271 -0.22205,-1.766171 -0.523109,-3.361042 -0.775547,-5.283611 -0.28966,-2.206055 -1.172038,-5.786252 0.171807,-6.67276 0.675942,-0.445906 1.246928,0.800679 1.583352,1.537258 0.807139,1.767182 1.20398,4.084592 1.665248,6.161512 0.597292,2.689387 1.42374,8.141192 1.42374,8.141192 0,0 1.548265,-3.004144 1.97075,-4.626177 0.392418,-1.5066 -0.25527,-4.590127 0.4983,-4.643945 1.127387,-0.08051 1.757605,1.690672 1.89368,2.81271 0.338429,2.790593 -0.506917,5.711876 -1.60147,8.394162 -0.610581,1.496274 -2.739405,4.084989 -2.739405,4.084989 l -0.171245,2.113709 c 1.3542,0.24703 4.77783,0.94175 5.910436,0.823821 l 8.934064,-0.930229 c -0.4569,-1.22073 -0.92636,-2.36958 -1.32259,-3.57443 -0.78276,-2.02395 -1.399947,-2.929032 -1.399947,-2.929032 l -1.49179,-2.804852 -5.082363,-7.3818 -3.86219,-8.174358 -4.559948,-3.581965 -4.773212,-5.790946 -4.79777,-7.277126 c 0,0 -3.260492,-6.548157 -1.316755,-6.900994 0.298605,-0.0542 0.491751,0.254967 1.428101,1.71764 1.693788,2.645866 4.308854,6.472547 4.308854,6.472547 0,0 1.744405,-6.393198 3.025645,-6.270745 0.511445,0.04888 0.449169,0.251839 0.510502,0.690303 0.26071,1.863778 -0.846523,6.762154 -0.50645,9.088538 2.439325,4.398418 5.069886,6.128047 5.069886,6.128047 0,0 0.143497,-5.741525 0.89696,-8.203913 0.753468,-2.462388 1.351696,-4.125748 2.07508,-6.172231 0.862238,-2.439307 1.977858,-5.11425 3.606022,-7.277102 0.816172,-1.084202 2.292149,-3.746995 3.005635,-2.746059 1.189939,1.669343 -2.318706,7.317469 -3.054097,10.993467 -0.501634,2.507516 -1.389355,4.922314 -2.043083,7.394542 -0.561161,2.122165 -0.184111,4.708441 0.03539,6.549561 2.484082,-0.435885 2.168471,-0.722762 4.674631,-2.135402 1.865097,-2.053703 1.547443,-1.819806 3.006759,-4.348673 0.934809,-1.712968 1.237046,-6.03552 2.46619,-5.929293 1.553236,0.134236 1.137889,4.655471 0.64233,6.917619 -0.490032,2.236919 -1.569397,3.49127 -3.436775,5.948446 -2.663631,3.504919 -5.577596,3.855955 -5.577596,3.855955 l 3.161156,6.38232 4.182015,5.847092 c 0,0 1.649433,-4.342372 2.725724,-7.097464 1.076291,-2.755092 2.000252,-9.008656 3.75156,-9.424537 1.718016,-0.407975 0.734003,3.505253 0.58617,5.264846 -0.410012,4.880213 -4.039328,14.126045 -4.039328,14.126045 0,0 0.431938,1.036618 1.148668,2.199393 1.299516,-1.430621 3.525715,-4.790614 4.88417,-6.521643 1.358455,-1.731029 2.694878,-4.062431 3.501891,-3.28436 1.109163,1.069383 -0.511326,3.205716 -1.992426,5.802091 -1.190001,2.086076 -3.954164,5.515341 -4.620613,6.72926 0.644818,1.767565 1.38021,2.64962 1.38021,2.64962 0,0 3.613228,-3.318212 4.725288,-4.035207 1.11206,-0.716995 1.741238,-0.836907 1.82949,-0.2287 0.164133,1.131162 -5.112522,6.245005 -5.112522,6.245005 0,0 0.965002,1.334306 1.524912,1.935085 1.393468,1.495182 4.53706,4.124439 4.53706,4.124439 0,0 5.218938,-3.804312 5.91118,-6.701399 1.061155,-4.441018 2.28689,-12.807141 2.28689,-12.807141 0,0 -2.024365,-1.998078 -2.88072,-3.127455 -1.358885,-1.792122 -3.01068,-3.804248 -3.54489,-5.740921 -0.135782,-0.49225 0.162288,-1.502451 0.65876,-1.383025 0.93299,0.22443 2.03535,2.22281 3.07958,3.309098 1.105976,1.150521 3.37331,3.397458 3.37331,3.397458 l 0.34306,-2.858737 c 0,0 -2.371482,-3.345275 -3.367627,-5.094017 -2.709293,-4.756187 -6.451293,-14.930626 -6.451293,-14.930626 0,0 -6.026625,-2.825116 -7.0616,-3.78167 -1.467736,-1.356525 -3.590983,-3.797731 -4.265164,-5.291199 -0.793479,-1.75774 -1.611301,-3.572579 -1.82952,-5.488731 -0.181964,-1.597805 -1.021552,-4.171144 0.45739,-4.802669 1.101934,-0.470538 1.574901,3.30172 2.414561,4.926296 0.765916,1.481897 1.449487,3.019348 2.391952,4.395722 0.710292,1.037309 1.462249,2.08448 2.436868,2.878609 1.336404,1.088918 4.540733,2.47532 4.540733,2.47532 0,0 0.574135,-5.20389 0.91478,-7.204014 0.340645,-2.000124 0.781825,-5.008715 0.781825,-5.008715 l -3.869115,-2.652691 -2.40119,-1.943933 c 0,0 -5.300599,-5.141829 -3.60184,-6.2320603 0.962802,-0.6179082 2.923259,2.7213163 4.57373,3.8307143 1.556545,1.046263 4.97398,2.630018 4.97398,2.630018 0,0 -1.955834,-11.7648783 -0.68608,-11.6636193 0.374134,0.02984 0.794918,8.89e-4 1.076196,0.576131 1.493068,3.05348 3.040184,11.5449023 3.040184,11.5449023 5.40142,-2.524395 6.693711,-5.940514 8.13681,-5.57384 1.039798,0.2642 -2.552852,4.889369 -7.364272,9.201103 0,0 -1.001166,4.523232 -1.344268,6.892879 -0.235117,1.623844 -0.22869,4.917017 -0.22869,4.917017 l 0.34305,1.372171 c 0,0 2.841141,-0.42112 5.25979,-1.943887 1.506441,-0.948446 3.378842,-4.260793 4.23074,-3.258999 1.030072,1.211318 -1.712796,4.509572 -3.31597,6.232061 -1.318495,1.416623 -4.91681,3.087432 -4.91681,3.087432 0,0 1.07647,4.124396 1.94387,6.060516 1.593484,3.556809 5.93121,10.076284 5.93121,10.076284 l 7.96168,-7.29004 c 0,0 -1.211597,-2.919224 -1.82954,-4.373717 -1.213268,-2.855749 -3.186074,-5.81098 -3.68738,-8.546878 -0.202249,-1.103781 -0.359183,-3.777332 0.65719,-3.301703 0.902196,0.422198 4.71628,8.217597 4.71628,8.217597 0,0 -3.268524,-11.323338 -4.71628,-17.251173 -0.498127,-2.039579 -1.75055,-6.447281 0.34302,-6.289234 1.405335,0.106091 2.604754,5.633615 3.673826,8.543365 1.205499,3.281071 2.164249,6.650618 3.079793,10.024107 0.452261,1.666439 0.796288,3.360384 1.190724,5.041449 0.355625,1.515655 1.060187,4.54853 1.060187,4.54853 0,0 4.146687,-2.226375 5.170496,-3.405844 0.55758,-2.111927 0.814699,-8.120256 0.815663,-12.364032 5.57e-4,-2.45424 -0.783303,-7.81486 0.547196,-7.342358 2.118666,0.752405 2.011036,5.256795 2.376612,8.021429 0.456014,3.448554 -0.261933,10.432433 -0.261933,10.432433 0,0 6.025235,-4.620094 7.989515,-6.303683 0.98436,-0.843698 4.27813,-1.350656 3.88768,-0.114393 -0.65525,2.074721 -6.40246,6.895695 -10.094908,9.779225 -1.778484,1.388864 -3.903593,2.27596 -5.748175,3.575755 -1.425403,1.004418 -4.096446,3.25343 -4.096446,3.25343 0,0 4.606018,1.318868 6.974975,1.372194 2.370354,0.05336 7.441754,-0.358223 7.441754,-0.358223 0,0 0.69367,-7.112302 1.16164,-8.120227 0.44167,-0.951296 1.22807,-1.604464 1.70329,-0.669475 0.37815,0.744 0.50024,8.054101 0.50024,8.054101 0,0 4.24256,-3.150622 7.57883,-8.160045 0.80705,-1.211797 1.5084,-0.533023 1.54409,-0.01952 0.20398,2.934889 -3.665,6.365407 -6.58906,9.596354 -1.05496,1.165688 -1.88617,1.522147 -2.97269,2.032293 -1.40108,0.657832 -2.93002,1.075343 -4.46485,1.2755 -3.501436,0.456623 -7.092141,0.273036 -10.591359,-0.20028 -1.832166,-0.24783 -5.723811,-1.663569 -5.723811,-1.663569 l -6.167949,6.237561 c 0,0 -0.790126,2.237249 -1.071879,3.387638 -1.080596,4.412038 -2.358421,13.421689 -2.358421,13.421689 l -0.09886,1.997824 8.011271,0.596507 1.64485,-0.17496"
       style="fill:#0b0808;fill-opacity:1;stroke:none;stroke-width:0.264583px;stroke-linecap:butt;stroke-linejoin:miter;stroke-opacity:1"
       id="path1864" />
  </g>
</svg>
