<?xml version="1.0" encoding="UTF-8" standalone="no"?>
<!-- Created with Inkscape (http://www.inkscape.org/) -->

<svg
   width="88.325569mm"
   height="68.574982mm"
   viewBox="0 0 88.325569 68.574982"
   version="1.1"
   id="svg1218"
   xmlns="http://www.w3.org/2000/svg"
   xmlns:svg="http://www.w3.org/2000/svg"
   xmlns:rdf="http://www.w3.org/1999/02/22-rdf-syntax-ns#"
   xmlns:cc="http://creativecommons.org/ns#"
   xmlns:dc="http://purl.org/dc/elements/1.1/">
  <defs
     id="defs1212" />
  <metadata
     id="metadata1215">
    <rdf:RDF>
      <cc:Work
         rdf:about="">
        <dc:format>image/svg+xml</dc:format>
        <dc:type
           rdf:resource="http://purl.org/dc/dcmitype/StillImage" />
      </cc:Work>
    </rdf:RDF>
  </metadata>
  <g
     id="layer1"
     transform="translate(-114.08754,-45.797502)">
    <path
       id="path984"
       style="fill:#0b0808;fill-opacity:1;stroke:none;stroke-width:0.264583px;stroke-linecap:butt;stroke-linejoin:miter;stroke-opacity:1"
       d="m 176.09957,103.66627 -1.48365,-4.906706 0.1033,-6.68617 2.21944,-4.53114 0.66303,1.40162 -0.44716,3.68448 0.14395,4.23324 3.52797,-3.15482 0.27058,1.69127 -2.53131,4.18044 0.89254,3.225306 c 2.78298,-1.34646 4.64736,-2.15549 7.25388,-3.859816 l -1.64937,-3.49236 -2.6456,-6.46534 2.98441,0.3278 1.25377,2.82568 2.28467,4.52093 3.17614,-6.18194 0.63293,-2.8032 1.08505,2.26064 7.04179,-6.65672 1.53718,0.27129 -5.08659,7.07529 -2.73565,3.72976 -2.62255,4.95005 5.56098,-3.71762 4.20484,-4.70126 0.12485,3.07393 c 0,0 -3.68516,5.34582 -4.22767,5.34582 -0.54254,0 -4.41941,2.881846 -5.05238,2.429716 -0.63293,-0.45212 -4.26153,0.37241 -4.26153,0.37241 l -7.46035,4.40857 -9.39326,1.05137 -4.34023,-0.0904 -0.61706,1.09558 5.18335,0.19299 -0.15826,1.24334 -6.57811,1.35638 -1.80843,2.80319 -6.59487,0.20261 c -2.6481,-1.93099 -4.22649,-3.43474 -6.33629,-5.54461 l -6.15901,0.52983 c -2.74402,-0.082 -4.59004,-0.51284 -6.87364,-0.70756 -0.76563,-0.0502 -4.09356,-2.0629 -4.66776,-2.10059 -0.57421,-0.0377 -3.91143,-1.18811 -3.91143,-1.18811 l -0.62446,0.72794 -5.76198,0.90328 -3.20895,-1.50758 -2.96632,-2.86986 -1.95281,-1.7436 0.19428,-4.269366 3.29402,4.384086 4.88821,3.49267 -2.71635,-5.006536 -0.056,-2.26448 1.30449,1.14085 4.63979,5.344076 v 0 l 2.55425,-1.81873 -4.39117,-6.465676 -1.77152,-8.89089 0.0231,-5.43524 0.92118,-2.69038 1.57704,2.76931 0.33484,4.90776 1.99496,7.99171 5.51171,8.507856 0.97231,-4.092346 -0.70623,-2.69374 -0.82068,-3.60212 0.66585,-6.82058 1.62077,1.0313 0.94817,5.05676 1.12587,6.43791 1.55843,-3.6583 0.39405,-3.67235 1.49749,2.22424 c 0.11653,2.34187 -1.38293,5.61367 -1.26642,6.63796 l -2.32757,3.207296 -0.61932,1.6254 c 1.07088,0.19535 3.01462,0.64316 3.91346,0.69755 l 8.47052,-0.71257 c -0.36131,-0.96533 -0.73255,-1.87382 -1.04588,-2.8266 -0.619,-1.600496 -0.97671,-2.772446 -0.97671,-2.772446 l -0.78863,-1.7618 -3.75835,-6.16328 -3.83625,-6.13827 -3.54075,-2.4415 -3.83975,-4.970432 -3.794,-5.754626 -0.84574,-5.587539 4.34116,6.60701 2.55393,-4.866626 0.49365,7.640769 c 0.0344,1.781233 2.90759,3.14471 3.48778,5.302174 l 1.88245,-6.813383 1.64094,-4.880895 2.13466,-5.754608 1.79023,-2.301887 -1.11163,8.823796 -1.38521,6.03182 -1.50594,3.850703 3.0975,-0.536497 2.97681,-3.577114 c 0.40284,-0.309858 1.95022,-4.688783 1.95022,-4.688783 l 0.50795,5.470335 c 0,0 -0.32711,2.554057 -0.96649,3.321358 -0.63938,0.767265 -5.56281,5.583935 -5.56281,5.583935 l 1.70515,3.63419 3.50259,4.88448 2.93755,-7.30711 2.18457,-5.75821 0.46353,4.16335 -1.9559,9.60644 0.45212,2.26064 3.40282,-5.31263 2.17012,-1.53725 -0.71249,4.20505 -4.56635,6.10349 1.09145,2.095266 4.06255,-3.451666 1.44673,-0.18085 -4.49912,5.525006 1.6621,0.94366 3.58783,3.26154 4.67446,-5.29935 1.80843,-10.127666 -2.27802,-2.47314 -2.80324,-4.53982 0.52093,-1.09368 2.43528,2.61678 2.66756,2.68665 0.27128,-2.26064 -2.89349,-3.79783 -4.87114,-12.037308 -5.58419,-2.99048 -3.37282,-4.18419 -1.44675,-4.340394 0.3617,-3.797869 2.17009,3.797869 1.98927,3.345711 1.82927,2.406705 3.33004,2.055203 0.72339,-5.696811 0.81378,-3.797868 -3.25516,-2.260641 -1.89882,-1.537229 -2.84827,-4.928206 3.61683,3.029263 3.93334,2.079773 -0.54254,-9.22339 3.25516,9.585105 c 4.27135,-1.996248 6.14768,-4.602832 6.43445,-4.407697 0.34931,0.237702 -1.72546,3.801255 -5.53025,7.2109 l -1.35631,5.515946 -0.18085,3.888293 0.27128,1.085089 4.15935,-1.537193 3.3456,-2.57716 -2.62221,4.928207 -3.88813,2.441488 1.53718,4.792553 4.69029,7.968151 6.29597,-5.764837 -1.44677,-3.458661 -2.91592,-6.758725 0.51969,-2.61093 3.72956,6.498335 -3.72956,-13.641932 0.27126,-4.973419 4.05734,8.691546 c 1.37387,3.591852 0.95701,5.093808 1.55982,7.143435 l 0.75726,2.972807 0.74621,3.458643 3.62788,-4.306283 1.24413,-7.979923 0.29446,-5.990554 1.97714,8.624335 -0.35098,6.521692 6.36406,-5.537873 3.07431,-0.09046 c 0,0 -8.08206,9.154929 -8.44374,8.793215 -0.36168,-0.361697 -3.25516,1.537246 -3.25516,1.537246 l -4.06894,2.803183 5.51569,1.08511 5.56221,-0.83631 0.50383,-5.038761 2.0843,-1.358952 0.39559,6.092533 6.26972,-6.360654 -0.29979,3.440988 -2.95231,3.394836 c 0,0 -4.11428,3.35663 -4.74721,3.26618 -0.63295,-0.0904 -2.14816,0.27128 -2.14816,0.27128 l -8.37546,-0.15838 -4.24978,-1.08509 -5.15402,4.70213 -1.44674,2.07977 -1.26589,11.212756 -0.72337,1.7181 7.40401,0.75709 1.30072,-0.13836" />
  </g>
</svg>
