<?xml version="1.0" encoding="UTF-8" standalone="no"?>
<!-- Created with Inkscape (http://www.inkscape.org/) -->

<svg
   width="75.29985mm"
   height="63.53978mm"
   viewBox="0 0 75.29985 63.53978"
   version="1.1"
   id="svg1218"
   xmlns="http://www.w3.org/2000/svg"
   xmlns:svg="http://www.w3.org/2000/svg"
   xmlns:rdf="http://www.w3.org/1999/02/22-rdf-syntax-ns#"
   xmlns:cc="http://creativecommons.org/ns#"
   xmlns:dc="http://purl.org/dc/elements/1.1/">
  <defs
     id="defs1212" />
  <metadata
     id="metadata1215">
    <rdf:RDF>
      <cc:Work
         rdf:about="">
        <dc:format>image/svg+xml</dc:format>
        <dc:type
           rdf:resource="http://purl.org/dc/dcmitype/StillImage" />
      </cc:Work>
    </rdf:RDF>
  </metadata>
  <g
     id="layer1"
     transform="translate(-22.597094,-129.56105)">
    <path
       id="path818"
       d="m 63.744235,129.56266 c -1.730855,0.0497 -2.244678,1.57861 -2.712908,2.78779 -1.089911,2.81472 0.251703,7.44481 0.297734,9.05037 0.04606,1.6056 0.07031,2.33623 1.237358,4.71308 1.167076,2.37691 -0.698061,6.31371 -0.526894,8.45134 0.171212,2.13762 -1.452985,2.98761 -1.452985,2.98761 l -1.052404,-9.87905 c 0,0 -0.06273,-3.56945 -0.153381,-5.35183 -0.08396,-1.65037 0.431645,-3.49421 -0.361318,-4.94404 -0.516132,-0.94375 -1.616183,-2.40635 -2.582992,-1.93476 -3.465868,1.69047 -4.542476,1.18444 -5.738884,2.9768 -0.89752,1.34457 -0.679076,3.23791 -0.410952,4.83217 0.287895,1.71212 1.103978,3.0745 1.18232,4.68239 0.09322,1.91316 -1.205716,3.71432 -0.858441,5.68205 0.228653,1.29566 1.528717,3.97921 2.009211,5.11408 0.489641,1.15653 2.10259,1.15588 2.470652,2.8284 0.72931,3.31377 1.348797,12.31544 1.348797,12.31544 0,0 -1.481648,-1.73205 -1.946944,-2.75621 -1.094207,-2.40859 -1.029631,-2.11217 -2.102567,-5.92654 -0.399819,-1.42151 -2.400853,-1.77786 -2.778316,-3.20551 -0.961403,-3.63588 -1.881096,-11.97078 -1.881096,-11.97078 0,0 0.474466,-2.27867 0.72312,-4.32831 0.213871,-1.76265 0.600272,-2.02512 -0.148855,-4.98643 -0.265538,-1.04954 -0.160796,-3.42617 -2.099864,-3.37648 -1.612072,0.0414 -4.220585,-0.20741 -5.448381,1.45524 -0.335265,0.45396 -2.443028,2.43144 -2.906431,2.75352 -0.326927,0.22724 -0.864123,0.012 -1.489961,-0.0491 -0.449592,-0.0534 -0.946461,-0.61392 -2.749008,1.0849 -0.667873,0.67215 -1.856083,1.77104 -1.554931,2.37954 0.340993,0.68907 0.857748,2.87534 1.79086,3.41255 0.839432,0.48328 1.829361,1.64201 2.815316,1.85357 1.304661,0.27991 2.5938,1.85401 2.5938,1.85401 l 3.202802,6.75835 c 0,0 0.666604,1.63852 0.810632,4.87007 0.08772,1.96965 0.506362,4.72843 1.909505,6.44709 1.794948,2.19853 3.279736,4.36438 3.532085,5.02389 -1.195368,1.03181 -1.487721,1.37548 -2.924907,1.58831 l -2.542389,-5.11815 -1.74305,-3.29752 -1.01769,-6.31765 c 0,0 -0.602973,-3.69792 -4.254304,-9.27638 -0.541561,-0.82744 -2.831992,0.88459 -2.831992,0.88459 0,0 -2.719329,0.0374 -3.60022,0.90671 -2.552897,2.51927 0.184055,5.37214 0.184055,5.37214 2.077206,2.54324 1.210381,2.40609 2.97498,5.06313 0.698015,1.05103 2.171139,2.71018 2.171139,2.71018 0,0 1.690807,2.03428 2.173842,3.4189 1.770743,5.07558 1.69344,7.55769 1.69344,7.55769 0,0 -1.892022,0.27329 -2.642996,-0.1917 -1.734643,-1.07402 -2.234122,-3.4282 -3.117992,-5.26703 -1.456149,-3.02933 -1.231793,-5.59548 -3.017848,-8.44276 -0.350047,-0.55803 -1.288701,-2.20085 -1.909043,-2.4224 -0.866132,-0.30938 -2.108317,-0.32469 -2.737713,0.346 -0.827746,0.88212 -0.601749,1.94433 -1.159339,3.01784 -0.443979,0.85475 -0.99614,1.50348 -1.322166,2.40978 -1.066678,2.96544 1.85301,2.30689 2.303317,3.6832 0.256738,0.78465 0.18223,2.47021 0.18223,2.47021 0,0 -2.002998,0.24131 -2.899641,2.96373 -0.527449,1.60141 1.832756,2.32116 3.189706,3.32189 1.124695,0.82943 3.889361,1.56397 3.889361,1.56397 1.066123,-0.30852 4.529936,0.83361 4.529936,0.83361 0,0 6.354862,0.46298 8.637185,2.29655 2.317616,1.86192 2.474024,3.58276 4.204695,4.83398 1.400949,1.01283 3.110533,1.56811 4.783,2.00558 2.720091,0.7115 5.568689,0.88581 8.379155,0.96489 3.002581,0.0845 6.071702,0.15975 8.99624,-0.52553 2.144048,-0.50241 4.448844,-1.10476 6.07946,-2.5848 1.18521,-1.07575 1.26796,-2.99087 2.29699,-4.21686 0.63122,-0.75206 1.41338,-0.79996 2.30332,-1.21482 1.25471,-0.58489 2.71284,-1.17451 4.07071,-1.44395 2.688706,-0.53348 3.046996,-1.68469 8.071946,-1.57163 1.8662,0.042 5.05716,-3.76818 3.32776,-4.47083 -1.23429,-0.50152 -1.78021,-2.73915 -2.69351,-2.38767 -4.98486,1.9184 -7.50674,3.03768 -7.50674,3.03768 l -1.364566,-0.91211 5.371676,-3.79328 c 0,0 4.97001,-2.05505 7.68492,-2.85455 0.93353,-0.27487 1.06869,-1.80676 0.92339,-2.76885 -0.28602,-1.89426 -1.60303,-3.8796 -3.34716,-4.67202 -0.60144,-0.27326 -1.66183,-0.50884 -1.66183,-0.50884 0,0 -0.59908,-1.21355 -1.34518,-1.30413 -0.95696,-0.11622 -1.87428,1.10375 -2.24015,1.47419 -0.64551,0.65364 -1.27186,2.93571 -1.25269,3.60473 0.0192,0.669 -3.752236,4.33143 -3.752236,4.33143 -0.94812,0.91776 -1.87532,1.78684 -3.00928,2.36286 0,0 4.019716,-6.87653 5.953586,-10.35766 1.39723,-2.51521 3.35154,-6.86626 4.08108,-7.60596 0.70855,-0.71844 1.8644,-3.01046 1.90634,-4.70092 0.0358,-1.444 -0.26459,-3.23476 -1.42725,-4.09192 -0.5611,-0.41363 -0.98813,0.0284 -2.08996,-0.074 -1.10185,-0.10229 -3.25368,-2.00133 -4.994996,-1.73132 -1.14996,0.17838 -2.76432,0.92538 -2.79725,2.0886 -0.0769,2.70094 1.8831,6.51651 0.39199,8.69852 -3.67609,5.37946 -5.52169,13.80518 -5.93375,15.50112 l -4.193864,5.5476 1.747114,-7.33849 1.59463,-5.27783 c 0,0 2.55722,-6.63498 2.99258,-6.78136 0.43539,-0.14639 2.2141,-1.34656 2.5663,-2.48375 0.44213,-1.42762 0.17232,-3.3475 -0.89542,-4.39325 -0.61505,-0.60235 -1.40213,-0.3066 -1.99702,-0.92881 -0.71323,-0.74596 -0.27597,-1.83025 -0.96129,-2.60193 -0.53165,-0.5987 -1.52481,-0.63076 -2.32496,-0.60267 -0.61205,0.0217 -1.315743,0.1455 -1.741707,0.5855 -1.373533,1.41862 -1.323484,3.65348 -1.705149,5.67302 -0.381666,2.01958 -0.384415,5.76907 -1.488622,9.41625 -1.104209,3.64719 -0.709493,5.91199 -0.992862,7.52701 -0.172329,0.98216 -1.304754,4.3886 -2.531169,6.4507 -0.790228,1.3287 -1.07624,-1.1555 -1.07624,-1.1555 0,0 -0.441616,-6.08924 0.45468,-11.76621 0.39162,-2.48032 2.200079,-4.53081 2.988538,-6.91487 0.985678,-2.98035 0.891885,-6.29385 2.154879,-9.16769 0.930386,-2.11693 3.901552,-5.73572 3.901552,-5.73572 0,0 2.70903,-2.18287 2.03402,-4.02831 -0.42324,-1.15693 -1.76106,-3.17702 -2.940728,-3.53207 -0.77608,-0.23341 -1.460676,-0.10976 -2.093536,-0.25353 -0.875671,-0.1989 -1.809036,-0.15821 -2.654266,-0.46145 -1.010068,-0.36239 -2.324591,-0.79579 -2.798617,-1.5906 -0.406033,-0.68081 -1.642329,-1.00603 -2.623133,-0.97796 z"
       style="fill:#0b0808;fill-opacity:1;stroke:none;stroke-width:0.264583px;stroke-linecap:butt;stroke-linejoin:miter;stroke-opacity:1" />
  </g>
</svg>
