<?xml version="1.0" encoding="UTF-8" standalone="no"?>
<!-- Created with Inkscape (http://www.inkscape.org/) -->

<svg
   width="60.302109mm"
   height="64.280518mm"
   viewBox="0 0 60.302109 64.280518"
   version="1.1"
   id="svg1218"
   xmlns="http://www.w3.org/2000/svg"
   xmlns:svg="http://www.w3.org/2000/svg"
   xmlns:rdf="http://www.w3.org/1999/02/22-rdf-syntax-ns#"
   xmlns:cc="http://creativecommons.org/ns#"
   xmlns:dc="http://purl.org/dc/elements/1.1/">
  <defs
     id="defs1212" />
  <metadata
     id="metadata1215">
    <rdf:RDF>
      <cc:Work
         rdf:about="">
        <dc:format>image/svg+xml</dc:format>
        <dc:type
           rdf:resource="http://purl.org/dc/dcmitype/StillImage" />
      </cc:Work>
    </rdf:RDF>
  </metadata>
  <g
     id="layer1"
     transform="translate(-121.7956,-218.87935)">
    <path
       style="fill:#0b0808;fill-opacity:1;stroke:none;stroke-width:0.264583px;stroke-linecap:butt;stroke-linejoin:miter;stroke-opacity:1"
       d="m 146.23804,282.96791 c -0.53904,-0.43273 -4.87327,-6.12416 -6.14074,-8.84808 -0.50586,-1.08719 -0.62009,-1.35107 -0.13678,-2.14872 0.28856,-0.47626 0.4064,-0.78086 0.9565,-0.6948 0.82435,0.12899 6.83365,5.65457 6.83365,5.65457 0,0 0.24181,-5.24883 -0.29266,-5.81977 -0.53452,-0.57093 -7.39439,-5.05473 -11.07073,-8.24946 -2.48437,-2.15893 -4.66722,-4.66792 -6.67658,-7.27486 -2.97331,-3.85752 -8.28588,-10.86137 -7.89463,-12.29506 0.23307,-0.85405 1.09832,-2.26586 1.72621,-2.01825 1.46581,0.57806 3.57993,2.81461 5.39492,4.18928 2.00739,1.5204 3.99695,3.41113 5.92031,5.03658 1.94384,1.6428 3.7179,3.09813 5.65305,4.75113 1.88602,1.61101 6.56253,4.43522 6.56253,4.43522 0,0 -1.40983,-7.09295 -1.93202,-10.64634 -0.23262,-1.58282 -0.45128,-3.17171 -0.81263,-4.73017 -0.99739,-4.30183 -2.68745,-8.42065 -3.73138,-12.71143 -0.78233,-3.21548 -2.28513,-8.09617 -1.89249,-9.74583 0.28413,-1.19382 0.9462,-3.01212 2.17253,-2.97191 1.07227,0.0351 4.48537,5.8606 5.60623,8.27715 1.48004,3.19091 3.64885,6.96078 3.64885,6.96078 0,0 3.25292,-1.6181 3.71087,-1.53099 0.90539,0.17225 1.90635,0.3263 1.61125,1.1995 -0.29066,0.86004 -1.17425,2.10732 -2.00949,2.98569 -0.47211,0.49647 -1.45525,1.7023 -1.45525,1.7023 l 0.33723,2.36282 c 0,0 2.50835,-1.12692 2.94973,-1.1144 0.86052,0.0245 0.8409,0.49212 0.50264,1.28387 -0.28847,0.67524 -2.73247,3.1743 -2.73247,3.1743 0,0 0.75499,5.19879 1.06458,5.81059 0.54616,1.07939 0.73351,1.51402 1.32878,1.32334 1.87327,-0.60004 4.2614,-1.73792 6.18397,-2.97825 0.98727,-0.63693 2.10606,-1.08338 3.24048,-0.77781 1.43767,0.38724 1.07646,1.47678 0.49032,2.84565 -0.84231,1.96721 -3.15687,3.29437 -3.15687,3.29437 0,0 -3.55399,2.70083 -5.44259,3.88446 -0.76915,0.48204 -0.78175,1.76427 -0.78175,1.76427 0,0 0.48365,2.69335 0.85504,3.95047 0.14599,0.49414 0.31951,0.90477 0.31951,0.90477 0,0 4.2999,-2.38676 5.89021,-4.19938 1.79424,-2.04503 3.17267,-4.56645 3.83329,-7.20571 0.71659,-2.86267 1.59319,-6.41751 1.82736,-9.35922 0.14742,-1.85197 0.0749,-3.68728 0.18874,-5.52727 0.0884,-1.42825 -0.36795,-3.02982 0.38375,-4.27579 0.38755,-0.64237 1.11543,-0.30179 2.28156,0.0207 1.16615,0.32242 1.73905,2.44467 1.87578,4.00923 l 0.43494,4.97764 0.32909,5.64501 c 0.20017,3.43377 -1.88433,8.80315 -1.88433,8.80315 0,0 3.47464,-1.29905 5.07617,-2.21825 1.49045,-0.85544 2.9398,-2.1863 3.65242,-2.15543 0.71618,0.0311 0.98755,0.77384 1.05761,1.48734 0.0895,0.9111 -1.87252,3.298 -2.64794,4.02665 -0.93019,0.87408 -2.36791,2.31876 -3.53906,2.82626 -2.02748,0.87858 -6.04077,2.4066 -6.04077,2.4066 l -5.35065,6.27134 c 0,0 -0.85333,1.77643 -0.91994,2.73646 -0.0294,0.42388 0.23544,1.25276 0.23544,1.25276 0,0 5.18964,0.30774 7.62198,-0.44087 3.09086,-0.95129 7.01975,-4.91759 8.32469,-4.98287 0.5387,-0.027 0.6355,1.01542 0.50266,1.53824 -0.52248,2.05649 -4.10901,5.75928 -5.33497,6.60294 -0.91798,0.63173 -3.6406,2.08182 -5.62222,2.72007 -1.18081,0.38034 -4.57683,-0.17147 -6.48098,0.96752 -1.24738,0.74613 -2.36453,3.02986 -2.36453,3.02986 z"
       id="path832" />
  </g>
</svg>
