<?xml version="1.0" encoding="UTF-8" standalone="no"?>
<!-- Created with Inkscape (http://www.inkscape.org/) -->

<svg
   width="61.583462mm"
   height="68.041939mm"
   viewBox="0 0 61.583462 68.041939"
   version="1.1"
   id="svg1218"
   xmlns="http://www.w3.org/2000/svg"
   xmlns:svg="http://www.w3.org/2000/svg"
   xmlns:rdf="http://www.w3.org/1999/02/22-rdf-syntax-ns#"
   xmlns:cc="http://creativecommons.org/ns#"
   xmlns:dc="http://purl.org/dc/elements/1.1/">
  <defs
     id="defs1212" />
  <metadata
     id="metadata1215">
    <rdf:RDF>
      <cc:Work
         rdf:about="">
        <dc:format>image/svg+xml</dc:format>
        <dc:type
           rdf:resource="http://purl.org/dc/dcmitype/StillImage" />
      </cc:Work>
    </rdf:RDF>
  </metadata>
  <g
     id="layer1"
     transform="translate(-29.683586,-214.89352)">
    <path
       id="path986"
       d="m 48.199896,278.73854 c -1.274486,-1.71261 -3.108624,-7.49901 -3.547075,-10.50035 -0.175011,-1.19797 -0.164098,-2.05995 0.534098,-2.69167 0.416858,-0.3772 0.809657,-0.01 1.246348,0.34418 0.560916,0.45472 1.814394,2.85008 2.919237,4.15358 1.725728,2.03589 2.165589,2.7021 2.165589,2.7021 0,0 0.849529,-4.23327 0.49757,-4.9401 -0.351928,-0.70686 -2.452237,-3.37467 -4.573698,-6.67813 -0.421904,-0.657 -0.663751,-1.50187 -0.913813,-1.52163 -1.628996,-0.12883 -9.870474,-3.40542 -13.783649,-6.68636 -1.329849,-1.11492 -2.982815,-3.42762 -3.054404,-4.21596 -0.07658,-0.84246 0.533131,-1.9301 1.253185,-1.63409 1.12541,0.46267 2.746219,2.30599 4.319734,3.13719 2.289344,1.20933 6.401471,2.68036 7.312643,2.61848 0,0 -2.151945,-4.58487 -2.446281,-5.3523 -1.760849,-4.59123 -4.874812,-12.9024 -4.081761,-14.17597 0.472427,-0.75869 1.71769,-1.87396 2.25352,-1.45285 1.250807,0.98311 2.649223,3.75796 4.007503,5.61261 0.823388,1.12431 1.961413,3.06151 2.732665,4.29436 0.635849,1.01655 3.847836,-2.86767 4.989265,-2.73639 0.962605,0.11075 1.034985,0.73831 0.802234,1.56921 -0.596592,2.12978 -3.014795,5.51987 -2.466848,6.34945 0.585972,0.88713 1.70211,2.39964 2.308267,3.33818 1.35866,2.10383 4.72075,5.97269 4.72075,5.97269 0,0 1.032373,-7.05288 1.554795,-10.64094 0.232664,-1.5983 0.480554,-3.19836 0.581659,-4.81033 0.279078,-4.44945 -0.16483,-8.92224 0.06605,-13.3745 0.173046,-3.33642 0.130562,-8.49199 0.987368,-9.97402 0.620152,-1.07253 1.34983,-2.89024 2.524501,-2.49661 0.317718,0.10643 1.128373,1.06382 1.505035,2.06842 0.841226,2.24348 1.695128,5.97131 1.961444,7.80975 0.509014,3.5145 1.516977,7.78824 1.516977,7.78824 0,0 3.614702,-0.62417 4.032528,-0.40744 0.826059,0.42847 1.749817,0.86704 1.211816,1.62629 -0.529816,0.74781 -1.745299,1.69861 -2.807306,2.30663 -0.600229,0.34368 -1.900035,1.22562 -1.900035,1.22562 l -0.356975,2.383 c 0,0 2.752382,-0.36447 3.175723,-0.22467 0.825442,0.27251 0.671203,0.71923 0.115041,1.38717 -0.474335,0.5697 -3.561276,2.27999 -3.561276,2.27999 0,0 -0.301406,2.21946 -0.370266,3.33547 -0.03649,0.592 -0.437014,2.38629 0.193993,2.374 1.985679,-0.0385 4.920142,-1.35051 7.138688,-1.99413 1.13923,-0.33048 2.356795,-0.78761 3.365874,-0.16391 1.278798,0.79043 0.614313,1.7398 -0.348526,2.89431 -1.383687,1.65911 -3.354578,2.7628 -5.221253,3.85718 -1.731069,1.01488 -3.316877,1.87963 -5.486134,2.47823 -0.883416,0.24374 -0.826556,2.73543 -0.826556,2.73543 0,0 -0.310941,2.74501 -0.315196,4.06838 -0.0029,0.5202 0.04747,0.96756 0.04747,0.96756 0,0 4.849785,-1.06479 6.912392,-2.35804 2.327015,-1.45906 4.389621,-3.49919 5.79188,-5.8609 1.520967,-2.56169 3.396915,-5.74651 4.474062,-8.52418 0.678185,-1.74868 1.138729,-3.54485 1.780949,-5.29163 0.498539,-1.35591 0.520185,-3.03704 1.607627,-4.02475 0.302353,-0.2746 1.194009,-0.93582 1.695575,-0.70977 0.428557,0.19315 1.12153,1.0562 1.238597,1.68744 0.234987,1.26739 0.242406,2.56991 -0.07773,4.12275 l -1.01858,4.94048 -1.31398,5.5553 c -0.799295,3.37919 -4.368435,7.96978 -4.368435,7.96978 0,0 3.736905,-0.25143 5.551997,-0.6773 1.689199,-0.39626 3.476136,-1.26433 4.156579,-1.02833 0.683792,0.23723 0.731552,1.03414 0.593017,1.74455 -0.176925,0.90716 -2.765119,2.64834 -3.725937,3.12885 -1.152602,0.57642 -2.961184,1.55791 -4.240899,1.71002 -2.215404,0.26335 -6.539598,0.58042 -6.539598,0.58042 l -6.989613,4.51825 c 0,0 -1.33915,1.47141 -1.681191,2.38075 -0.150981,0.40149 -0.134463,1.27985 -0.134463,1.27985 0,0 5.888172,0.28528 8.723498,-0.37177 3.235781,-0.74981 7.846069,-4.31197 9.127303,-3.99768 0.528901,0.12976 0.604916,1.86204 0.325252,2.32933 -1.100084,1.838 -3.939049,4.5025 -6.497467,5.9396 -2.158781,1.21264 -5.031191,2.03032 -7.132732,2.0745 -3.123498,0.86565 -5.041284,-1.01291 -5.48173,2.07405 l -15.393251,-0.33979 c 0,0 -2.34509,-2.48858 -3.363585,-3.85713 z"
       style="fill:#0b0808;fill-opacity:1;stroke:none;stroke-width:1.69333;stroke-linecap:butt;stroke-linejoin:miter;stroke-miterlimit:4;stroke-dasharray:none;stroke-opacity:1" />
  </g>
</svg>
