<?xml version="1.0" encoding="UTF-8" standalone="no"?>
<!-- Created with Inkscape (http://www.inkscape.org/) -->

<svg
   width="74.097824mm"
   height="63.691578mm"
   viewBox="0 0 74.097824 63.691578"
   version="1.1"
   id="svg1218"
   xmlns="http://www.w3.org/2000/svg"
   xmlns:svg="http://www.w3.org/2000/svg"
   xmlns:rdf="http://www.w3.org/1999/02/22-rdf-syntax-ns#"
   xmlns:cc="http://creativecommons.org/ns#"
   xmlns:dc="http://purl.org/dc/elements/1.1/">
  <defs
     id="defs1212" />
  <metadata
     id="metadata1215">
    <rdf:RDF>
      <cc:Work
         rdf:about="">
        <dc:format>image/svg+xml</dc:format>
        <dc:type
           rdf:resource="http://purl.org/dc/dcmitype/StillImage" />
      </cc:Work>
    </rdf:RDF>
  </metadata>
  <g
     id="layer1"
     transform="translate(-123.51393,-126.65822)">
    <path
       transform="matrix(0.03052885,0,0,0.03022271,26.60125,111.91891)"
       style="fill:#0b0808;fill-opacity:1;stroke:none;stroke-width:17.4209;stroke-linecap:round;stroke-linejoin:round;stroke-miterlimit:4;stroke-dasharray:none;stroke-opacity:1;paint-order:normal"
       id="path871"
       d="m 4549.5059,487.69727 c -20.7167,0.20557 -41.907,4.62903 -60.5547,13.65625 -38.3163,18.54857 -78.1374,72.01603 -98.5332,132.30078 -8.8268,26.08959 -16.0489,51.63095 -16.0489,56.75781 0,16.03704 -12.4791,10.20235 -23.416,-10.94727 -16.335,-31.58851 -34.3325,-46.11523 -57.1328,-46.11523 -34.6362,0 -72.0107,14.5335 -88.8574,34.55469 -35.7485,42.48466 -26.3355,84.60305 42.7851,191.45703 58.3531,90.2082 77.2732,147.59847 93.0899,282.36917 3.8208,32.5563 13.5908,106.1848 21.7109,163.6191 l 14.7637,104.4258 -25.4512,26.0644 c -44.0433,45.1044 -41.0089,94.9511 10.625,174.5235 58.2251,89.7301 60.8366,99.8636 61.2774,237.7929 0.3481,108.8819 -1.2712,128.097 -14.2774,169.4317 -18.275,58.0793 -48.7216,94.8479 -104.2558,125.9043 -48.0204,26.8545 -62.4742,28.3168 -99.7012,10.084 -32.7616,-16.0458 -51.2143,-43.4174 -74.9707,-111.2051 -14.6666,-41.8508 -18.0799,-63.2977 -18.2246,-114.5547 -0.1739,-61.5513 0.593,-64.7352 31.9805,-132.7656 51.1752,-110.9192 52.3026,-116.3854 44.4023,-215.4121 -3.772,-47.2809 -6.8574,-152.4403 -6.8574,-233.6875 0,-160.3372 -0.08,-160.7746 -40.3067,-221.3672 -32.1754,-48.4654 -54.3353,-93.5815 -71.7324,-146.04298 -21.1952,-63.91449 -40.5513,-93.77165 -76.3887,-117.83008 -26.2865,-17.64669 -38.6021,-21.57422 -67.6484,-21.57422 -68.7381,0 -141.7898,40.0429 -168.4727,92.3457 -16.7923,32.9157 -28.3329,78.41678 -23.6386,93.20708 2.1479,6.7673 29.9345,33.9591 61.748,60.4257 65.4154,54.421 128.6113,122.8884 149.7832,162.2774 12.1554,22.6145 14.257,37.3844 14.166,99.5742 -0.059,40.1616 -2.341,81.1707 -5.0703,91.1328 l -4.9609,18.1133 -42.1934,-15.3145 c -65.7012,-23.8482 -102.8876,-48.5053 -156.7754,-103.9511 -55.5441,-57.15 -103.8471,-133.8574 -178.3574,-283.2344 -55.5505,-111.36681 -81.5948,-142.15021 -133.1875,-157.4297 -67.479,-19.98432 -127.423,-10.77702 -156.75,24.07618 -17.2484,20.49865 -17.6792,23.10715 -15.3633,93.15622 l 2.3829,72.0664 -35.8946,14.5215 c -48.4548,19.6029 -63.4479,40.4944 -57.5058,80.1192 2.515,16.7714 14.0045,44.4509 25.7382,62.0078 27.1549,40.632 50.9119,47.6329 121.4336,35.7832 l 49.8516,-8.377 36.8848,32.0274 c 20.2865,17.6144 42.81,36.7342 50.0527,42.4882 11.6497,9.2553 12.3356,13.4654 5.9375,36.5098 -9.0596,32.6305 -9.3904,79.4529 -0.6758,95.7363 3.6471,6.8146 31.776,27.5806 62.5098,46.1446 73.3071,44.2797 150.9105,116.913 172.873,161.8027 16.7116,34.1573 31.3469,98.0297 39.3594,171.7773 l 4.1113,37.8379 -30.998,21.3282 c -41.1106,28.2848 -84.168,33.173 -110.3242,12.5254 -23.2638,-18.3644 -45.7269,-62.5074 -75.5196,-148.4043 -44.9899,-129.7128 -78.4645,-174.4129 -145.123,-193.7911 -78.3014,-22.7628 -131.3107,16.8428 -148.3594,110.8457 -9.3237,51.4091 -1.1442,75.6747 38.7637,114.9825 32.625,32.1344 46.3819,60.4028 56.6289,116.3691 16.0002,87.3886 47.7365,123.5929 165.8379,189.1914 39.4395,21.9064 84.5151,51.1008 100.1699,64.877 32.1111,28.2572 83.0929,53.3182 132.291,65.0312 36.0979,8.5942 111.3886,60.9214 151.4317,105.2442 26.7736,29.6353 48.0965,82.6966 59.1621,147.2265 7.8579,45.8238 7.9998,46.0472 33.8281,53.002 48.6784,13.1078 143.3403,32.6126 188.4746,38.8359 77.4274,10.676 215.1446,-0.8319 396.3906,-33.125 39.8874,-7.1069 74.6937,-12.9219 77.3477,-12.9219 2.654,0 6.8228,-18.6711 9.2637,-41.4902 15.3141,-143.1628 33.586,-204.8107 87.4609,-295.0957 56.5285,-94.7317 57.6872,-95.7441 146.4805,-127.8652 139.7102,-50.5404 280.6255,-130.5678 331.3203,-188.1602 18.0867,-20.5476 47.4655,-73.9887 87.2793,-158.7695 33.0082,-70.2887 64.0291,-129.8577 68.9355,-132.375 4.9063,-2.5173 44.0422,-21.4305 86.9688,-42.0293 50.8389,-24.3956 90.0043,-48.445 112.3418,-68.9844 32.754,-30.1174 34.4204,-33.3089 37.1543,-71.1055 1.9058,-26.3466 -0.5367,-47.7087 -7.3086,-63.916 -9.2299,-22.0905 -14.3624,-25.5727 -55.459,-37.6289 -24.9083,-7.3072 -70.6788,-18.2395 -101.7129,-24.293 -65.9664,-12.8674 -70.3353,-14.8411 -101.3047,-45.8105 -29.2263,-29.2263 -51.2989,-30.3169 -91.9434,-4.541 -28.9376,18.3517 -71.3099,73.0112 -85.4687,110.2519 -3.7012,9.7348 -6.7305,46.12 -6.7305,80.8575 0,70.1949 -15.3896,120.6824 -56.3691,184.914 -58.7873,92.1439 -168.5317,149.3613 -286.4766,149.3613 -51.604,0 -56.3816,-1.2237 -77.6152,-19.8671 -12.4447,-10.9266 -29.0298,-34.7502 -36.8555,-52.9414 -21.6676,-50.3678 -48.7928,-158.8921 -44.2441,-177.0157 2.2145,-8.8232 14.5427,-27.6826 27.3965,-41.9101 27.6521,-30.6077 106.3063,-62.101 193.3027,-77.3985 67.7223,-11.9082 106.7839,-25.4577 126.332,-43.8222 12.6267,-11.8623 15.125,-21.0957 15.125,-55.8926 0,-37.2292 -1.8192,-42.9545 -17.041,-53.6074 -64.9039,-45.4224 -72.7248,-53.2866 -84.7265,-85.1953 -6.8155,-18.1201 -15.9241,-40.4134 -20.2422,-49.5411 -11.3354,-23.9604 -67.3722,-52.7618 -103.0235,-52.9511 -28.2365,-0.1499 -31.5516,2.1558 -99.9394,69.5468 -38.9032,38.3361 -72.8094,69.7032 -75.3477,69.7032 -8.3765,0 -4.7991,-96.0796 4.9746,-133.6035 5.2745,-20.2501 25.3492,-70.91368 44.6094,-112.58598 42.004,-90.88207 44.8224,-117.57916 16.3516,-154.90625 -18.931,-24.81971 -19.0925,-25.83011 -22.5567,-141.20508 -3.3224,-110.65238 -4.2556,-117.11767 -19.5293,-135.26953 -17.9286,-21.30689 -51.1402,-32.68052 -85.6679,-32.33789 z" />
  </g>
</svg>
