<?xml version="1.0" encoding="UTF-8" standalone="no"?>
<!-- Created with Inkscape (http://www.inkscape.org/) -->

<svg
   xmlns:dc="http://purl.org/dc/elements/1.1/"
   xmlns:cc="http://creativecommons.org/ns#"
   xmlns:rdf="http://www.w3.org/1999/02/22-rdf-syntax-ns#"
   xmlns:svg="http://www.w3.org/2000/svg"
   xmlns="http://www.w3.org/2000/svg"
   xmlns:sodipodi="http://sodipodi.sourceforge.net/DTD/sodipodi-0.dtd"
   xmlns:inkscape="http://www.inkscape.org/namespaces/inkscape"
   width="210mm"
   height="297mm"
   viewBox="0 0 210 297"
   version="1.1"
   id="svg8"
   inkscape:version="0.92.5 (2060ec1f9f, 2020-04-08)"
   sodipodi:docname="cnidarians_shapes (copy).svg">
  <defs
     id="defs2" />
  <sodipodi:namedview
     id="base"
     pagecolor="#ffffff"
     bordercolor="#666666"
     borderopacity="1.0"
     inkscape:pageopacity="0.0"
     inkscape:pageshadow="2"
     inkscape:zoom="0.93733313"
     inkscape:cx="229.61361"
     inkscape:cy="625.872"
     inkscape:document-units="mm"
     inkscape:current-layer="layer1"
     showgrid="false"
     inkscape:snap-others="false"
     inkscape:snap-nodes="false"
     inkscape:snap-global="false"
     inkscape:window-width="1848"
     inkscape:window-height="1009"
     inkscape:window-x="72"
     inkscape:window-y="34"
     inkscape:window-maximized="1" />
  <metadata
     id="metadata5">
    <rdf:RDF>
      <cc:Work
         rdf:about="">
        <dc:format>image/svg+xml</dc:format>
        <dc:type
           rdf:resource="http://purl.org/dc/dcmitype/StillImage" />
        <dc:title />
      </cc:Work>
    </rdf:RDF>
  </metadata>
  <g
     inkscape:label="Layer 1"
     inkscape:groupmode="layer"
     id="layer1">
    <path
       style="fill:#000000;stroke-width:1"
       d="m 156.08943,149.11232 h 1e-4 m -15.17904,-15.12111 c 0.32566,0.77655 0.79894,2.28623 0.79894,2.39279 v 4e-5 c 0,0.10635 -0.45148,0.19355 -1.00328,0.19355 -1.58359,0 -3.91737,-3.76104 -5.25197,-6.22863 -0.72973,-1.34919 -2.24956,-3.01904 -2.58989,-1.75297 -0.12401,0.46133 0.84685,1.60186 1.31614,2.37775 1.16188,1.92095 2.20066,4.69908 3.70778,5.63055 0.52711,0.3258 0.65808,0.64885 0.32085,0.79118 -0.31342,0.13236 -1.83826,1.03429 -3.38853,2.00428 -2.3244,1.45437 -3.04976,1.6783 -4.13647,1.27705 -0.98988,-0.36543 -1.26305,-0.3246 -1.09778,0.16422 0.33353,0.98641 2.97266,1.08864 4.41462,0.17107 1.93072,-1.22851 6.25266,-2.6828 5.24826,-1.1941 -1.30764,1.45086 -5.17921,6.63722 -5.11519,8.24063 0.81224,0.84672 2.31868,-2.50147 3.50671,-3.63038 2.9144,-2.76936 4.18497,-2.71993 5.77288,-1.54535 0.55938,0.41379 0.0733,1.36951 0,2.04868 -0.19004,1.76378 -0.67642,3.48823 -1.13462,5.20491 -0.75924,2.84453 -1.72557,6.78026 -2.67074,8.42542 -2.35874,4.10568 -2.50876,5.59193 -0.72729,7.20599 0.82277,0.74547 2.45469,1.62149 3.62649,1.94672 1.17179,0.32524 2.35822,0.78488 2.63651,1.0214 l -9.4e-4,-9e-5 c 0.66583,0.56595 1.21194,0.54253 2.45849,-0.10538 0.56665,-0.29451 1.03024,-0.84793 1.03024,-1.22986 0,-0.3819 0.35954,-0.98416 0.79896,-1.33834 0.54074,-0.43582 0.48341,-1.62906 0.79894,-3.61961 l 0.90446,-5.70586 c 0.0405,-0.254 0.77451,-0.0919 1.06687,-0.0176 1.02908,0.26134 1.94562,-0.88736 1.0627,-1.77582 -0.62785,-0.63182 -1.29301,0.113 -1.72751,-0.28343 l 0.0252,-4.20484 0.0461,-1.93176 c -0.0449,-0.97492 0.0374,-2.92261 0.008,-3.27435 -0.0292,-0.35173 0.34799,-0.7146 0.8384,-0.80629 1.00373,-0.18768 3.63571,3.19269 4.72497,6.26206 l 1.08927,1.5925 c 0.60153,0.74269 1.36391,1.35033 1.69418,1.35033 0.42412,0 0.41275,-0.18241 -0.0387,-0.62074 -0.57778,-0.5611 -1.09061,-0.98678 -1.75318,-2.54962 -0.59572,-1.40514 -0.8943,-3.12122 -0.8943,-3.12122 -0.11294,-0.52637 1.32983,0.32117 1.98398,0.51789 1.04627,0.31463 2.04658,0.76672 3.09997,1.05812 0.83703,0.23154 1.95965,0.75855 2.54973,0.54598 1.12196,-0.40419 1.34187,-0.28599 -4.47902,-2.40749 -2.04144,-0.74404 -3.27203,-1.87646 -2.67218,-2.45903 0.11192,-0.1087 1.63352,0.48322 3.38119,1.31551 1.74767,0.83229 3.73711,1.51324 4.42098,1.51324 1.51423,0 1.12901,-0.80514 -0.5851,-1.22295 -1.54479,-0.37655 -8.64708,-4.33904 -9.43973,-5.2666 -0.81748,-0.95662 0.84854,-1.90308 6.3982,-3.63482 5.36261,-1.67336 7.49144,-3.39285 7.42943,-6.00077 l -0.0409,-1.72095 -0.62769,2.01982 c -0.71197,2.29105 -2.60086,3.49345 -7.0136,4.46463 -1.46475,0.32237 -3.80168,0.89423 -5.19317,1.27082 -1.39151,0.37656 -2.53,0.49273 -2.53,0.25808 0,-0.23462 0.21069,-0.50421 0.46821,-0.59903 0.53848,-0.1983 5.1005,-3.89201 8.44005,-6.8336 3.44309,-3.03282 2.72688,-3.25634 -1.02525,-0.31999 -1.56062,1.21093 -3.61764,2.34624 -5.44646,3.48954 -1.8796,1.17508 -4.89622,3.93346 -5.67923,3.46348 -1.25569,-0.7537 -0.0346,-4.45364 3.16025,-9.57556 1.76293,-2.82629 2.99323,-5.13872 2.734,-5.13872 -0.25922,0 -0.85985,0.52374 -1.33474,1.16387 -2.36986,3.19456 -5.83655,8.64761 -6.74148,10.6042 -0.55922,1.20915 -1.18531,2.19697 -1.39131,2.19517 -0.58815,-0.006 -1.84811,-3.14595 -1.84811,-4.23534 0,-0.54018 -0.004,-2.77981 0.46998,-5.06125 0.79568,-3.83405 0.79473,-4.24606 -0.0121,-5.44193 -0.4801,-0.71161 -1.14422,-1.29383 -1.47582,-1.29383 -0.34722,0 -0.22907,0.40116 0.27859,0.94596 1.11089,1.19163 1.11574,3.02801 0.0181,6.69482 -0.56691,1.89389 -0.76201,3.84481 -0.56735,5.67569 0.26654,2.508 0.21093,2.72095 -0.55024,2.1079 -2.39478,-1.92872 -3.029,-7.65871 -1.17092,-10.5785 0.60979,-0.95822 1.32885,-1.7422 1.5979,-1.7422 0.26907,0 0.4892,-0.23815 0.4892,-0.52922 0,-0.97127 -4.062,1.88705 -4.25766,4.87144 -0.14212,2.16698 -0.26367,3.99247 0.79661,6.52074 z"
       id="path933"
       inkscape:connector-curvature="0"
       sodipodi:nodetypes="ccssssssaccccccccsaaaccccccscsscscccccccssscaacccsssccccsccscccaccscccsccsccccsssss" />
    <path
       style="fill:#000000;stroke-width:1"
       d="m 141.6583,65.103518 c -1.96453,-0.13205 -4.10765,-0.41185 -4.7625,-0.62177 -0.65484,-0.20992 -1.76609,-0.38044 -2.46944,-0.37893 -0.70335,0.002 -1.33176,-0.0502 -1.39647,-0.1149 -0.0647,-0.0647 0.02,-0.46158 0.1882,-0.88194 0.85508,-2.1369 0.79601,-2.72356 -0.50061,-4.97151 -1.37798,-2.389012 -2.5748,-3.862582 -3.13715,-3.862582 -0.61443,0 -1.68036,1.24179 -1.68036,1.95759 0,0.362302 -0.30484,0.992802 -0.67742,1.401092 -0.53718,0.58867 -0.61935,0.62271 -0.39688,0.16444 0.1543,-0.31785 0.28055,-1.06199 0.28055,-1.653652 v -1.07572 l -1.25677,-0.0203 -1.25677,-0.0203 0.98215,-0.3104 c 0.58569,-0.1851 1.36833,-0.76431 1.93884,-1.43487 l 0.9567,-1.12448 h -1.02945 c -0.79845,0 -1.20009,-0.17811 -1.78991,-0.79375 -0.88804,-0.92691 -0.68236,-1.03307 0.44553,-0.22994 0.72631,0.51717 0.88287,0.53518 1.89293,0.21772 0.60562,-0.19034 1.19938,-0.39708 1.31946,-0.45943 0.33375,-0.17326 -0.91036,-1.38044 -1.42268,-1.38044 -0.24786,0 -0.57335,-0.14882 -0.72332,-0.33073 -0.20839,-0.25276 -0.0467,-0.34282 0.68598,-0.38203 0.52726,-0.0282 1.11451,0.0781 1.305,0.23614 0.48912,0.40593 0.69445,0.0926 0.355,-0.54165 -0.41075,-0.76749 -0.37396,-0.90459 0.50773,-1.89214 0.80786,-0.90487 1.09573,-0.81838 0.38846,0.11671 -0.48143,0.6365 -0.49804,1.31505 -0.0415,1.69396 0.5293,0.43929 1.05215,-1.25409 0.83477,-2.70364 -0.10292,-0.68632 -0.0656,-1.22817 0.0911,-1.32507 0.15426,-0.0953 0.2123,0.0386 0.13869,0.32004 -0.13478,0.51542 0.6956,2.69175 1.02704,2.69175 0.36981,0 0.50181,-1.20953 0.21448,-1.96525 -0.15766,-0.41469 -0.24076,-0.79987 -0.18467,-0.85597 0.2058,-0.2058 0.77889,0.73139 0.94556,1.5463 0.22376,1.09406 0.64968,1.20405 1.47328,0.38045 l 0.66898,-0.66898 v 0.60843 c 0,0.69242 -0.75214,1.48418 -1.4099,1.48418 -0.2432,0 -0.44219,0.17063 -0.44219,0.37917 0,0.5269 2.34772,2.40932 2.63104,2.10958 0.12465,-0.13188 0.61391,-1.43041 1.08724,-2.88562 0.65337,-2.00876 0.86677,-3.14759 0.88626,-4.72968 0.0241,-1.95634 -0.017,-2.11596 -0.67171,-2.60878 -0.38356,-0.28871 -1.21699,-0.58105 -1.85208,-0.64964 -0.97541,-0.10534 -1.35089,0.006 -2.41818,0.71993 -1.52157,1.01716 -2.76244,1.33035 -4.46983,1.12813 -1.60609,-0.19022 -1.80149,-0.87142 -0.24997,-0.87142 0.76287,0 1.44656,-0.27938 2.64958,-1.08273 2.34059,-1.56298 2.41689,-1.82991 0.91679,-3.20735 -1.19562,-1.09785 -2.19556,-2.77488 -2.20749,-3.70223 -0.004,-0.29773 0.4197,0.003 1.24263,0.883 1.78446,1.90774 2.3228,2.12416 5.04862,2.02971 1.26604,-0.0439 2.59955,0.0264 2.96335,0.15627 0.57214,0.20417 0.51083,0.0723 -0.45405,-0.97655 -1.51837,-1.65051 -1.67591,-2.37295 -1.2232,-5.609494 l 0.22205,-1.5875 0.46302,0.654184 c 0.3285,0.464134 0.46302,1.163224 0.46302,2.40639 0,1.96893 0.22347,2.3097 1.99405,3.04077 0.57676,0.23814 1.42766,0.71893 1.8909,1.06842 0.46323,0.3495 0.89434,0.63544 0.95801,0.63544 0.0637,0 0.19596,-0.70877 0.29397,-1.57504 0.14706,-1.29987 0.0837,-1.76029 -0.3627,-2.6353 -0.56664,-1.11069 -0.69906,-2.538421 -0.2947,-3.177298 0.17633,-0.278597 0.313,-0.09799 0.52686,0.696229 0.21652,0.804086 0.48474,1.153588 1.072,1.396839 1.12147,0.46453 1.43631,0.95521 1.59056,2.47895 l 0.13625,1.34592 0.88374,-1.66201 c 1.02622,-1.92999 1.59586,-2.24917 3.40942,-1.91036 0.91558,0.17105 1.48939,0.13685 2.11921,-0.12631 0.97608,-0.407828 1.12144,-0.11646 0.33451,0.67047 -0.36753,0.36753 -0.88194,0.52916 -1.68411,0.52916 -1.63775,0 -2.54922,0.76369 -2.54922,2.13587 0,1.1857 0.0771,1.23443 0.83526,0.52808 0.3017,-0.28108 0.98133,-0.58584 1.51029,-0.67725 1.26606,-0.21878 1.64915,-0.53258 2.6643,-2.18241 0.69609,-1.1313 1.04359,-1.434025 1.9157,-1.66886 1.17715,-0.316972 1.70382,-0.09432 0.8853,0.37425 -0.93636,0.53603 -2.13269,1.97572 -2.49391,3.00123 -0.19424,0.55145 -0.6037,1.2768 -0.90989,1.61188 -0.47441,0.51917 -0.49907,0.64572 -0.16679,0.85585 0.55503,0.35099 0.58852,0.34083 1.8225,-0.55306 0.8132,-0.58908 1.36116,-1.32125 2.02407,-2.70451 0.87271,-1.82103 0.91059,-1.86008 0.9489,-0.97818 0.10031,2.30934 -0.29227,3.46017 -1.67936,4.92297 l -0.78646,0.82939 0.9072,0.69196 c 0.66465,0.50695 1.22241,0.69196 2.08609,0.69196 0.64839,0 1.29199,-0.10001 1.43023,-0.22224 0.13825,-0.12223 0.72761,-0.49057 1.30969,-0.81853 0.99666,-0.56154 0.96313,-0.50381 -0.57531,0.99057 -0.95991,0.93242 -1.968,1.66031 -2.44436,1.76493 -0.4459,0.0979 -0.87712,0.28551 -0.95828,0.41683 -0.26986,0.43663 0.38012,1.24253 1.55966,1.93379 0.64112,0.37572 1.25944,0.89464 1.37404,1.15316 0.14604,0.32942 0.26421,0.009 0.39499,-1.07094 0.16315,-1.34717 0.32385,-1.67283 1.27783,-2.58951 1.30232,-1.25138 1.47711,-0.76326 0.30574,0.85377 -0.77203,1.06575 -0.77826,1.10083 -0.36404,2.04823 0.23179,0.53014 0.48041,1.23355 0.55249,1.56312 0.0721,0.32957 0.24557,0.67 0.38554,0.75651 0.39616,0.24484 1.79899,-1.25208 1.79899,-1.91964 0,-0.32847 0.30812,-0.93127 0.68471,-1.33957 0.53719,-0.58241 0.64698,-0.62834 0.50957,-0.21319 -0.24687,0.74586 -0.24636,0.69096 -0.0168,1.79652 0.16467,0.79291 0.10973,1.11164 -0.26253,1.52298 -0.64428,0.71192 -0.33776,0.9071 0.63478,0.40418 1.12042,-0.57939 1.55943,-0.52564 2.54165,0.31122 0.4697,0.40018 1.08073,0.86943 1.35785,1.04277 0.49056,0.30686 0.4899,0.31554 -0.0253,0.32899 -0.29105,0.008 -0.88636,-0.22274 -1.32292,-0.51187 -0.98791,-0.65426 -1.51417,-0.66575 -2.07566,-0.0453 -0.58692,0.64855 -0.55191,0.83727 0.15743,0.84844 0.32742,0.005 0.88698,0.1709 1.24347,0.36832 0.54658,0.3027 0.8368,0.30168 1.85208,-0.007 1.5045,-0.45669 1.64741,-0.45661 2.27359,0.001 0.47122,0.34456 0.43777,0.37041 -0.44682,0.34534 -1.05765,-0.03 -3.71829,1.10562 -3.58001,1.528 0.16594,0.50688 1.97023,0.44182 3.11733,-0.11239 0.61727,-0.29824 1.16468,-0.49987 1.21646,-0.44809 0.0518,0.0518 -0.24906,0.46157 -0.66855,0.91063 -0.47213,0.50542 -1.23387,0.93512 -1.99944,1.12789 -1.08172,0.27238 -1.21577,0.38186 -1.06951,0.87348 0.25479,0.85642 1.06927,1.57821 2.16527,1.91887 l 0.98936,0.30751 -1.54171,0.0277 c -1.36988,0.0247 -1.6279,-0.0585 -2.3151,-0.74566 -0.42537,-0.42536 -0.7734,-1.02068 -0.7734,-1.32291 0,-1.58546 -2.19206,0.40149 -3.48029,3.15465 -0.44259,0.94588 -0.91745,1.935032 -1.05525,2.198102 -1.05355,2.01135 -1.81703,3.70537 -2.22894,4.94565 -0.26582,0.80036 -0.60872,1.59521 -0.76201,1.76633 -0.4302,0.48022 -7.07486,1.21285 -7.95729,0.87735 -0.50041,-0.19026 -0.82299,-0.18847 -1.05712,0.006 -0.48547,0.40289 -4.97714,0.52332 -9.12368,0.2446 z m 14.33335,-17.115492 c 1.95784,-1.61842 2.20469,-2.34865 1.20961,-3.57827 -0.46288,-0.57198 -0.94082,-0.78972 -2.16521,-0.98643 -0.86416,-0.13883 -1.62166,-0.20198 -1.68331,-0.14032 -0.18742,0.18742 0.45734,3.47032 0.88045,4.48297 0.21824,0.52231 0.50513,0.94966 0.63753,0.94966 0.1324,0 0.63682,-0.32742 1.12093,-0.72761 z m 0.38752,-5.82488 c 0.18967,-0.12246 0.23862,-0.55573 0.13229,-1.17091 -0.13407,-0.77571 -0.41364,-1.14162 -1.35941,-1.77931 l -1.19062,-0.80278 -0.3188,0.72098 c -0.50518,1.14248 -0.4356,2.90684 0.12036,3.05212 0.76359,0.19955 2.29419,0.18779 2.61618,-0.0201 z"
       id="path980"
       inkscape:connector-curvature="0" />
    <path
       style="fill:#000000;stroke:none;stroke-width:0.238125;stroke-miterlimit:4;stroke-dasharray:none;stroke-opacity:1"
       d="m 39.351151,60.634321 c -3.11831,-0.44036 -5.606096,-1.19581 -6.81302,-2.06886 -0.891664,-0.644996 -0.923047,-1.439397 -0.121386,-3.07264 0.439101,-0.894592 0.363136,-1.242048 0.760732,-1.184192 1.355008,0.197173 2.168799,0.23334 2.270916,-0.07258 0.07095,-0.212544 -0.15749,-0.331257 -0.639255,-0.332205 -1.347408,-0.0027 -2.583874,-0.508082 -3.593924,-1.469089 -0.783285,-0.745252 -0.996102,-1.149405 -1.010783,-1.919536 -0.01023,-0.536538 -0.115838,-1.213649 -0.234688,-1.504691 -0.163998,-0.401602 -0.09193,-0.355605 0.423409,-0.811533 0.779365,-0.09101 0.769683,-1.044454 0.953321,-0.860816 0.148511,0.148511 0.579147,0.481724 0.913845,0.481724 0.488936,0 0.608542,-0.144438 0.608542,-0.734879 0,-0.404183 -0.155306,-1.218688 -0.38825,-1.551262 -0.374976,-0.535354 -0.682502,-0.88918 -0.467097,-1.578171 0.150941,-0.4828 0.292345,-0.984618 0.663181,-1.355454 l 0.706883,-0.706882 c 0,0 0.0583,0.727328 0.584306,0.864346 0.324182,0.08445 0.791839,0.299803 0.959241,0.299803 0.167402,0 0.431808,0.238125 0.587569,0.529167 0.374172,0.699146 1.153847,0.717751 0.933109,0.02227 -0.08849,-0.278795 -0.03332,-0.585736 0.122581,-0.682091 0.165592,-0.102342 0.216098,-0.534282 0.121458,-1.038758 -0.159233,-0.848781 -0.145759,-0.863003 0.786931,-0.830614 0.441806,0.01534 1.051203,0.287357 1.143924,0.57536 0.582253,0.208458 0.966441,0.6655 0.673517,1.134546 -0.303853,0.486544 -0.209902,0.81929 0.231327,0.81929 0.121268,0 0.220486,-0.178594 0.220486,-0.396875 0,-0.218282 0.172678,-0.396875 0.383728,-0.396875 0.21105,0 0.478941,-0.168819 0.595313,-0.375154 0.19249,-0.341298 0.65987,0.227437 1.21846,0.586135 0.334664,0.214905 0.837781,0.08299 0.955385,0.392312 0.355922,0.936145 1.490254,1.581634 2.420422,1.377335 0.814416,-0.178876 1.076812,-0.657712 0.360417,-0.657712 -0.751771,0 -0.06172,-1.178621 0.677103,-0.799601 0.456547,-0.489063 1.391378,0.09698 1.206394,0.77081 -0.07272,0.234116 -0.02019,0.60426 0.11675,0.822541 0.216156,0.344562 0.311269,0.331661 0.721564,-0.09787 0.344488,-0.360637 0.382941,-0.52798 0.14186,-0.617361 -0.181901,-0.06744 -0.330729,-0.291289 -0.330729,-0.497443 0,-0.35872 0.300483,-0.482086 0.972236,-0.399158 0.170927,0.0211 0.379405,-0.07268 0.463284,-0.208396 0.08388,-0.135719 0.371173,-0.189579 0.638431,-0.119689 0.267259,0.06989 0.731431,-0.594303 1.639412,-0.315862 0.519857,-0.638944 1.656898,-0.800669 2.10747,-0.257763 0.227568,0.274204 0.237582,0.396875 0.0324,0.396875 -0.163338,0 -0.296979,0.12133 -0.296979,0.269624 0,0.15763 0.283218,0.198541 0.681845,0.09849 0.866907,-0.21758 1.938798,0.332192 1.786406,0.916246 -0.08275,0.317136 0.07692,0.446245 0.587734,0.475241 0.510252,0.02896 0.622012,-0.03952 0.410181,-0.251355 -0.51489,-0.514889 -0.188849,-1.58946 0.731589,-1.618081 0.292163,-0.826476 1.286505,-1.136746 2.050521,-0.522183 0.693448,-0.443959 1.299773,0.119812 1.632227,0.115359 0.384386,-0.05322 0.596103,0.0071 0.699984,0.134178 0.01503,0.638162 -0.162004,1.066295 -0.231735,1.48772 -0.408336,0.691261 -0.416663,0.833214 -0.07199,1.227279 0.710766,0.812613 0.813033,2.802709 0.213656,4.157697 -0.507595,1.147508 -0.683059,1.280903 -3.322531,2.525938 -1.532652,0.722948 -2.786637,1.428578 -2.786637,1.568066 0,0.329754 1.073709,0.635809 2.578669,0.630309 l 1.374784,-0.005 c 0,0 -0.189281,0.952965 -0.138628,1.428769 0.09049,0.849964 0.759654,1.78813 0.779429,2.442974 0.03361,1.112941 -0.02477,1.220341 -0.894609,1.645991 -0.511807,0.25046 -1.761964,0.57745 -2.778125,0.72666 -1.883248,0.27653 -16.279543,0.59139 -17.722561,0.3876 z"
       id="path939"
       inkscape:connector-curvature="0"
       sodipodi:nodetypes="ccssccscscsssssscssscccsccssssssssccccssccsccsscccccccccccssscaccscc" />
    <path
       style="fill:#000000;stroke-width:1"
       d="m 52.219413,162.4707 c 0,-0.12777 0.250016,-0.39832 0.555588,-0.60121 0.502497,-0.33365 0.527984,-0.47142 0.266711,-1.44171 -0.158885,-0.59005 -0.866831,-2.01615 -1.573217,-3.16911 -0.706385,-1.15296 -1.940995,-3.16785 -2.743579,-4.47754 -0.980578,-1.60014 -1.666547,-2.44056 -2.091227,-2.56206 -0.347591,-0.0994 -1.145402,-0.3148 -1.772912,-0.47857 -1.606683,-0.41931 -3.014539,-1.79556 -3.85582,-3.76927 -1.49319,-3.50312 -1.491231,-3.50062 -2.808461,-3.58623 -1.120227,-0.0728 -1.268258,0.002 -2.503596,1.25677 -0.722134,0.73379 -1.406743,1.33415 -1.521354,1.33415 -0.441207,0 -0.17401,-0.71488 0.63323,-1.6942 0.807536,-0.97968 0.821431,-1.03578 0.343165,-1.3855 -0.274145,-0.20046 -0.890996,-0.50642 -1.370779,-0.67991 -0.479783,-0.17349 -0.872333,-0.41058 -0.872333,-0.52687 0,-0.35822 0.871635,-0.2245 2.063948,0.31662 0.889786,0.40382 1.351325,0.46604 2.116667,0.28535 0.538318,-0.12709 0.828182,-0.24304 0.644142,-0.25766 -0.489757,-0.0389 -1.383037,-1.63109 -1.384184,-2.46718 -7.32e-4,-0.53277 -0.208054,-0.82788 -0.79474,-1.13127 -0.91004,-0.4706 -1.040166,-0.92604 -0.264583,-0.92604 0.352778,0 0.529167,-0.17639 0.529167,-0.52917 0,-0.29104 0.165855,-0.52917 0.368567,-0.52917 0.399471,0 0.689766,0.55427 0.689766,1.31698 0,0.2852 0.527256,0.81828 1.299404,1.31377 0.714671,0.4586 1.378696,1.03656 1.47561,1.28435 0.148308,0.3792 0.237718,0.33425 0.564694,-0.28388 0.367805,-0.69531 0.338547,-0.81531 -0.549569,-2.25417 -0.51593,-0.83588 -0.938055,-1.66625 -0.938055,-1.84528 0,-0.6686 0.482973,-0.28225 1.429758,1.14371 1.070977,1.61301 0.893144,1.57951 3.398888,0.64022 1.908274,-0.71533 1.627205,0.042 -0.33073,0.89111 -1.340211,0.58124 -1.5875,0.7927 -1.5875,1.35751 0,0.52864 0.132415,0.66902 0.631075,0.66902 1.003499,0 3.282774,0.82371 3.770478,1.36261 0.713339,0.78823 0.251079,0.84137 -1.14871,0.13204 -0.713731,-0.36167 -1.729317,-0.73856 -2.256859,-0.83753 -0.942847,-0.17688 -0.964742,-0.16133 -1.286788,0.91356 -0.399784,1.33436 -0.102626,2.07418 1.924824,4.79214 1.334534,1.78905 3.005158,2.99406 3.360058,2.42359 0.09091,-0.14614 0.105766,-2.27216 0.03301,-4.7245 -0.07276,-2.45233 -0.03356,-6.24473 0.08712,-8.42754 0.337278,-6.10083 -0.07,-10.10763 -1.10768,-10.89723 -0.239055,-0.1819 -0.820852,-0.33452 -1.292882,-0.33915 -1.124947,-0.011 -6.172487,2.24161 -6.682389,2.98225 -0.806413,1.17132 -2.26779,2.65095 -3.727997,3.77455 -1.350043,1.03884 -1.519918,1.2812 -1.689194,2.41001 -0.23186,1.54615 -1.148006,4.05395 -1.480986,4.05395 -0.358191,0 -0.30364,-0.45805 0.283594,-2.38125 0.669293,-2.19195 0.669293,-2.46139 0,-2.24896 -0.818601,0.25981 -0.648666,-0.4593 0.226114,-0.95684 0.45553,-0.2591 0.812354,-0.72843 0.905207,-1.19063 0.296435,-1.47558 1.320111,-2.57181 3.430244,-3.67336 1.115585,-0.58238 2.587436,-1.63075 3.272763,-2.33114 2.009224,-2.05338 3.985693,-2.77406 6.056297,-2.2083 l 0.79375,0.21688 -0.635178,-0.67634 c -0.349347,-0.37198 -1.149799,-0.87287 -1.77878,-1.11308 -0.958844,-0.36618 -1.342277,-0.38671 -2.373344,-0.12709 -1.844996,0.46458 -4.293139,1.6466 -6.513456,3.14485 -3.422591,2.30954 -4.311319,3.53636 -3.71201,5.12411 0.166031,0.43986 0.182606,0.8071 0.0404,0.89499 -0.7995,0.49412 -1.223963,-1.29872 -0.639011,-2.69904 0.795526,-1.90441 2.892496,-3.58111 7.155688,-5.72154 3.969521,-1.99299 5.439151,-2.1661 7.354498,-0.86631 l 0.9364,0.63546 -0.909856,-1.19198 c -1.4656,-1.92004 -1.515619,-3.07233 -0.171799,-3.95782 1.058402,-0.69742 4.714781,-0.81621 6.934995,-0.2253 0.945886,0.25175 2.299042,0.44167 3.007014,0.42206 0.883774,-0.0245 1.608378,0.14483 2.311889,0.54023 l 1.024665,0.57589 2.053739,-0.69699 c 2.403655,-0.81575 2.864112,-0.89223 3.835643,-0.63712 0.494258,0.12979 0.778174,0.41933 0.89585,0.91358 0.09475,0.39797 0.294868,0.95609 0.493503,1.41413 0.109145,0.25168 0.180315,0.58488 0.381937,0.72899 0.288945,-0.10539 0.548821,-0.15516 1.105964,-0.29658 1.907268,-0.48412 3.41063,0.17948 3.41063,1.50548 0,0.59349 -0.44192,0.51189 -0.604996,-0.11171 -0.07565,-0.28929 -0.476491,-0.65572 -0.890754,-0.81428 -0.627952,-0.24035 -1.083202,-0.1667 -2.737583,0.44292 -1.306857,0.48156 -2.559659,0.74364 -3.669313,0.7676 l -1.684941,0.0364 -0.341577,0.99358 -0.316627,0.90626 1.756148,1.23951 c 0.979604,0.6337 1.924264,1.32469 2.099246,1.53553 0.450596,0.54293 0.104955,6.26638 -0.378425,6.26638 -0.58537,0 -0.706133,-1.04591 -0.370144,-3.20574 0.375629,-2.41467 0.420785,-2.31768 -1.916589,-4.11625 l -1.538957,-1.1842 -0.672867,1.46973 c -0.546156,1.19297 -0.639096,1.69493 -0.493536,2.6656 0.111694,0.74482 0.07889,1.19586 -0.08699,1.19586 -0.810881,0 -0.765286,-2.38514 0.08032,-4.20165 0.344453,-0.73994 0.717659,-1.58439 0.717659,-1.58439 0,0 -0.603147,-0.69329 -1.365264,-0.6918 -0.498578,-0.10951 -1.369888,0.089 -2.693699,0.6136 -1.076209,0.42651 -2.624122,0.91328 -3.43981,1.08171 -1.768875,0.36525 -2.617974,1.06251 -2.617974,2.14981 0,0.43243 0.231725,1.82678 0.514944,3.09855 0.695994,3.12529 0.728528,4.43143 0.298676,11.99098 -0.295667,5.19971 -0.304687,6.76463 -0.04499,7.80521 0.329797,1.32146 3.113591,6.44563 5.274019,9.70799 l 1.186638,1.79188 0.622194,-0.58452 c 0.410057,-0.38523 0.711386,-0.49533 0.883788,-0.32293 0.380572,0.38057 -1.148651,1.75262 -3.039433,2.72704 -1.611132,0.8303 -2.256253,0.99672 -2.256253,0.58205 z m -12.7,-21.62695 c 0,-0.2354 -0.500159,-0.92001 -1.111464,-1.52135 -0.881026,-0.86667 -1.131345,-1.00023 -1.207355,-0.6442 -0.142738,0.66859 0.394021,1.49861 1.343517,2.07756 1.017415,0.62036 0.975302,0.61656 0.975302,0.088 z m 1.5875,-1.29178 c 0,-0.21829 -0.04679,-0.39688 -0.103984,-0.39688 -0.05719,0 -0.172518,0.17859 -0.25628,0.39688 -0.08376,0.21828 -0.03697,0.39687 0.103984,0.39687 0.140954,0 0.25628,-0.17859 0.25628,-0.39687 z m -5.567308,-11.09099 c 1.35486,-1.39227 1.253983,-1.48964 -0.534707,-0.51611 -1.108649,0.6034 -2.100069,1.83231 -2.100069,2.60312 0,0.29448 1.384345,-0.80206 2.634776,-2.08701 z m 9.068255,-5.10038 c 0.717962,0.0963 0.968298,0.0633 0.718635,-0.0946 -0.576853,-0.36494 -2.800694,-0.29862 -3.76506,0.11229 -0.468268,0.19953 -1.146806,0.68298 -1.507861,1.07434 -0.640969,0.69476 -0.607972,0.68852 1.398032,-0.26412 1.691993,-0.80353 2.248892,-0.9496 3.156254,-0.8279 z m 4.451379,-3.41179 c 0.329904,-0.5338 1.092925,-1.18633 1.81514,-1.5523 1.227334,-0.62194 2.068318,-1.3605 1.825578,-1.60324 -0.273073,-0.27307 -3.038531,-0.65693 -4.732766,-0.65693 -2.079349,0 -3.006113,0.28368 -3.413483,1.04486 -0.342385,0.63975 -0.240312,0.85044 1.844872,3.80802 l 1.455208,2.06404 0.318147,-1.09177 c 0.17498,-0.60047 0.574267,-1.50618 0.887304,-2.01268 z m 2.893363,2.6704 c 0.841148,-0.21796 2.04896,-0.63207 2.684023,-0.92023 1.358522,-0.61644 3.323162,-0.67965 4.049478,-0.13029 0.183075,0.13847 0.50264,0.35066 0.50264,0.35066 0,0 0.317847,-0.5658 0.434953,-1.18298 0.0034,-0.46572 -0.20143,-0.58752 -1.223502,-0.72761 -0.675156,-0.0925 -1.576147,-0.16825 -2.002205,-0.16825 -0.654246,0 -0.748546,0.0823 -0.606701,0.52916 0.196144,0.618 -0.189335,0.70117 -0.654121,0.14114 -0.278604,-0.3357 -0.523849,-0.28503 -1.818333,0.37567 -1.517751,0.77467 -3.494397,2.12903 -3.107244,2.12903 0.116407,0 0.899862,-0.17834 1.741012,-0.3963 z m 1.704446,-2.80837 c 1.310717,-0.47397 1.310831,-1.29325 1.8e-4,-1.29325 -1.342573,0 -1.770237,0.30625 -3.115965,2.23133 l -1.193558,1.7074 1.682865,-1.15214 c 0.925575,-0.63367 2.10749,-1.30568 2.626478,-1.49334 z m -3.703451,0.77761 c 0.450956,-0.77482 0.456789,-0.83501 0.0487,-0.50263 -0.254985,0.20768 -0.652751,0.74346 -0.883924,1.19062 -0.571339,1.10515 0.125829,0.53088 0.835224,-0.68799 z m 13.876659,-1.04143 c 0.428204,-0.14927 0.929456,-0.19481 1.166633,-0.41411 -0.170124,-0.19924 -0.625915,-0.86141 -1.038577,-1.84904 -0.436467,-1.04462 -0.720963,-1.07583 -3.02242,-0.33156 -0.93776,0.30326 -1.863569,0.60091 -2.057353,0.66144 -0.228597,0.0714 0.03452,0.48175 0.749195,1.16841 0.934074,0.89746 1.273238,1.05835 2.23108,1.05835 0.621252,0 1.508403,-0.13207 1.971442,-0.29349 z m -5.326988,-0.93715 c -0.705163,-0.40113 -1.062239,-0.4443 -1.984375,-0.2399 -1.782371,0.39508 -1.35985,0.80585 0.860128,0.83621 0.491753,-0.0128 1.912888,0.37788 2.187737,0.4157 0.11544,0.0159 -0.51716,-0.52793 -1.06349,-1.01201 z m -4.431771,-1.00271 c 0,-0.27926 -0.507765,-0.39658 -0.658792,-0.15222 -0.0914,0.1479 0.01943,0.2689 0.246301,0.2689 0.22687,0 0.412491,-0.0525 0.412491,-0.11668 z m 2.645833,-0.10543 c 0,-0.26403 -1.185302,-0.83622 -1.73224,-0.83622 -0.432404,0 -0.450022,0.0504 -0.223827,0.63982 0.16797,0.43772 1.956067,0.61726 1.956067,0.1964 z"
       id="path972"
       inkscape:connector-curvature="0"
       sodipodi:nodetypes="ccssccccccsscsssccccssssccccssccsscccsscccccccsssccsccscccccccsscccccccccccaccscssccccccscscccscccccssssccccsccscccsssscssccscccccccccccscscscscccccscccsscssccccscccccccssccscscscsssscs" />
  </g>
</svg>
