<?xml version="1.0" encoding="UTF-8" standalone="no"?>
<!-- Created with Inkscape (http://www.inkscape.org/) -->

<svg
   xmlns:dc="http://purl.org/dc/elements/1.1/"
   xmlns:cc="http://creativecommons.org/ns#"
   xmlns:rdf="http://www.w3.org/1999/02/22-rdf-syntax-ns#"
   xmlns:svg="http://www.w3.org/2000/svg"
   xmlns="http://www.w3.org/2000/svg"
   xmlns:sodipodi="http://sodipodi.sourceforge.net/DTD/sodipodi-0.dtd"
   xmlns:inkscape="http://www.inkscape.org/namespaces/inkscape"
   width="210mm"
   height="297mm"
   viewBox="0 0 210 297"
   version="1.1"
   id="svg1218"
   inkscape:version="0.92.5 (2060ec1f9f, 2020-04-08)"
   sodipodi:docname="coral_shapes.svg">
  <defs
     id="defs1212" />
  <sodipodi:namedview
     id="base"
     pagecolor="#ffffff"
     bordercolor="#666666"
     borderopacity="1.0"
     inkscape:pageopacity="0.0"
     inkscape:pageshadow="2"
     inkscape:zoom="0.56749715"
     inkscape:cx="425.86957"
     inkscape:cy="601.14315"
     inkscape:document-units="mm"
     inkscape:current-layer="layer1"
     showgrid="false"
     inkscape:snap-global="false"
     inkscape:window-width="1846"
     inkscape:window-height="1009"
     inkscape:window-x="74"
     inkscape:window-y="34"
     inkscape:window-maximized="1" />
  <metadata
     id="metadata1215">
    <rdf:RDF>
      <cc:Work
         rdf:about="">
        <dc:format>image/svg+xml</dc:format>
        <dc:type
           rdf:resource="http://purl.org/dc/dcmitype/StillImage" />
        <dc:title />
      </cc:Work>
    </rdf:RDF>
  </metadata>
  <g
     inkscape:label="Layer 1"
     inkscape:groupmode="layer"
     id="layer1">
    <path
       id="path984"
       style="fill:#0b0808;fill-opacity:1;stroke:none;stroke-width:0.26458332px;stroke-linecap:butt;stroke-linejoin:miter;stroke-opacity:1"
       d="m 176.09957,103.66627 -1.48365,-4.906706 0.1033,-6.68617 2.21944,-4.53114 0.66303,1.40162 -0.44716,3.68448 0.14395,4.23324 3.52797,-3.15482 0.27058,1.69127 -2.53131,4.18044 0.89254,3.225306 c 2.78298,-1.34646 4.64736,-2.15549 7.25388,-3.859816 l -1.64937,-3.49236 -2.6456,-6.46534 2.98441,0.3278 1.25377,2.82568 2.28467,4.52093 3.17614,-6.18194 0.63293,-2.8032 1.08505,2.26064 7.04179,-6.65672 1.53718,0.27129 -5.08659,7.07529 -2.73565,3.72976 -2.62255,4.95005 5.56098,-3.71762 4.20484,-4.70126 0.12485,3.07393 c 0,0 -3.68516,5.34582 -4.22767,5.34582 -0.54254,0 -4.41941,2.881846 -5.05238,2.429716 -0.63293,-0.45212 -4.26153,0.37241 -4.26153,0.37241 l -7.46035,4.40857 -9.39326,1.05137 -4.34023,-0.0904 -0.61706,1.09558 5.18335,0.19299 -0.15826,1.24334 -6.57811,1.35638 -1.80843,2.80319 -6.59487,0.20261 c -2.6481,-1.93099 -4.22649,-3.43474 -6.33629,-5.54461 l -6.15901,0.52983 c -2.74402,-0.082 -4.59004,-0.51284 -6.87364,-0.70756 -0.76563,-0.0502 -4.09356,-2.0629 -4.66776,-2.10059 -0.57421,-0.0377 -3.91143,-1.18811 -3.91143,-1.18811 l -0.62446,0.72794 -5.76198,0.90328 -3.20895,-1.50758 -2.96632,-2.86986 -1.95281,-1.7436 0.19428,-4.269366 3.29402,4.384086 4.88821,3.49267 -2.71635,-5.006536 -0.056,-2.26448 1.30449,1.14085 4.63979,5.344076 v 0 l 2.55425,-1.81873 -4.39117,-6.465676 -1.77152,-8.89089 0.0231,-5.43524 0.92118,-2.69038 1.57704,2.76931 0.33484,4.90776 1.99496,7.99171 5.51171,8.507856 0.97231,-4.092346 -0.70623,-2.69374 -0.82068,-3.60212 0.66585,-6.82058 1.62077,1.0313 0.94817,5.05676 1.12587,6.43791 1.55843,-3.6583 0.39405,-3.67235 1.49749,2.22424 c 0.11653,2.34187 -1.38293,5.61367 -1.26642,6.63796 l -2.32757,3.207296 -0.61932,1.6254 c 1.07088,0.19535 3.01462,0.64316 3.91346,0.69755 l 8.47052,-0.71257 c -0.36131,-0.96533 -0.73255,-1.87382 -1.04588,-2.8266 -0.619,-1.600496 -0.97671,-2.772446 -0.97671,-2.772446 l -0.78863,-1.7618 -3.75835,-6.16328 -3.83625,-6.13827 -3.54075,-2.4415 -3.83975,-4.970432 -3.794,-5.754626 -0.84574,-5.587539 4.34116,6.60701 2.55393,-4.866626 0.49365,7.640769 c 0.0344,1.781233 2.90759,3.14471 3.48778,5.302174 l 1.88245,-6.813383 1.64094,-4.880895 2.13466,-5.754608 1.79023,-2.301887 -1.11163,8.823796 -1.38521,6.03182 -1.50594,3.850703 3.0975,-0.536497 2.97681,-3.577114 c 0.40284,-0.309858 1.95022,-4.688783 1.95022,-4.688783 l 0.50795,5.470335 c 0,0 -0.32711,2.554057 -0.96649,3.321358 -0.63938,0.767265 -5.56281,5.583935 -5.56281,5.583935 l 1.70515,3.63419 3.50259,4.88448 2.93755,-7.30711 2.18457,-5.75821 0.46353,4.16335 -1.9559,9.60644 0.45212,2.26064 3.40282,-5.31263 2.17012,-1.53725 -0.71249,4.20505 -4.56635,6.10349 1.09145,2.095266 4.06255,-3.451666 1.44673,-0.18085 -4.49912,5.525006 1.6621,0.94366 3.58783,3.26154 4.67446,-5.29935 1.80843,-10.127666 -2.27802,-2.47314 -2.80324,-4.53982 0.52093,-1.09368 2.43528,2.61678 2.66756,2.68665 0.27128,-2.26064 -2.89349,-3.79783 -4.87114,-12.037308 -5.58419,-2.99048 -3.37282,-4.18419 -1.44675,-4.340394 0.3617,-3.797869 2.17009,3.797869 1.98927,3.345711 1.82927,2.406705 3.33004,2.055203 0.72339,-5.696811 0.81378,-3.797868 -3.25516,-2.260641 -1.89882,-1.537229 -2.84827,-4.928206 3.61683,3.029263 3.93334,2.079773 -0.54254,-9.22339 3.25516,9.585105 c 4.27135,-1.996248 6.14768,-4.602832 6.43445,-4.407697 0.34931,0.237702 -1.72546,3.801255 -5.53025,7.2109 l -1.35631,5.515946 -0.18085,3.888293 0.27128,1.085089 4.15935,-1.537193 3.3456,-2.57716 -2.62221,4.928207 -3.88813,2.441488 1.53718,4.792553 4.69029,7.968151 6.29597,-5.764837 -1.44677,-3.458661 -2.91592,-6.758725 0.51969,-2.61093 3.72956,6.498335 -3.72956,-13.641932 0.27126,-4.973419 4.05734,8.691546 c 1.37387,3.591852 0.95701,5.093808 1.55982,7.143435 l 0.75726,2.972807 0.74621,3.458643 3.62788,-4.306283 1.24413,-7.979923 0.29446,-5.990554 1.97714,8.624335 -0.35098,6.521692 6.36406,-5.537873 3.07431,-0.09046 c 0,0 -8.08206,9.154929 -8.44374,8.793215 -0.36168,-0.361697 -3.25516,1.537246 -3.25516,1.537246 l -4.06894,2.803183 5.51569,1.08511 5.56221,-0.83631 0.50383,-5.038761 2.0843,-1.358952 0.39559,6.092533 6.26972,-6.360654 -0.29979,3.440988 -2.95231,3.394836 c 0,0 -4.11428,3.35663 -4.74721,3.26618 -0.63295,-0.0904 -2.14816,0.27128 -2.14816,0.27128 l -8.37546,-0.15838 -4.24978,-1.08509 -5.15402,4.70213 -1.44674,2.07977 -1.26589,11.212756 -0.72337,1.7181 7.40401,0.75709 1.30072,-0.13836"
       inkscape:connector-curvature="0"
       sodipodi:nodetypes="ccccccccccccccccccccccccccccsccccccccccccccscccccccccccccccccccccccccccccccccccccccccccccccccccccscccsccccccccccccccccccccccccccccccccccccccccccccccccccccccccccccccccccccccccccsccccccccccccccccccccccccc" />
    <path
       inkscape:connector-curvature="0"
       id="path986"
       d="m 48.199896,278.73854 c -1.274486,-1.71261 -3.108624,-7.49901 -3.547075,-10.50035 -0.175011,-1.19797 -0.164098,-2.05995 0.534098,-2.69167 0.416858,-0.3772 0.809657,-0.01 1.246348,0.34418 0.560916,0.45472 1.814394,2.85008 2.919237,4.15358 1.725728,2.03589 2.165589,2.7021 2.165589,2.7021 0,0 0.849529,-4.23327 0.49757,-4.9401 -0.351928,-0.70686 -2.452237,-3.37467 -4.573698,-6.67813 -0.421904,-0.657 -0.663751,-1.50187 -0.913813,-1.52163 -1.628996,-0.12883 -9.870474,-3.40542 -13.783649,-6.68636 -1.329849,-1.11492 -2.982815,-3.42762 -3.054404,-4.21596 -0.07658,-0.84246 0.533131,-1.9301 1.253185,-1.63409 1.12541,0.46267 2.746219,2.30599 4.319734,3.13719 2.289344,1.20933 6.401471,2.68036 7.312643,2.61848 0,0 -2.151945,-4.58487 -2.446281,-5.3523 -1.760849,-4.59123 -4.874812,-12.9024 -4.081761,-14.17597 0.472427,-0.75869 1.71769,-1.87396 2.25352,-1.45285 1.250807,0.98311 2.649223,3.75796 4.007503,5.61261 0.823388,1.12431 1.961413,3.06151 2.732665,4.29436 0.635849,1.01655 3.847836,-2.86767 4.989265,-2.73639 0.962605,0.11075 1.034985,0.73831 0.802234,1.56921 -0.596592,2.12978 -3.014795,5.51987 -2.466848,6.34945 0.585972,0.88713 1.70211,2.39964 2.308267,3.33818 1.35866,2.10383 4.72075,5.97269 4.72075,5.97269 0,0 1.032373,-7.05288 1.554795,-10.64094 0.232664,-1.5983 0.480554,-3.19836 0.581659,-4.81033 0.279078,-4.44945 -0.16483,-8.92224 0.06605,-13.3745 0.173046,-3.33642 0.130562,-8.49199 0.987368,-9.97402 0.620152,-1.07253 1.34983,-2.89024 2.524501,-2.49661 0.317718,0.10643 1.128373,1.06382 1.505035,2.06842 0.841226,2.24348 1.695128,5.97131 1.961444,7.80975 0.509014,3.5145 1.516977,7.78824 1.516977,7.78824 0,0 3.614702,-0.62417 4.032528,-0.40744 0.826059,0.42847 1.749817,0.86704 1.211816,1.62629 -0.529816,0.74781 -1.745299,1.69861 -2.807306,2.30663 -0.600229,0.34368 -1.900035,1.22562 -1.900035,1.22562 l -0.356975,2.383 c 0,0 2.752382,-0.36447 3.175723,-0.22467 0.825442,0.27251 0.671203,0.71923 0.115041,1.38717 -0.474335,0.5697 -3.561276,2.27999 -3.561276,2.27999 0,0 -0.301406,2.21946 -0.370266,3.33547 -0.03649,0.592 -0.437014,2.38629 0.193993,2.374 1.985679,-0.0385 4.920142,-1.35051 7.138688,-1.99413 1.13923,-0.33048 2.356795,-0.78761 3.365874,-0.16391 1.278798,0.79043 0.614313,1.7398 -0.348526,2.89431 -1.383687,1.65911 -3.354578,2.7628 -5.221253,3.85718 -1.731069,1.01488 -3.316877,1.87963 -5.486134,2.47823 -0.883416,0.24374 -0.826556,2.73543 -0.826556,2.73543 0,0 -0.310941,2.74501 -0.315196,4.06838 -0.0029,0.5202 0.04747,0.96756 0.04747,0.96756 0,0 4.849785,-1.06479 6.912392,-2.35804 2.327015,-1.45906 4.389621,-3.49919 5.79188,-5.8609 1.520967,-2.56169 3.396915,-5.74651 4.474062,-8.52418 0.678185,-1.74868 1.138729,-3.54485 1.780949,-5.29163 0.498539,-1.35591 0.520185,-3.03704 1.607627,-4.02475 0.302353,-0.2746 1.194009,-0.93582 1.695575,-0.70977 0.428557,0.19315 1.12153,1.0562 1.238597,1.68744 0.234987,1.26739 0.242406,2.56991 -0.07773,4.12275 l -1.01858,4.94048 -1.31398,5.5553 c -0.799295,3.37919 -4.368435,7.96978 -4.368435,7.96978 0,0 3.736905,-0.25143 5.551997,-0.6773 1.689199,-0.39626 3.476136,-1.26433 4.156579,-1.02833 0.683792,0.23723 0.731552,1.03414 0.593017,1.74455 -0.176925,0.90716 -2.765119,2.64834 -3.725937,3.12885 -1.152602,0.57642 -2.961184,1.55791 -4.240899,1.71002 -2.215404,0.26335 -6.539598,0.58042 -6.539598,0.58042 l -6.989613,4.51825 c 0,0 -1.33915,1.47141 -1.681191,2.38075 -0.150981,0.40149 -0.134463,1.27985 -0.134463,1.27985 0,0 5.888172,0.28528 8.723498,-0.37177 3.235781,-0.74981 7.846069,-4.31197 9.127303,-3.99768 0.528901,0.12976 0.604916,1.86204 0.325252,2.32933 -1.100084,1.838 -3.939049,4.5025 -6.497467,5.9396 -2.158781,1.21264 -5.031191,2.03032 -7.132732,2.0745 -3.123498,0.86565 -5.041284,-1.01291 -5.48173,2.07405 l -15.393251,-0.33979 c 0,0 -2.34509,-2.48858 -3.363585,-3.85713 z"
       style="fill:#0b0808;fill-opacity:1;stroke:none;stroke-width:1.69333339;stroke-linecap:butt;stroke-linejoin:miter;stroke-miterlimit:4;stroke-dasharray:none;stroke-opacity:1"
       sodipodi:nodetypes="ssssscsssassasssssssssscssssssscsssccsscsssssascscsssasssscscsssssccacassacccs" />
    <path
       sodipodi:nodetypes="cssscsssssssscsssssscsssccsscssssscscscsssascscscsssssccacsssssscc"
       style="fill:#0b0808;fill-opacity:1;stroke:none;stroke-width:0.26458335px;stroke-linecap:butt;stroke-linejoin:miter;stroke-opacity:1"
       d="m 146.23804,282.96791 c -0.53904,-0.43273 -4.87327,-6.12416 -6.14074,-8.84808 -0.50586,-1.08719 -0.62009,-1.35107 -0.13678,-2.14872 0.28856,-0.47626 0.4064,-0.78086 0.9565,-0.6948 0.82435,0.12899 6.83365,5.65457 6.83365,5.65457 0,0 0.24181,-5.24883 -0.29266,-5.81977 -0.53452,-0.57093 -7.39439,-5.05473 -11.07073,-8.24946 -2.48437,-2.15893 -4.66722,-4.66792 -6.67658,-7.27486 -2.97331,-3.85752 -8.28588,-10.86137 -7.89463,-12.29506 0.23307,-0.85405 1.09832,-2.26586 1.72621,-2.01825 1.46581,0.57806 3.57993,2.81461 5.39492,4.18928 2.00739,1.5204 3.99695,3.41113 5.92031,5.03658 1.94384,1.6428 3.7179,3.09813 5.65305,4.75113 1.88602,1.61101 6.56253,4.43522 6.56253,4.43522 0,0 -1.40983,-7.09295 -1.93202,-10.64634 -0.23262,-1.58282 -0.45128,-3.17171 -0.81263,-4.73017 -0.99739,-4.30183 -2.68745,-8.42065 -3.73138,-12.71143 -0.78233,-3.21548 -2.28513,-8.09617 -1.89249,-9.74583 0.28413,-1.19382 0.9462,-3.01212 2.17253,-2.97191 1.07227,0.0351 4.48537,5.8606 5.60623,8.27715 1.48004,3.19091 3.64885,6.96078 3.64885,6.96078 0,0 3.25292,-1.6181 3.71087,-1.53099 0.90539,0.17225 1.90635,0.3263 1.61125,1.1995 -0.29066,0.86004 -1.17425,2.10732 -2.00949,2.98569 -0.47211,0.49647 -1.45525,1.7023 -1.45525,1.7023 l 0.33723,2.36282 c 0,0 2.50835,-1.12692 2.94973,-1.1144 0.86052,0.0245 0.8409,0.49212 0.50264,1.28387 -0.28847,0.67524 -2.73247,3.1743 -2.73247,3.1743 0,0 0.75499,5.19879 1.06458,5.81059 0.54616,1.07939 0.73351,1.51402 1.32878,1.32334 1.87327,-0.60004 4.2614,-1.73792 6.18397,-2.97825 0.98727,-0.63693 2.10606,-1.08338 3.24048,-0.77781 1.43767,0.38724 1.07646,1.47678 0.49032,2.84565 -0.84231,1.96721 -3.15687,3.29437 -3.15687,3.29437 0,0 -3.55399,2.70083 -5.44259,3.88446 -0.76915,0.48204 -0.78175,1.76427 -0.78175,1.76427 0,0 0.48365,2.69335 0.85504,3.95047 0.14599,0.49414 0.31951,0.90477 0.31951,0.90477 0,0 4.2999,-2.38676 5.89021,-4.19938 1.79424,-2.04503 3.17267,-4.56645 3.83329,-7.20571 0.71659,-2.86267 1.59319,-6.41751 1.82736,-9.35922 0.14742,-1.85197 0.0749,-3.68728 0.18874,-5.52727 0.0884,-1.42825 -0.36795,-3.02982 0.38375,-4.27579 0.38755,-0.64237 1.11543,-0.30179 2.28156,0.0207 1.16615,0.32242 1.73905,2.44467 1.87578,4.00923 l 0.43494,4.97764 0.32909,5.64501 c 0.20017,3.43377 -1.88433,8.80315 -1.88433,8.80315 0,0 3.47464,-1.29905 5.07617,-2.21825 1.49045,-0.85544 2.9398,-2.1863 3.65242,-2.15543 0.71618,0.0311 0.98755,0.77384 1.05761,1.48734 0.0895,0.9111 -1.87252,3.298 -2.64794,4.02665 -0.93019,0.87408 -2.36791,2.31876 -3.53906,2.82626 -2.02748,0.87858 -6.04077,2.4066 -6.04077,2.4066 l -5.35065,6.27134 c 0,0 -0.85333,1.77643 -0.91994,2.73646 -0.0294,0.42388 0.23544,1.25276 0.23544,1.25276 0,0 5.18964,0.30774 7.62198,-0.44087 3.09086,-0.95129 7.01975,-4.91759 8.32469,-4.98287 0.5387,-0.027 0.6355,1.01542 0.50266,1.53824 -0.52248,2.05649 -4.10901,5.75928 -5.33497,6.60294 -0.91798,0.63173 -3.6406,2.08182 -5.62222,2.72007 -1.18081,0.38034 -4.57683,-0.17147 -6.48098,0.96752 -1.24738,0.74613 -2.36453,3.02986 -2.36453,3.02986 z"
       id="path832"
       inkscape:connector-curvature="0" />
    <path
       transform="matrix(0.03052885,0,0,0.03022271,26.60125,111.91891)"
       sodipodi:type="inkscape:offset"
       inkscape:radius="0"
       inkscape:original="M 4549.5059 487.69727 C 4528.7892 487.90284 4507.5989 492.3263 4488.9512 501.35352 C 4450.6349 519.90209 4410.8138 573.36955 4390.418 633.6543 C 4381.5912 659.74389 4374.3691 685.28525 4374.3691 690.41211 C 4374.3691 706.44915 4361.89 700.61446 4350.9531 679.46484 C 4334.6181 647.87633 4316.6206 633.34961 4293.8203 633.34961 C 4259.1841 633.34961 4221.8096 647.88311 4204.9629 667.9043 C 4169.2144 710.38896 4178.6274 752.50735 4247.748 859.36133 C 4306.1011 949.56953 4325.0212 1006.9598 4340.8379 1141.7305 C 4344.6587 1174.2868 4354.4287 1247.9153 4362.5488 1305.3496 L 4377.3125 1409.7754 L 4351.8613 1435.8398 C 4307.818 1480.9442 4310.8524 1530.7909 4362.4863 1610.3633 C 4420.7114 1700.0934 4423.3229 1710.2269 4423.7637 1848.1562 C 4424.1118 1957.0381 4422.4925 1976.2532 4409.4863 2017.5879 C 4391.2113 2075.6672 4360.7647 2112.4358 4305.2305 2143.4922 C 4257.2101 2170.3467 4242.7563 2171.809 4205.5293 2153.5762 C 4172.7677 2137.5304 4154.315 2110.1588 4130.5586 2042.3711 C 4115.892 2000.5203 4112.4787 1979.0734 4112.334 1927.8164 C 4112.1601 1866.2651 4112.927 1863.0812 4144.3145 1795.0508 C 4195.4897 1684.1316 4196.6171 1678.6654 4188.7168 1579.6387 C 4184.9448 1532.3578 4181.8594 1427.1984 4181.8594 1345.9512 C 4181.8594 1185.614 4181.779 1185.1766 4141.5527 1124.584 C 4109.3773 1076.1186 4087.2174 1031.0025 4069.8203 978.54102 C 4048.6251 914.62653 4029.269 884.76937 3993.4316 860.71094 C 3967.1451 843.06425 3954.8295 839.13672 3925.7832 839.13672 C 3857.0451 839.13672 3783.9934 879.17962 3757.3105 931.48242 C 3740.5182 964.39812 3728.9776 1009.8992 3733.6719 1024.6895 C 3735.8198 1031.4568 3763.6064 1058.6486 3795.4199 1085.1152 C 3860.8353 1139.5362 3924.0312 1208.0036 3945.2031 1247.3926 C 3957.3585 1270.0071 3959.4601 1284.777 3959.3691 1346.9668 C 3959.3103 1387.1284 3957.0281 1428.1375 3954.2988 1438.0996 L 3949.3379 1456.2129 L 3907.1445 1440.8984 C 3841.4433 1417.0502 3804.2569 1392.3931 3750.3691 1336.9473 C 3694.825 1279.7973 3646.522 1203.0899 3572.0117 1053.7129 C 3516.4612 942.34609 3490.4169 911.56269 3438.8242 896.2832 C 3371.3452 876.29888 3311.4012 885.50618 3282.0742 920.35938 C 3264.8258 940.85803 3264.395 943.46653 3266.7109 1013.5156 L 3269.0938 1085.582 L 3233.1992 1100.1035 C 3184.7444 1119.7064 3169.7513 1140.5979 3175.6934 1180.2227 C 3178.2084 1196.9941 3189.6979 1224.6736 3201.4316 1242.2305 C 3228.5865 1282.8625 3252.3435 1289.8634 3322.8652 1278.0137 L 3372.7168 1269.6367 L 3409.6016 1301.6641 C 3429.8881 1319.2785 3452.4116 1338.3983 3459.6543 1344.1523 C 3471.304 1353.4076 3471.9899 1357.6177 3465.5918 1380.6621 C 3456.5322 1413.2926 3456.2014 1460.115 3464.916 1476.3984 C 3468.5631 1483.213 3496.692 1503.979 3527.4258 1522.543 C 3600.7329 1566.8227 3678.3363 1639.456 3700.2988 1684.3457 C 3717.0104 1718.503 3731.6457 1782.3754 3739.6582 1856.123 L 3743.7695 1893.9609 L 3712.7715 1915.2891 C 3671.6609 1943.5739 3628.6035 1948.4621 3602.4473 1927.8145 C 3579.1835 1909.4501 3556.7204 1865.3071 3526.9277 1779.4102 C 3481.9378 1649.6974 3448.4632 1604.9973 3381.8047 1585.6191 C 3303.5033 1562.8563 3250.494 1602.4619 3233.4453 1696.4648 C 3224.1216 1747.8739 3232.3011 1772.1395 3272.209 1811.4473 C 3304.834 1843.5817 3318.5909 1871.8501 3328.8379 1927.8164 C 3344.8381 2015.205 3376.5744 2051.4093 3494.6758 2117.0078 C 3534.1153 2138.9142 3579.1909 2168.1086 3594.8457 2181.8848 C 3626.9568 2210.142 3677.9386 2235.203 3727.1367 2246.916 C 3763.2346 2255.5102 3838.5253 2307.8374 3878.5684 2352.1602 C 3905.342 2381.7955 3926.6649 2434.8568 3937.7305 2499.3867 C 3945.5884 2545.2105 3945.7303 2545.4339 3971.5586 2552.3887 C 4020.237 2565.4965 4114.8989 2585.0013 4160.0332 2591.2246 C 4237.4606 2601.9006 4375.1778 2590.3927 4556.4238 2558.0996 C 4596.3112 2550.9927 4631.1175 2545.1777 4633.7715 2545.1777 C 4636.4255 2545.1777 4640.5943 2526.5066 4643.0352 2503.6875 C 4658.3493 2360.5247 4676.6212 2298.8768 4730.4961 2208.5918 C 4787.0246 2113.8601 4788.1833 2112.8477 4876.9766 2080.7266 C 5016.6868 2030.1862 5157.6021 1950.1588 5208.2969 1892.5664 C 5226.3836 1872.0188 5255.7624 1818.5777 5295.5762 1733.7969 C 5328.5844 1663.5082 5359.6053 1603.9392 5364.5117 1601.4219 C 5369.418 1598.9046 5408.5539 1579.9914 5451.4805 1559.3926 C 5502.3194 1534.997 5541.4848 1510.9476 5563.8223 1490.4082 C 5596.5763 1460.2908 5598.2427 1457.0993 5600.9766 1419.3027 C 5602.8824 1392.9561 5600.4399 1371.594 5593.668 1355.3867 C 5584.4381 1333.2962 5579.3056 1329.814 5538.209 1317.7578 C 5513.3007 1310.4506 5467.5302 1299.5183 5436.4961 1293.4648 C 5370.5297 1280.5974 5366.1608 1278.6237 5335.1914 1247.6543 C 5305.9651 1218.428 5283.8925 1217.3374 5243.248 1243.1133 C 5214.3104 1261.465 5171.9381 1316.1245 5157.7793 1353.3652 C 5154.0781 1363.1 5151.0488 1399.4852 5151.0488 1434.2227 C 5151.0488 1504.4176 5135.6592 1554.9051 5094.6797 1619.1367 C 5035.8924 1711.2806 4926.148 1768.498 4808.2031 1768.498 C 4756.5991 1768.498 4751.8215 1767.2743 4730.5879 1748.6309 C 4718.1432 1737.7043 4701.5581 1713.8807 4693.7324 1695.6895 C 4672.0648 1645.3217 4644.9396 1536.7974 4649.4883 1518.6738 C 4651.7028 1509.8506 4664.031 1490.9912 4676.8848 1476.7637 C 4704.5369 1446.156 4783.1911 1414.6627 4870.1875 1399.3652 C 4937.9098 1387.457 4976.9714 1373.9075 4996.5195 1355.543 C 5009.1462 1343.6807 5011.6445 1334.4473 5011.6445 1299.6504 C 5011.6445 1262.4212 5009.8253 1256.6959 4994.6035 1246.043 C 4929.6996 1200.6206 4921.8787 1192.7564 4909.877 1160.8477 C 4903.0615 1142.7276 4893.9529 1120.4343 4889.6348 1111.3066 C 4878.2994 1087.3462 4822.2626 1058.5448 4786.6113 1058.3555 C 4758.3748 1058.2056 4755.0597 1060.5113 4686.6719 1127.9023 C 4647.7687 1166.2384 4613.8625 1197.6055 4611.3242 1197.6055 C 4602.9477 1197.6055 4606.5251 1101.5259 4616.2988 1064.002 C 4621.5733 1043.7519 4641.648 993.08832 4660.9082 951.41602 C 4702.9122 860.53395 4705.7306 833.83686 4677.2598 796.50977 C 4658.3288 771.69006 4658.1673 770.67966 4654.7031 655.30469 C 4651.3807 544.65231 4650.4475 538.18702 4635.1738 520.03516 C 4617.2452 498.72827 4584.0336 487.35464 4549.5059 487.69727 z "
       style="fill:#0b0808;fill-opacity:1;stroke:none;stroke-width:17.42089462;stroke-linecap:round;stroke-linejoin:round;stroke-miterlimit:4;stroke-dasharray:none;stroke-opacity:1;paint-order:normal"
       id="path871"
       d="m 4549.5059,487.69727 c -20.7167,0.20557 -41.907,4.62903 -60.5547,13.65625 -38.3163,18.54857 -78.1374,72.01603 -98.5332,132.30078 -8.8268,26.08959 -16.0489,51.63095 -16.0489,56.75781 0,16.03704 -12.4791,10.20235 -23.416,-10.94727 -16.335,-31.58851 -34.3325,-46.11523 -57.1328,-46.11523 -34.6362,0 -72.0107,14.5335 -88.8574,34.55469 -35.7485,42.48466 -26.3355,84.60305 42.7851,191.45703 58.3531,90.2082 77.2732,147.59847 93.0899,282.36917 3.8208,32.5563 13.5908,106.1848 21.7109,163.6191 l 14.7637,104.4258 -25.4512,26.0644 c -44.0433,45.1044 -41.0089,94.9511 10.625,174.5235 58.2251,89.7301 60.8366,99.8636 61.2774,237.7929 0.3481,108.8819 -1.2712,128.097 -14.2774,169.4317 -18.275,58.0793 -48.7216,94.8479 -104.2558,125.9043 -48.0204,26.8545 -62.4742,28.3168 -99.7012,10.084 -32.7616,-16.0458 -51.2143,-43.4174 -74.9707,-111.2051 -14.6666,-41.8508 -18.0799,-63.2977 -18.2246,-114.5547 -0.1739,-61.5513 0.593,-64.7352 31.9805,-132.7656 51.1752,-110.9192 52.3026,-116.3854 44.4023,-215.4121 -3.772,-47.2809 -6.8574,-152.4403 -6.8574,-233.6875 0,-160.3372 -0.08,-160.7746 -40.3067,-221.3672 -32.1754,-48.4654 -54.3353,-93.5815 -71.7324,-146.04298 -21.1952,-63.91449 -40.5513,-93.77165 -76.3887,-117.83008 -26.2865,-17.64669 -38.6021,-21.57422 -67.6484,-21.57422 -68.7381,0 -141.7898,40.0429 -168.4727,92.3457 -16.7923,32.9157 -28.3329,78.41678 -23.6386,93.20708 2.1479,6.7673 29.9345,33.9591 61.748,60.4257 65.4154,54.421 128.6113,122.8884 149.7832,162.2774 12.1554,22.6145 14.257,37.3844 14.166,99.5742 -0.059,40.1616 -2.341,81.1707 -5.0703,91.1328 l -4.9609,18.1133 -42.1934,-15.3145 c -65.7012,-23.8482 -102.8876,-48.5053 -156.7754,-103.9511 -55.5441,-57.15 -103.8471,-133.8574 -178.3574,-283.2344 -55.5505,-111.36681 -81.5948,-142.15021 -133.1875,-157.4297 -67.479,-19.98432 -127.423,-10.77702 -156.75,24.07618 -17.2484,20.49865 -17.6792,23.10715 -15.3633,93.15622 l 2.3829,72.0664 -35.8946,14.5215 c -48.4548,19.6029 -63.4479,40.4944 -57.5058,80.1192 2.515,16.7714 14.0045,44.4509 25.7382,62.0078 27.1549,40.632 50.9119,47.6329 121.4336,35.7832 l 49.8516,-8.377 36.8848,32.0274 c 20.2865,17.6144 42.81,36.7342 50.0527,42.4882 11.6497,9.2553 12.3356,13.4654 5.9375,36.5098 -9.0596,32.6305 -9.3904,79.4529 -0.6758,95.7363 3.6471,6.8146 31.776,27.5806 62.5098,46.1446 73.3071,44.2797 150.9105,116.913 172.873,161.8027 16.7116,34.1573 31.3469,98.0297 39.3594,171.7773 l 4.1113,37.8379 -30.998,21.3282 c -41.1106,28.2848 -84.168,33.173 -110.3242,12.5254 -23.2638,-18.3644 -45.7269,-62.5074 -75.5196,-148.4043 -44.9899,-129.7128 -78.4645,-174.4129 -145.123,-193.7911 -78.3014,-22.7628 -131.3107,16.8428 -148.3594,110.8457 -9.3237,51.4091 -1.1442,75.6747 38.7637,114.9825 32.625,32.1344 46.3819,60.4028 56.6289,116.3691 16.0002,87.3886 47.7365,123.5929 165.8379,189.1914 39.4395,21.9064 84.5151,51.1008 100.1699,64.877 32.1111,28.2572 83.0929,53.3182 132.291,65.0312 36.0979,8.5942 111.3886,60.9214 151.4317,105.2442 26.7736,29.6353 48.0965,82.6966 59.1621,147.2265 7.8579,45.8238 7.9998,46.0472 33.8281,53.002 48.6784,13.1078 143.3403,32.6126 188.4746,38.8359 77.4274,10.676 215.1446,-0.8319 396.3906,-33.125 39.8874,-7.1069 74.6937,-12.9219 77.3477,-12.9219 2.654,0 6.8228,-18.6711 9.2637,-41.4902 15.3141,-143.1628 33.586,-204.8107 87.4609,-295.0957 56.5285,-94.7317 57.6872,-95.7441 146.4805,-127.8652 139.7102,-50.5404 280.6255,-130.5678 331.3203,-188.1602 18.0867,-20.5476 47.4655,-73.9887 87.2793,-158.7695 33.0082,-70.2887 64.0291,-129.8577 68.9355,-132.375 4.9063,-2.5173 44.0422,-21.4305 86.9688,-42.0293 50.8389,-24.3956 90.0043,-48.445 112.3418,-68.9844 32.754,-30.1174 34.4204,-33.3089 37.1543,-71.1055 1.9058,-26.3466 -0.5367,-47.7087 -7.3086,-63.916 -9.2299,-22.0905 -14.3624,-25.5727 -55.459,-37.6289 -24.9083,-7.3072 -70.6788,-18.2395 -101.7129,-24.293 -65.9664,-12.8674 -70.3353,-14.8411 -101.3047,-45.8105 -29.2263,-29.2263 -51.2989,-30.3169 -91.9434,-4.541 -28.9376,18.3517 -71.3099,73.0112 -85.4687,110.2519 -3.7012,9.7348 -6.7305,46.12 -6.7305,80.8575 0,70.1949 -15.3896,120.6824 -56.3691,184.914 -58.7873,92.1439 -168.5317,149.3613 -286.4766,149.3613 -51.604,0 -56.3816,-1.2237 -77.6152,-19.8671 -12.4447,-10.9266 -29.0298,-34.7502 -36.8555,-52.9414 -21.6676,-50.3678 -48.7928,-158.8921 -44.2441,-177.0157 2.2145,-8.8232 14.5427,-27.6826 27.3965,-41.9101 27.6521,-30.6077 106.3063,-62.101 193.3027,-77.3985 67.7223,-11.9082 106.7839,-25.4577 126.332,-43.8222 12.6267,-11.8623 15.125,-21.0957 15.125,-55.8926 0,-37.2292 -1.8192,-42.9545 -17.041,-53.6074 -64.9039,-45.4224 -72.7248,-53.2866 -84.7265,-85.1953 -6.8155,-18.1201 -15.9241,-40.4134 -20.2422,-49.5411 -11.3354,-23.9604 -67.3722,-52.7618 -103.0235,-52.9511 -28.2365,-0.1499 -31.5516,2.1558 -99.9394,69.5468 -38.9032,38.3361 -72.8094,69.7032 -75.3477,69.7032 -8.3765,0 -4.7991,-96.0796 4.9746,-133.6035 5.2745,-20.2501 25.3492,-70.91368 44.6094,-112.58598 42.004,-90.88207 44.8224,-117.57916 16.3516,-154.90625 -18.931,-24.81971 -19.0925,-25.83011 -22.5567,-141.20508 -3.3224,-110.65238 -4.2556,-117.11767 -19.5293,-135.26953 -17.9286,-21.30689 -51.1402,-32.68052 -85.6679,-32.33789 z" />
    <path
       sodipodi:nodetypes="cssasacsscccasaaccscsssacassascscccsscccccaacasaassacssaacccscaaacsccasssacasssccscccccccccsscsscczsassscccsasccczsacccsscczscscscassaccscssasaaaczcccsscsscscsccssscsccssscssaaaccssacssaacscsscsssaasccacccc"
       inkscape:connector-curvature="0"
       d="m 83.788727,77.21629 c 0,0 -0.369649,-3.577206 -0.58284,-5.72744 -0.344826,-3.4779 -0.902858,-7.070502 0.247187,-10.501949 0.443922,-1.32455 0.52181,-3.770798 1.874183,-3.624832 0.650601,0.07022 0.570608,1.245416 0.508767,1.896064 -0.157864,1.660932 -0.230429,3.021743 -0.235787,4.535662 -0.0063,1.786194 0.240309,5.353225 0.240309,5.353225 0,0 3.193947,-3.94568 4.403091,-3.989487 0.7215,-0.02614 0.644627,1.483155 0.34217,2.13872 -0.85408,1.851192 -3.492412,5.403013 -3.492412,5.403013 l 1.478351,3.962073 c 3.51927,-1.70269 5.87691,-2.72576 9.17303,-4.88101 0,0 -1.49112,-2.900772 -2.08574,-4.416324 -1.04406,-2.661074 -2.845094,-6.582027 -2.587929,-8.175879 0.201589,-1.249407 1.921151,0.952247 2.666708,1.696654 0.77166,0.770471 1.193744,1.825656 1.760315,2.757365 1.116608,1.836228 3.2288,5.580484 3.2288,5.580484 l 4.18128,-7.73508 c 0,0 -0.72319,-3.752094 0.47072,-3.956935 0.45275,-0.07768 1.37212,2.858737 1.37212,2.858737 0,0 5.425,-6.276356 8.90483,-8.417878 0.56036,-0.344851 1.11168,0.277095 0.7076,0.796367 -2.26278,2.907812 -5.38671,6.181076 -7.54499,9.153232 -1.14565,1.577655 -1.03885,2.294392 -1.5638,3.439068 -0.92045,2.007108 -2.78068,6.012427 -2.78068,6.012427 0,0 4.88025,-2.187058 6.94982,-3.835803 2.07947,-1.656632 4.05117,-6.060162 5.31732,-5.945071 1.29148,0.117394 0.32412,2.602873 -0.25421,3.763579 -1.17654,2.3613 -2.86628,4.523138 -4.93409,6.142022 -2.63558,2.063385 -7.04534,4.180893 -9.10889,4.226397 l -2.669204,0.05886 c 0,0 -6.3407,4.004822 -9.805022,5.162847 -3.778678,1.263105 -11.507538,1.741622 -11.507538,1.741622 l -5.48853,-0.11434 -0.78031,1.38543 c 0,0 4.645854,-0.06338 6.55471,0.24406 0.521604,0.08401 1.004899,1.291739 -0.20014,1.57229 -3.433253,0.799313 -8.31848,1.71524 -8.31848,1.71524 l -2.28688,3.54482 -8.33967,0.25622 c -3.34871,-2.44188 -5.34469,-4.34347 -8.01268,-7.01155 l -7.788499,0.67001 c -3.47,-0.10365 -5.805212,-0.50847 -8.69219,-0.89476 -1.620534,-0.216834 -3.302304,-0.241369 -4.839555,-0.798151 -1.771691,-0.641695 -4.873003,-2.86527 -4.873003,-2.86527 0,0 -4.157378,0.273462 -6.237606,0.232045 -1.182302,-0.02354 -1.370824,0.09735 -3.537097,-0.272891 C 14.149138,80.098398 12.834857,79.404097 11.543711,78.711594 10.538727,78.172574 9.5396703,77.57061 8.7250486,76.772533 7.9076684,75.971753 7.0859097,74.905354 6.721807,73.984837 6.0591916,72.309625 4.4352085,68.271867 6.1515972,68.819045 c 1.3344589,0.425421 2.4192517,4.029519 4.1655098,5.543986 1.608688,1.395158 5.598694,3.076313 5.598694,3.076313 0,0 0.989538,0.198672 0.755474,-0.151923 -0.790696,-1.184352 -2.954962,-3.107196 -3.607698,-4.83879 -0.336793,-0.893451 -0.935299,-2.458218 -0.0708,-2.86359 0.661392,-0.310133 1.124089,0.935305 1.64962,1.44269 1.647568,1.590682 4.701768,5.009603 4.701768,5.009603 l 1.316268,1.19264 2.749661,-0.427319 c 0,0 -3.985342,-6.100203 -5.223267,-9.493185 -1.309775,-3.589912 -2.24022,-11.243141 -2.24022,-11.243141 0,0 -0.351788,-4.614042 0.0292,-6.873245 0.199331,-1.182002 -0.03367,-3.384385 1.16489,-3.402174 1.392199,-0.02066 1.110737,2.564667 1.469773,3.909932 0.505001,1.892182 0.947937,5.79826 0.947937,5.79826 0,0 1.139596,6.92141 2.52277,10.106069 1.702269,3.919353 6.96994,10.75878 6.96994,10.75878 l 1.22955,-5.17506 c 0,0 -0.291547,-3.09052 -0.48513,-4.630271 -0.22205,-1.766171 -0.523109,-3.361042 -0.775547,-5.283611 -0.28966,-2.206055 -1.172038,-5.786252 0.171807,-6.67276 0.675942,-0.445906 1.246928,0.800679 1.583352,1.537258 0.807139,1.767182 1.20398,4.084592 1.665248,6.161512 0.597292,2.689387 1.42374,8.141192 1.42374,8.141192 0,0 1.548265,-3.004144 1.97075,-4.626177 0.392418,-1.5066 -0.25527,-4.590127 0.4983,-4.643945 1.127387,-0.08051 1.757605,1.690672 1.89368,2.81271 0.338429,2.790593 -0.506917,5.711876 -1.60147,8.394162 -0.610581,1.496274 -2.739405,4.084989 -2.739405,4.084989 l -0.171245,2.113709 c 1.3542,0.24703 4.77783,0.94175 5.910436,0.823821 l 8.934064,-0.930229 c -0.4569,-1.22073 -0.92636,-2.36958 -1.32259,-3.57443 -0.78276,-2.02395 -1.399947,-2.929032 -1.399947,-2.929032 l -1.49179,-2.804852 -5.082363,-7.3818 -3.86219,-8.174358 -4.559948,-3.581965 -4.773212,-5.790946 -4.79777,-7.277126 c 0,0 -3.260492,-6.548157 -1.316755,-6.900994 0.298605,-0.0542 0.491751,0.254967 1.428101,1.71764 1.693788,2.645866 4.308854,6.472547 4.308854,6.472547 0,0 1.744405,-6.393198 3.025645,-6.270745 0.511445,0.04888 0.449169,0.251839 0.510502,0.690303 0.26071,1.863778 -0.846523,6.762154 -0.50645,9.088538 2.439325,4.398418 5.069886,6.128047 5.069886,6.128047 0,0 0.143497,-5.741525 0.89696,-8.203913 0.753468,-2.462388 1.351696,-4.125748 2.07508,-6.172231 0.862238,-2.439307 1.977858,-5.11425 3.606022,-7.277102 0.816172,-1.084202 2.292149,-3.746995 3.005635,-2.746059 1.189939,1.669343 -2.318706,7.317469 -3.054097,10.993467 -0.501634,2.507516 -1.389355,4.922314 -2.043083,7.394542 -0.561161,2.122165 -0.184111,4.708441 0.03539,6.549561 2.484082,-0.435885 2.168471,-0.722762 4.674631,-2.135402 1.865097,-2.053703 1.547443,-1.819806 3.006759,-4.348673 0.934809,-1.712968 1.237046,-6.03552 2.46619,-5.929293 1.553236,0.134236 1.137889,4.655471 0.64233,6.917619 -0.490032,2.236919 -1.569397,3.49127 -3.436775,5.948446 -2.663631,3.504919 -5.577596,3.855955 -5.577596,3.855955 l 3.161156,6.38232 4.182015,5.847092 c 0,0 1.649433,-4.342372 2.725724,-7.097464 1.076291,-2.755092 2.000252,-9.008656 3.75156,-9.424537 1.718016,-0.407975 0.734003,3.505253 0.58617,5.264846 -0.410012,4.880213 -4.039328,14.126045 -4.039328,14.126045 0,0 0.431938,1.036618 1.148668,2.199393 1.299516,-1.430621 3.525715,-4.790614 4.88417,-6.521643 1.358455,-1.731029 2.694878,-4.062431 3.501891,-3.28436 1.109163,1.069383 -0.511326,3.205716 -1.992426,5.802091 -1.190001,2.086076 -3.954164,5.515341 -4.620613,6.72926 0.644818,1.767565 1.38021,2.64962 1.38021,2.64962 0,0 3.613228,-3.318212 4.725288,-4.035207 1.11206,-0.716995 1.741238,-0.836907 1.82949,-0.2287 0.164133,1.131162 -5.112522,6.245005 -5.112522,6.245005 0,0 0.965002,1.334306 1.524912,1.935085 1.393468,1.495182 4.53706,4.124439 4.53706,4.124439 0,0 5.218938,-3.804312 5.91118,-6.701399 1.061155,-4.441018 2.28689,-12.807141 2.28689,-12.807141 0,0 -2.024365,-1.998078 -2.88072,-3.127455 -1.358885,-1.792122 -3.01068,-3.804248 -3.54489,-5.740921 -0.135782,-0.49225 0.162288,-1.502451 0.65876,-1.383025 0.93299,0.22443 2.03535,2.22281 3.07958,3.309098 1.105976,1.150521 3.37331,3.397458 3.37331,3.397458 l 0.34306,-2.858737 c 0,0 -2.371482,-3.345275 -3.367627,-5.094017 -2.709293,-4.756187 -6.451293,-14.930626 -6.451293,-14.930626 0,0 -6.026625,-2.825116 -7.0616,-3.78167 -1.467736,-1.356525 -3.590983,-3.797731 -4.265164,-5.291199 -0.793479,-1.75774 -1.611301,-3.572579 -1.82952,-5.488731 -0.181964,-1.597805 -1.021552,-4.171144 0.45739,-4.802669 1.101934,-0.470538 1.574901,3.30172 2.414561,4.926296 0.765916,1.481897 1.449487,3.019348 2.391952,4.395722 0.710292,1.037309 1.462249,2.08448 2.436868,2.878609 1.336404,1.088918 4.540733,2.47532 4.540733,2.47532 0,0 0.574135,-5.20389 0.91478,-7.204014 0.340645,-2.000124 0.781825,-5.008715 0.781825,-5.008715 l -3.869115,-2.652691 -2.40119,-1.943933 c 0,0 -5.300599,-5.141829 -3.60184,-6.2320603 0.962802,-0.6179082 2.923259,2.7213163 4.57373,3.8307143 1.556545,1.046263 4.97398,2.630018 4.97398,2.630018 0,0 -1.955834,-11.7648783 -0.68608,-11.6636193 0.374134,0.02984 0.794918,8.89e-4 1.076196,0.576131 1.493068,3.05348 3.040184,11.5449023 3.040184,11.5449023 5.40142,-2.524395 6.693711,-5.940514 8.13681,-5.57384 1.039798,0.2642 -2.552852,4.889369 -7.364272,9.201103 0,0 -1.001166,4.523232 -1.344268,6.892879 -0.235117,1.623844 -0.22869,4.917017 -0.22869,4.917017 l 0.34305,1.372171 c 0,0 2.841141,-0.42112 5.25979,-1.943887 1.506441,-0.948446 3.378842,-4.260793 4.23074,-3.258999 1.030072,1.211318 -1.712796,4.509572 -3.31597,6.232061 -1.318495,1.416623 -4.91681,3.087432 -4.91681,3.087432 0,0 1.07647,4.124396 1.94387,6.060516 1.593484,3.556809 5.93121,10.076284 5.93121,10.076284 l 7.96168,-7.29004 c 0,0 -1.211597,-2.919224 -1.82954,-4.373717 -1.213268,-2.855749 -3.186074,-5.81098 -3.68738,-8.546878 -0.202249,-1.103781 -0.359183,-3.777332 0.65719,-3.301703 0.902196,0.422198 4.71628,8.217597 4.71628,8.217597 0,0 -3.268524,-11.323338 -4.71628,-17.251173 -0.498127,-2.039579 -1.75055,-6.447281 0.34302,-6.289234 1.405335,0.106091 2.604754,5.633615 3.673826,8.543365 1.205499,3.281071 2.164249,6.650618 3.079793,10.024107 0.452261,1.666439 0.796288,3.360384 1.190724,5.041449 0.355625,1.515655 1.060187,4.54853 1.060187,4.54853 0,0 4.146687,-2.226375 5.170496,-3.405844 0.55758,-2.111927 0.814699,-8.120256 0.815663,-12.364032 5.57e-4,-2.45424 -0.783303,-7.81486 0.547196,-7.342358 2.118666,0.752405 2.011036,5.256795 2.376612,8.021429 0.456014,3.448554 -0.261933,10.432433 -0.261933,10.432433 0,0 6.025235,-4.620094 7.989515,-6.303683 0.98436,-0.843698 4.27813,-1.350656 3.88768,-0.114393 -0.65525,2.074721 -6.40246,6.895695 -10.094908,9.779225 -1.778484,1.388864 -3.903593,2.27596 -5.748175,3.575755 -1.425403,1.004418 -4.096446,3.25343 -4.096446,3.25343 0,0 4.606018,1.318868 6.974975,1.372194 2.370354,0.05336 7.441754,-0.358223 7.441754,-0.358223 0,0 0.69367,-7.112302 1.16164,-8.120227 0.44167,-0.951296 1.22807,-1.604464 1.70329,-0.669475 0.37815,0.744 0.50024,8.054101 0.50024,8.054101 0,0 4.24256,-3.150622 7.57883,-8.160045 0.80705,-1.211797 1.5084,-0.533023 1.54409,-0.01952 0.20398,2.934889 -3.665,6.365407 -6.58906,9.596354 -1.05496,1.165688 -1.88617,1.522147 -2.97269,2.032293 -1.40108,0.657832 -2.93002,1.075343 -4.46485,1.2755 -3.501436,0.456623 -7.092141,0.273036 -10.591359,-0.20028 -1.832166,-0.24783 -5.723811,-1.663569 -5.723811,-1.663569 l -6.167949,6.237561 c 0,0 -0.790126,2.237249 -1.071879,3.387638 -1.080596,4.412038 -2.358421,13.421689 -2.358421,13.421689 l -0.09886,1.997824 8.011271,0.596507 1.64485,-0.17496"
       style="fill:#0b0808;fill-opacity:1;stroke:none;stroke-width:0.26458332px;stroke-linecap:butt;stroke-linejoin:miter;stroke-opacity:1"
       id="path1864" />
    <path
       inkscape:connector-curvature="0"
       id="path818"
       d="m 63.744235,129.56266 c -1.730855,0.0497 -2.244678,1.57861 -2.712908,2.78779 -1.089911,2.81472 0.251703,7.44481 0.297734,9.05037 0.04606,1.6056 0.07031,2.33623 1.237358,4.71308 1.167076,2.37691 -0.698061,6.31371 -0.526894,8.45134 0.171212,2.13762 -1.452985,2.98761 -1.452985,2.98761 l -1.052404,-9.87905 c 0,0 -0.06273,-3.56945 -0.153381,-5.35183 -0.08396,-1.65037 0.431645,-3.49421 -0.361318,-4.94404 -0.516132,-0.94375 -1.616183,-2.40635 -2.582992,-1.93476 -3.465868,1.69047 -4.542476,1.18444 -5.738884,2.9768 -0.89752,1.34457 -0.679076,3.23791 -0.410952,4.83217 0.287895,1.71212 1.103978,3.0745 1.18232,4.68239 0.09322,1.91316 -1.205716,3.71432 -0.858441,5.68205 0.228653,1.29566 1.528717,3.97921 2.009211,5.11408 0.489641,1.15653 2.10259,1.15588 2.470652,2.8284 0.72931,3.31377 1.348797,12.31544 1.348797,12.31544 0,0 -1.481648,-1.73205 -1.946944,-2.75621 -1.094207,-2.40859 -1.029631,-2.11217 -2.102567,-5.92654 -0.399819,-1.42151 -2.400853,-1.77786 -2.778316,-3.20551 -0.961403,-3.63588 -1.881096,-11.97078 -1.881096,-11.97078 0,0 0.474466,-2.27867 0.72312,-4.32831 0.213871,-1.76265 0.600272,-2.02512 -0.148855,-4.98643 -0.265538,-1.04954 -0.160796,-3.42617 -2.099864,-3.37648 -1.612072,0.0414 -4.220585,-0.20741 -5.448381,1.45524 -0.335265,0.45396 -2.443028,2.43144 -2.906431,2.75352 -0.326927,0.22724 -0.864123,0.012 -1.489961,-0.0491 -0.449592,-0.0534 -0.946461,-0.61392 -2.749008,1.0849 -0.667873,0.67215 -1.856083,1.77104 -1.554931,2.37954 0.340993,0.68907 0.857748,2.87534 1.79086,3.41255 0.839432,0.48328 1.829361,1.64201 2.815316,1.85357 1.304661,0.27991 2.5938,1.85401 2.5938,1.85401 l 3.202802,6.75835 c 0,0 0.666604,1.63852 0.810632,4.87007 0.08772,1.96965 0.506362,4.72843 1.909505,6.44709 1.794948,2.19853 3.279736,4.36438 3.532085,5.02389 -1.195368,1.03181 -1.487721,1.37548 -2.924907,1.58831 l -2.542389,-5.11815 -1.74305,-3.29752 -1.01769,-6.31765 c 0,0 -0.602973,-3.69792 -4.254304,-9.27638 -0.541561,-0.82744 -2.831992,0.88459 -2.831992,0.88459 0,0 -2.719329,0.0374 -3.60022,0.90671 -2.552897,2.51927 0.184055,5.37214 0.184055,5.37214 2.077206,2.54324 1.210381,2.40609 2.97498,5.06313 0.698015,1.05103 2.171139,2.71018 2.171139,2.71018 0,0 1.690807,2.03428 2.173842,3.4189 1.770743,5.07558 1.69344,7.55769 1.69344,7.55769 0,0 -1.892022,0.27329 -2.642996,-0.1917 -1.734643,-1.07402 -2.234122,-3.4282 -3.117992,-5.26703 -1.456149,-3.02933 -1.231793,-5.59548 -3.017848,-8.44276 -0.350047,-0.55803 -1.288701,-2.20085 -1.909043,-2.4224 -0.866132,-0.30938 -2.108317,-0.32469 -2.737713,0.346 -0.827746,0.88212 -0.601749,1.94433 -1.159339,3.01784 -0.443979,0.85475 -0.99614,1.50348 -1.322166,2.40978 -1.066678,2.96544 1.85301,2.30689 2.303317,3.6832 0.256738,0.78465 0.18223,2.47021 0.18223,2.47021 0,0 -2.002998,0.24131 -2.899641,2.96373 -0.527449,1.60141 1.832756,2.32116 3.189706,3.32189 1.124695,0.82943 3.889361,1.56397 3.889361,1.56397 1.066123,-0.30852 4.529936,0.83361 4.529936,0.83361 0,0 6.354862,0.46298 8.637185,2.29655 2.317616,1.86192 2.474024,3.58276 4.204695,4.83398 1.400949,1.01283 3.110533,1.56811 4.783,2.00558 2.720091,0.7115 5.568689,0.88581 8.379155,0.96489 3.002581,0.0845 6.071702,0.15975 8.99624,-0.52553 2.144048,-0.50241 4.448844,-1.10476 6.07946,-2.5848 1.18521,-1.07575 1.26796,-2.99087 2.29699,-4.21686 0.63122,-0.75206 1.41338,-0.79996 2.30332,-1.21482 1.25471,-0.58489 2.71284,-1.17451 4.07071,-1.44395 2.688706,-0.53348 3.046996,-1.68469 8.071946,-1.57163 1.8662,0.042 5.05716,-3.76818 3.32776,-4.47083 -1.23429,-0.50152 -1.78021,-2.73915 -2.69351,-2.38767 -4.98486,1.9184 -7.50674,3.03768 -7.50674,3.03768 l -1.364566,-0.91211 5.371676,-3.79328 c 0,0 4.97001,-2.05505 7.68492,-2.85455 0.93353,-0.27487 1.06869,-1.80676 0.92339,-2.76885 -0.28602,-1.89426 -1.60303,-3.8796 -3.34716,-4.67202 -0.60144,-0.27326 -1.66183,-0.50884 -1.66183,-0.50884 0,0 -0.59908,-1.21355 -1.34518,-1.30413 -0.95696,-0.11622 -1.87428,1.10375 -2.24015,1.47419 -0.64551,0.65364 -1.27186,2.93571 -1.25269,3.60473 0.0192,0.669 -3.752236,4.33143 -3.752236,4.33143 -0.94812,0.91776 -1.87532,1.78684 -3.00928,2.36286 0,0 4.019716,-6.87653 5.953586,-10.35766 1.39723,-2.51521 3.35154,-6.86626 4.08108,-7.60596 0.70855,-0.71844 1.8644,-3.01046 1.90634,-4.70092 0.0358,-1.444 -0.26459,-3.23476 -1.42725,-4.09192 -0.5611,-0.41363 -0.98813,0.0284 -2.08996,-0.074 -1.10185,-0.10229 -3.25368,-2.00133 -4.994996,-1.73132 -1.14996,0.17838 -2.76432,0.92538 -2.79725,2.0886 -0.0769,2.70094 1.8831,6.51651 0.39199,8.69852 -3.67609,5.37946 -5.52169,13.80518 -5.93375,15.50112 l -4.193864,5.5476 1.747114,-7.33849 1.59463,-5.27783 c 0,0 2.55722,-6.63498 2.99258,-6.78136 0.43539,-0.14639 2.2141,-1.34656 2.5663,-2.48375 0.44213,-1.42762 0.17232,-3.3475 -0.89542,-4.39325 -0.61505,-0.60235 -1.40213,-0.3066 -1.99702,-0.92881 -0.71323,-0.74596 -0.27597,-1.83025 -0.96129,-2.60193 -0.53165,-0.5987 -1.52481,-0.63076 -2.32496,-0.60267 -0.61205,0.0217 -1.315743,0.1455 -1.741707,0.5855 -1.373533,1.41862 -1.323484,3.65348 -1.705149,5.67302 -0.381666,2.01958 -0.384415,5.76907 -1.488622,9.41625 -1.104209,3.64719 -0.709493,5.91199 -0.992862,7.52701 -0.172329,0.98216 -1.304754,4.3886 -2.531169,6.4507 -0.790228,1.3287 -1.07624,-1.1555 -1.07624,-1.1555 0,0 -0.441616,-6.08924 0.45468,-11.76621 0.39162,-2.48032 2.200079,-4.53081 2.988538,-6.91487 0.985678,-2.98035 0.891885,-6.29385 2.154879,-9.16769 0.930386,-2.11693 3.901552,-5.73572 3.901552,-5.73572 0,0 2.70903,-2.18287 2.03402,-4.02831 -0.42324,-1.15693 -1.76106,-3.17702 -2.940728,-3.53207 -0.77608,-0.23341 -1.460676,-0.10976 -2.093536,-0.25353 -0.875671,-0.1989 -1.809036,-0.15821 -2.654266,-0.46145 -1.010068,-0.36239 -2.324591,-0.79579 -2.798617,-1.5906 -0.406033,-0.68081 -1.642329,-1.00603 -2.623133,-0.97796 z"
       style="fill:#0b0808;fill-opacity:1;stroke:none;stroke-width:0.26458332px;stroke-linecap:butt;stroke-linejoin:miter;stroke-opacity:1"
       sodipodi:nodetypes="cccscccccccccccccccccccccccccccccccccccccccccccccccccccccccccscsccccccccsccccccccccccccccccccccccscccccccssscccccccccccc" />
  </g>
</svg>
